<?xml version="1.0" encoding="UTF-8" standalone="no"?><svg xmlns="http://www.w3.org/2000/svg" xmlns:xlink="http://www.w3.org/1999/xlink" contentStyleType="text/css" height="886px" preserveAspectRatio="none" style="width:1434px;height:886px;background:#FFFFFF;" version="1.1" viewBox="0 0 1434 886" width="1434px" zoomAndPan="magnify"><defs/><g><!--MD5=[3fd616f346a44cd59a91eb10b19e157c]
class User--><g id="elem_User"><rect codeLine="1" fill="#F1F1F1" height="113.1875" id="User" rx="2.5" ry="2.5" style="stroke:#181818;stroke-width:0.5;" width="348" x="934.5" y="7"/><ellipse cx="1088.75" cy="23" fill="#ADD1B2" rx="11" ry="11" style="stroke:#181818;stroke-width:1.0;"/><path d="M1091.0938,18.6719 C1090.1563,18.2344 1089.5625,18.0938 1088.6875,18.0938 C1086.0625,18.0938 1084.0625,20.1719 1084.0625,22.8906 L1084.0625,24.0156 C1084.0625,26.5938 1086.1719,28.4844 1089.0625,28.4844 C1090.2813,28.4844 1091.4375,28.1875 1092.1875,27.6406 C1092.7656,27.2344 1093.0938,26.7813 1093.0938,26.3906 C1093.0938,25.9375 1092.7031,25.5469 1092.2344,25.5469 C1092.0156,25.5469 1091.8125,25.625 1091.625,25.8125 C1091.1719,26.2969 1091.1719,26.2969 1090.9844,26.3906 C1090.5625,26.6563 1089.875,26.7813 1089.1094,26.7813 C1087.0625,26.7813 1085.7656,25.6875 1085.7656,23.9844 L1085.7656,22.8906 C1085.7656,21.1094 1087.0156,19.7969 1088.75,19.7969 C1089.3281,19.7969 1089.9375,19.9531 1090.4063,20.2031 C1090.8906,20.4844 1091.0625,20.7031 1091.1563,21.1094 C1091.2188,21.5156 1091.25,21.6406 1091.3906,21.7656 C1091.5313,21.9063 1091.7656,22.0156 1091.9844,22.0156 C1092.25,22.0156 1092.5156,21.875 1092.6875,21.6563 C1092.7969,21.5 1092.8281,21.3125 1092.8281,20.8906 L1092.8281,19.4688 C1092.8281,19.0313 1092.8125,18.9063 1092.7188,18.75 C1092.5625,18.4844 1092.2813,18.3438 1091.9844,18.3438 C1091.6875,18.3438 1091.4844,18.4375 1091.2656,18.75 L1091.0938,18.6719 Z " fill="#000000"/><text fill="#000000" font-family="sans-serif" font-size="14" lengthAdjust="spacing" textLength="31" x="1109.25" y="27.8467">User</text><line style="stroke:#181818;stroke-width:0.5;" x1="935.5" x2="1281.5" y1="39" y2="39"/><rect fill="none" height="6" style="stroke:#C82930;stroke-width:1.0;" width="6" x="942.5" y="49.6484"/><text fill="#000000" font-family="sans-serif" font-size="14" lengthAdjust="spacing" textLength="118" x="954.5" y="55.9951">String username</text><rect fill="none" height="6" style="stroke:#C82930;stroke-width:1.0;" width="6" x="942.5" y="65.9453"/><text fill="#000000" font-family="sans-serif" font-size="14" lengthAdjust="spacing" textLength="115" x="954.5" y="72.292">String password</text><rect fill="none" height="6" style="stroke:#C82930;stroke-width:1.0;" width="6" x="942.5" y="82.2422"/><text fill="#000000" font-family="sans-serif" font-size="14" lengthAdjust="spacing" textLength="87" x="954.5" y="88.5889">String email</text><line style="stroke:#181818;stroke-width:0.5;" x1="935.5" x2="1281.5" y1="95.8906" y2="95.8906"/><rect fill="#F24D5C" height="6" style="stroke:#C82930;stroke-width:1.0;" width="6" x="942.5" y="106.5391"/><text fill="#000000" font-family="sans-serif" font-size="14" lengthAdjust="spacing" textLength="322" x="954.5" y="112.8857">bool login(String username, String password)</text></g><!--MD5=[9aca94ff0b4a03864cced63fe67dff92]
class RoomType--><g id="elem_RoomType"><rect codeLine="8" fill="#F1F1F1" height="113.1875" id="RoomType" rx="2.5" ry="2.5" style="stroke:#181818;stroke-width:0.5;" width="110" x="1317.5" y="7"/><ellipse cx="1332.5" cy="23" fill="#EB937F" rx="11" ry="11" style="stroke:#181818;stroke-width:1.0;"/><path d="M1331.2969,23.875 L1332.75,23.875 L1332.75,23.9844 C1332.75,24.3906 1332.7813,24.5469 1332.8594,24.7031 C1333.0156,24.9531 1333.2969,25.1094 1333.5938,25.1094 C1333.8438,25.1094 1334.1094,24.9688 1334.2656,24.75 C1334.3906,24.5938 1334.4219,24.4375 1334.4219,23.9844 L1334.4219,22.0625 C1334.4219,21.9063 1334.4219,21.8594 1334.4063,21.7031 C1334.3438,21.2344 1334.0313,20.9219 1333.5781,20.9219 C1333.3281,20.9219 1333.0625,21.0625 1332.8906,21.2813 C1332.7813,21.4531 1332.75,21.6094 1332.75,22.0625 L1332.75,22.1875 L1331.2969,22.1875 L1331.2969,19.7813 L1335.2813,19.7813 L1335.2813,20.6406 C1335.2813,21.0469 1335.3125,21.2188 1335.3906,21.375 C1335.5625,21.625 1335.8438,21.7813 1336.125,21.7813 C1336.3906,21.7813 1336.6563,21.6406 1336.8281,21.4219 C1336.9375,21.25 1336.9688,21.1094 1336.9688,20.6406 L1336.9688,18.0938 L1329.3438,18.0938 C1328.9063,18.0938 1328.7813,18.1094 1328.625,18.2031 C1328.375,18.3594 1328.2188,18.6563 1328.2188,18.9375 C1328.2188,19.2188 1328.3594,19.4688 1328.5781,19.6406 C1328.7344,19.75 1328.9219,19.7813 1329.3438,19.7813 L1329.5938,19.7813 L1329.5938,26.2969 L1329.3438,26.2969 C1328.9375,26.2969 1328.7813,26.3125 1328.625,26.4219 C1328.375,26.5938 1328.2188,26.8594 1328.2188,27.1563 C1328.2188,27.4219 1328.3594,27.6719 1328.5781,27.8281 C1328.7188,27.9531 1328.9531,28 1329.3438,28 L1337.3438,28 L1337.3438,25.4219 C1337.3438,24.9844 1337.3125,24.8438 1337.2344,24.6875 C1337.0625,24.4375 1336.7813,24.2813 1336.5,24.2813 C1336.2344,24.2813 1335.9688,24.3906 1335.7969,24.6406 C1335.6875,24.7969 1335.6563,24.9375 1335.6563,25.4219 L1335.6563,26.2969 L1331.2969,26.2969 L1331.2969,23.875 Z " fill="#000000"/><text fill="#000000" font-family="sans-serif" font-size="14" lengthAdjust="spacing" textLength="78" x="1346.5" y="27.8467">RoomType</text><line style="stroke:#181818;stroke-width:0.5;" x1="1318.5" x2="1426.5" y1="39" y2="39"/><text fill="#000000" font-family="sans-serif" font-size="14" lengthAdjust="spacing" textLength="40" x="1323.5" y="55.9951">SUITE</text><text fill="#000000" font-family="sans-serif" font-size="14" lengthAdjust="spacing" textLength="51" x="1323.5" y="72.292">SINGLE</text><text fill="#000000" font-family="sans-serif" font-size="14" lengthAdjust="spacing" textLength="58" x="1323.5" y="88.5889">DOUBLE</text><text fill="#000000" font-family="sans-serif" font-size="14" lengthAdjust="spacing" textLength="49" x="1323.5" y="104.8857">TRIPLE</text><line style="stroke:#181818;stroke-width:0.5;" x1="1318.5" x2="1426.5" y1="112.1875" y2="112.1875"/></g><!--MD5=[b24ed8d4ae84bae9290d9aab401637c7]
class Manager--><g id="elem_Manager"><rect codeLine="14" fill="#F1F1F1" height="48" id="Manager" rx="2.5" ry="2.5" style="stroke:#181818;stroke-width:0.5;" width="93" x="936" y="181"/><ellipse cx="951" cy="197" fill="#ADD1B2" rx="11" ry="11" style="stroke:#181818;stroke-width:1.0;"/><path d="M953.3438,192.6719 C952.4063,192.2344 951.8125,192.0938 950.9375,192.0938 C948.3125,192.0938 946.3125,194.1719 946.3125,196.8906 L946.3125,198.0156 C946.3125,200.5938 948.4219,202.4844 951.3125,202.4844 C952.5313,202.4844 953.6875,202.1875 954.4375,201.6406 C955.0156,201.2344 955.3438,200.7813 955.3438,200.3906 C955.3438,199.9375 954.9531,199.5469 954.4844,199.5469 C954.2656,199.5469 954.0625,199.625 953.875,199.8125 C953.4219,200.2969 953.4219,200.2969 953.2344,200.3906 C952.8125,200.6563 952.125,200.7813 951.3594,200.7813 C949.3125,200.7813 948.0156,199.6875 948.0156,197.9844 L948.0156,196.8906 C948.0156,195.1094 949.2656,193.7969 951,193.7969 C951.5781,193.7969 952.1875,193.9531 952.6563,194.2031 C953.1406,194.4844 953.3125,194.7031 953.4063,195.1094 C953.4688,195.5156 953.5,195.6406 953.6406,195.7656 C953.7813,195.9063 954.0156,196.0156 954.2344,196.0156 C954.5,196.0156 954.7656,195.875 954.9375,195.6563 C955.0469,195.5 955.0781,195.3125 955.0781,194.8906 L955.0781,193.4688 C955.0781,193.0313 955.0625,192.9063 954.9688,192.75 C954.8125,192.4844 954.5313,192.3438 954.2344,192.3438 C953.9375,192.3438 953.7344,192.4375 953.5156,192.75 L953.3438,192.6719 Z " fill="#000000"/><text fill="#000000" font-family="sans-serif" font-size="14" lengthAdjust="spacing" textLength="61" x="965" y="201.8467">Manager</text><line style="stroke:#181818;stroke-width:0.5;" x1="937" x2="1028" y1="213" y2="213"/><line style="stroke:#181818;stroke-width:0.5;" x1="937" x2="1028" y1="221" y2="221"/></g><!--MD5=[ed6624c6556d5e7b1bd23032162d20b7]
class Client--><g id="elem_Client"><rect codeLine="18" fill="#F1F1F1" height="64.2969" id="Client" rx="2.5" ry="2.5" style="stroke:#181818;stroke-width:0.5;" width="254" x="1119.5" y="259"/><ellipse cx="1220.75" cy="275" fill="#ADD1B2" rx="11" ry="11" style="stroke:#181818;stroke-width:1.0;"/><path d="M1223.0938,270.6719 C1222.1563,270.2344 1221.5625,270.0938 1220.6875,270.0938 C1218.0625,270.0938 1216.0625,272.1719 1216.0625,274.8906 L1216.0625,276.0156 C1216.0625,278.5938 1218.1719,280.4844 1221.0625,280.4844 C1222.2813,280.4844 1223.4375,280.1875 1224.1875,279.6406 C1224.7656,279.2344 1225.0938,278.7813 1225.0938,278.3906 C1225.0938,277.9375 1224.7031,277.5469 1224.2344,277.5469 C1224.0156,277.5469 1223.8125,277.625 1223.625,277.8125 C1223.1719,278.2969 1223.1719,278.2969 1222.9844,278.3906 C1222.5625,278.6563 1221.875,278.7813 1221.1094,278.7813 C1219.0625,278.7813 1217.7656,277.6875 1217.7656,275.9844 L1217.7656,274.8906 C1217.7656,273.1094 1219.0156,271.7969 1220.75,271.7969 C1221.3281,271.7969 1221.9375,271.9531 1222.4063,272.2031 C1222.8906,272.4844 1223.0625,272.7031 1223.1563,273.1094 C1223.2188,273.5156 1223.25,273.6406 1223.3906,273.7656 C1223.5313,273.9063 1223.7656,274.0156 1223.9844,274.0156 C1224.25,274.0156 1224.5156,273.875 1224.6875,273.6563 C1224.7969,273.5 1224.8281,273.3125 1224.8281,272.8906 L1224.8281,271.4688 C1224.8281,271.0313 1224.8125,270.9063 1224.7188,270.75 C1224.5625,270.4844 1224.2813,270.3438 1223.9844,270.3438 C1223.6875,270.3438 1223.4844,270.4375 1223.2656,270.75 L1223.0938,270.6719 Z " fill="#000000"/><text fill="#000000" font-family="sans-serif" font-size="14" lengthAdjust="spacing" textLength="43" x="1241.25" y="279.8467">Client</text><line style="stroke:#181818;stroke-width:0.5;" x1="1120.5" x2="1372.5" y1="291" y2="291"/><line style="stroke:#181818;stroke-width:0.5;" x1="1120.5" x2="1372.5" y1="299" y2="299"/><ellipse cx="1130.5" cy="312.6484" fill="#84BE84" rx="3" ry="3" style="stroke:#038048;stroke-width:1.0;"/><text fill="#000000" font-family="sans-serif" font-size="14" lengthAdjust="spacing" textLength="228" x="1139.5" y="315.9951">Reservation[] getReservations()</text></g><!--MD5=[d218c48b946d362ff1ecd879cabebcad]
class Room--><g id="elem_Room"><rect codeLine="22" fill="#F1F1F1" height="194.6719" id="Room" rx="2.5" ry="2.5" style="stroke:#181818;stroke-width:0.5;" width="689" x="7" y="353"/><ellipse cx="326.25" cy="369" fill="#ADD1B2" rx="11" ry="11" style="stroke:#181818;stroke-width:1.0;"/><path d="M328.5938,364.6719 C327.6563,364.2344 327.0625,364.0938 326.1875,364.0938 C323.5625,364.0938 321.5625,366.1719 321.5625,368.8906 L321.5625,370.0156 C321.5625,372.5938 323.6719,374.4844 326.5625,374.4844 C327.7813,374.4844 328.9375,374.1875 329.6875,373.6406 C330.2656,373.2344 330.5938,372.7813 330.5938,372.3906 C330.5938,371.9375 330.2031,371.5469 329.7344,371.5469 C329.5156,371.5469 329.3125,371.625 329.125,371.8125 C328.6719,372.2969 328.6719,372.2969 328.4844,372.3906 C328.0625,372.6563 327.375,372.7813 326.6094,372.7813 C324.5625,372.7813 323.2656,371.6875 323.2656,369.9844 L323.2656,368.8906 C323.2656,367.1094 324.5156,365.7969 326.25,365.7969 C326.8281,365.7969 327.4375,365.9531 327.9063,366.2031 C328.3906,366.4844 328.5625,366.7031 328.6563,367.1094 C328.7188,367.5156 328.75,367.6406 328.8906,367.7656 C329.0313,367.9063 329.2656,368.0156 329.4844,368.0156 C329.75,368.0156 330.0156,367.875 330.1875,367.6563 C330.2969,367.5 330.3281,367.3125 330.3281,366.8906 L330.3281,365.4688 C330.3281,365.0313 330.3125,364.9063 330.2188,364.75 C330.0625,364.4844 329.7813,364.3438 329.4844,364.3438 C329.1875,364.3438 328.9844,364.4375 328.7656,364.75 L328.5938,364.6719 Z " fill="#000000"/><text fill="#000000" font-family="sans-serif" font-size="14" lengthAdjust="spacing" textLength="42" x="346.75" y="373.8467">Room</text><line style="stroke:#181818;stroke-width:0.5;" x1="8" x2="695" y1="385" y2="385"/><ellipse cx="18" cy="398.6484" fill="none" rx="3" ry="3" style="stroke:#038048;stroke-width:1.0;"/><text fill="#000000" font-family="sans-serif" font-size="14" lengthAdjust="spacing" textLength="75" x="27" y="401.9951">int roomId</text><ellipse cx="18" cy="414.9453" fill="none" rx="3" ry="3" style="stroke:#038048;stroke-width:1.0;"/><text fill="#000000" font-family="sans-serif" font-size="14" lengthAdjust="spacing" textLength="116" x="27" y="418.292">RoomType type</text><ellipse cx="18" cy="431.2422" fill="none" rx="3" ry="3" style="stroke:#038048;stroke-width:1.0;"/><text fill="#000000" font-family="sans-serif" font-size="14" lengthAdjust="spacing" textLength="112" x="27" y="434.5889">int pricePerDay</text><ellipse cx="18" cy="447.5391" fill="none" rx="3" ry="3" style="stroke:#038048;stroke-width:1.0;"/><text fill="#000000" font-family="sans-serif" font-size="14" lengthAdjust="spacing" textLength="109" x="27" y="450.8857">String[] images</text><line style="stroke:#181818;stroke-width:0.5;" x1="8" x2="695" y1="458.1875" y2="458.1875"/><ellipse cx="18" cy="471.8359" fill="#84BE84" rx="3" ry="3" style="stroke:#038048;stroke-width:1.0;"/><text fill="#000000" font-family="sans-serif" font-size="14" lengthAdjust="spacing" textLength="663" x="27" y="475.1826">Room createRoom(RoomType type, int pricePerDay, String[] images, Promotion promotion)</text><ellipse cx="18" cy="488.1328" fill="#84BE84" rx="3" ry="3" style="stroke:#038048;stroke-width:1.0;"/><text fill="#000000" font-family="sans-serif" font-size="14" lengthAdjust="spacing" textLength="336" x="27" y="491.4795">Room updateRoom(int roomId, Room updates)</text><ellipse cx="18" cy="504.4297" fill="#84BE84" rx="3" ry="3" style="stroke:#038048;stroke-width:1.0;"/><text fill="#000000" font-family="sans-serif" font-size="14" lengthAdjust="spacing" textLength="210" x="27" y="507.7764">bool deleteRoom(int roomId)</text><ellipse cx="18" cy="520.7266" fill="#84BE84" rx="3" ry="3" style="stroke:#038048;stroke-width:1.0;"/><text fill="#000000" font-family="sans-serif" font-size="14" lengthAdjust="spacing" textLength="225" x="27" y="524.0732">Room[] getAll(RoomType type)</text><ellipse cx="18" cy="537.0234" fill="#84BE84" rx="3" ry="3" style="stroke:#038048;stroke-width:1.0;"/><text fill="#000000" font-family="sans-serif" font-size="14" lengthAdjust="spacing" textLength="198" x="27" y="540.3701">Room getRoom(int roomId)</text></g><!--MD5=[1d97155fbdc73f053377e8b095f5eeba]
class Promotion--><g id="elem_Promotion"><rect codeLine="34" fill="#F1F1F1" height="145.7813" id="Promotion" rx="2.5" ry="2.5" style="stroke:#181818;stroke-width:0.5;" width="503" x="731" y="377.5"/><ellipse cx="940.25" cy="393.5" fill="#ADD1B2" rx="11" ry="11" style="stroke:#181818;stroke-width:1.0;"/><path d="M942.5938,389.1719 C941.6563,388.7344 941.0625,388.5938 940.1875,388.5938 C937.5625,388.5938 935.5625,390.6719 935.5625,393.3906 L935.5625,394.5156 C935.5625,397.0938 937.6719,398.9844 940.5625,398.9844 C941.7813,398.9844 942.9375,398.6875 943.6875,398.1406 C944.2656,397.7344 944.5938,397.2813 944.5938,396.8906 C944.5938,396.4375 944.2031,396.0469 943.7344,396.0469 C943.5156,396.0469 943.3125,396.125 943.125,396.3125 C942.6719,396.7969 942.6719,396.7969 942.4844,396.8906 C942.0625,397.1563 941.375,397.2813 940.6094,397.2813 C938.5625,397.2813 937.2656,396.1875 937.2656,394.4844 L937.2656,393.3906 C937.2656,391.6094 938.5156,390.2969 940.25,390.2969 C940.8281,390.2969 941.4375,390.4531 941.9063,390.7031 C942.3906,390.9844 942.5625,391.2031 942.6563,391.6094 C942.7188,392.0156 942.75,392.1406 942.8906,392.2656 C943.0313,392.4063 943.2656,392.5156 943.4844,392.5156 C943.75,392.5156 944.0156,392.375 944.1875,392.1563 C944.2969,392 944.3281,391.8125 944.3281,391.3906 L944.3281,389.9688 C944.3281,389.5313 944.3125,389.4063 944.2188,389.25 C944.0625,388.9844 943.7813,388.8438 943.4844,388.8438 C943.1875,388.8438 942.9844,388.9375 942.7656,389.25 L942.5938,389.1719 Z " fill="#000000"/><text fill="#000000" font-family="sans-serif" font-size="14" lengthAdjust="spacing" textLength="76" x="960.75" y="398.3467">Promotion</text><line style="stroke:#181818;stroke-width:0.5;" x1="732" x2="1233" y1="409.5" y2="409.5"/><ellipse cx="742" cy="423.1484" fill="none" rx="3" ry="3" style="stroke:#038048;stroke-width:1.0;"/><text fill="#000000" font-family="sans-serif" font-size="14" lengthAdjust="spacing" textLength="88" x="751" y="426.4951">String name</text><ellipse cx="742" cy="439.4453" fill="none" rx="3" ry="3" style="stroke:#038048;stroke-width:1.0;"/><text fill="#000000" font-family="sans-serif" font-size="14" lengthAdjust="spacing" textLength="122" x="751" y="442.792">float percentage</text><line style="stroke:#181818;stroke-width:0.5;" x1="732" x2="1233" y1="450.0938" y2="450.0938"/><ellipse cx="742" cy="463.7422" fill="#84BE84" rx="3" ry="3" style="stroke:#038048;stroke-width:1.0;"/><text fill="#000000" font-family="sans-serif" font-size="14" lengthAdjust="spacing" textLength="423" x="751" y="467.0889">Promotion createPromotion(String name, float perentage)</text><ellipse cx="742" cy="480.0391" fill="#84BE84" rx="3" ry="3" style="stroke:#038048;stroke-width:1.0;"/><text fill="#000000" font-family="sans-serif" font-size="14" lengthAdjust="spacing" textLength="477" x="751" y="483.3857">Promotion updatePromotion(int promotionId, Promotion updates)</text><ellipse cx="742" cy="496.3359" fill="#84BE84" rx="3" ry="3" style="stroke:#038048;stroke-width:1.0;"/><text fill="#000000" font-family="sans-serif" font-size="14" lengthAdjust="spacing" textLength="283" x="751" y="499.6826">bool deletePromotion(int promotionId)</text><ellipse cx="742" cy="512.6328" fill="#84BE84" rx="3" ry="3" style="stroke:#038048;stroke-width:1.0;"/><text fill="#000000" font-family="sans-serif" font-size="14" lengthAdjust="spacing" textLength="143" x="751" y="515.9795">Promotion[] getAll()</text></g><!--MD5=[9c46470aa33a0c75e6d1dfdefc2f9c22]
class Reservation--><g id="elem_Reservation"><rect codeLine="44" fill="#F1F1F1" height="96.8906" id="Reservation" rx="2.5" ry="2.5" style="stroke:#181818;stroke-width:0.5;" width="135" x="987" y="625"/><ellipse cx="1009.65" cy="641" fill="#ADD1B2" rx="11" ry="11" style="stroke:#181818;stroke-width:1.0;"/><path d="M1011.9938,636.6719 C1011.0563,636.2344 1010.4625,636.0938 1009.5875,636.0938 C1006.9625,636.0938 1004.9625,638.1719 1004.9625,640.8906 L1004.9625,642.0156 C1004.9625,644.5938 1007.0719,646.4844 1009.9625,646.4844 C1011.1813,646.4844 1012.3375,646.1875 1013.0875,645.6406 C1013.6656,645.2344 1013.9938,644.7813 1013.9938,644.3906 C1013.9938,643.9375 1013.6031,643.5469 1013.1344,643.5469 C1012.9156,643.5469 1012.7125,643.625 1012.525,643.8125 C1012.0719,644.2969 1012.0719,644.2969 1011.8844,644.3906 C1011.4625,644.6563 1010.775,644.7813 1010.0094,644.7813 C1007.9625,644.7813 1006.6656,643.6875 1006.6656,641.9844 L1006.6656,640.8906 C1006.6656,639.1094 1007.9156,637.7969 1009.65,637.7969 C1010.2281,637.7969 1010.8375,637.9531 1011.3063,638.2031 C1011.7906,638.4844 1011.9625,638.7031 1012.0563,639.1094 C1012.1188,639.5156 1012.15,639.6406 1012.2906,639.7656 C1012.4313,639.9063 1012.6656,640.0156 1012.8844,640.0156 C1013.15,640.0156 1013.4156,639.875 1013.5875,639.6563 C1013.6969,639.5 1013.7281,639.3125 1013.7281,638.8906 L1013.7281,637.4688 C1013.7281,637.0313 1013.7125,636.9063 1013.6188,636.75 C1013.4625,636.4844 1013.1813,636.3438 1012.8844,636.3438 C1012.5875,636.3438 1012.3844,636.4375 1012.1656,636.75 L1011.9938,636.6719 Z " fill="#000000"/><text fill="#000000" font-family="sans-serif" font-size="14" lengthAdjust="spacing" textLength="86" x="1025.35" y="645.8467">Reservation</text><line style="stroke:#181818;stroke-width:0.5;" x1="988" x2="1121" y1="657" y2="657"/><ellipse cx="998" cy="670.6484" fill="none" rx="3" ry="3" style="stroke:#038048;stroke-width:1.0;"/><text fill="#000000" font-family="sans-serif" font-size="14" lengthAdjust="spacing" textLength="109" x="1007" y="673.9951">Date startDate</text><ellipse cx="998" cy="686.9453" fill="none" rx="3" ry="3" style="stroke:#038048;stroke-width:1.0;"/><text fill="#000000" font-family="sans-serif" font-size="14" lengthAdjust="spacing" textLength="101" x="1007" y="690.292">Date endDate</text><ellipse cx="998" cy="703.2422" fill="none" rx="3" ry="3" style="stroke:#038048;stroke-width:1.0;"/><text fill="#000000" font-family="sans-serif" font-size="14" lengthAdjust="spacing" textLength="59" x="1007" y="706.5889">int total</text><line style="stroke:#181818;stroke-width:0.5;" x1="988" x2="1121" y1="713.8906" y2="713.8906"/></g><!--MD5=[dceb4b406ced08de099542c8b8ef0f44]
class Extra--><g id="elem_Extra"><rect codeLine="50" fill="#F1F1F1" height="80.5938" id="Extra" rx="2.5" ry="2.5" style="stroke:#181818;stroke-width:0.5;" width="114" x="997.5" y="799"/><ellipse cx="1032.3" cy="815" fill="#ADD1B2" rx="11" ry="11" style="stroke:#181818;stroke-width:1.0;"/><path d="M1034.6438,810.6719 C1033.7063,810.2344 1033.1125,810.0938 1032.2375,810.0938 C1029.6125,810.0938 1027.6125,812.1719 1027.6125,814.8906 L1027.6125,816.0156 C1027.6125,818.5938 1029.7219,820.4844 1032.6125,820.4844 C1033.8313,820.4844 1034.9875,820.1875 1035.7375,819.6406 C1036.3156,819.2344 1036.6438,818.7813 1036.6438,818.3906 C1036.6438,817.9375 1036.2531,817.5469 1035.7844,817.5469 C1035.5656,817.5469 1035.3625,817.625 1035.175,817.8125 C1034.7219,818.2969 1034.7219,818.2969 1034.5344,818.3906 C1034.1125,818.6563 1033.425,818.7813 1032.6594,818.7813 C1030.6125,818.7813 1029.3156,817.6875 1029.3156,815.9844 L1029.3156,814.8906 C1029.3156,813.1094 1030.5656,811.7969 1032.3,811.7969 C1032.8781,811.7969 1033.4875,811.9531 1033.9563,812.2031 C1034.4406,812.4844 1034.6125,812.7031 1034.7063,813.1094 C1034.7688,813.5156 1034.8,813.6406 1034.9406,813.7656 C1035.0813,813.9063 1035.3156,814.0156 1035.5344,814.0156 C1035.8,814.0156 1036.0656,813.875 1036.2375,813.6563 C1036.3469,813.5 1036.3781,813.3125 1036.3781,812.8906 L1036.3781,811.4688 C1036.3781,811.0313 1036.3625,810.9063 1036.2688,810.75 C1036.1125,810.4844 1035.8313,810.3438 1035.5344,810.3438 C1035.2375,810.3438 1035.0344,810.4375 1034.8156,810.75 L1034.6438,810.6719 Z " fill="#000000"/><text fill="#000000" font-family="sans-serif" font-size="14" lengthAdjust="spacing" textLength="38" x="1050.7" y="819.8467">Extra</text><line style="stroke:#181818;stroke-width:0.5;" x1="998.5" x2="1110.5" y1="831" y2="831"/><ellipse cx="1008.5" cy="844.6484" fill="none" rx="3" ry="3" style="stroke:#038048;stroke-width:1.0;"/><text fill="#000000" font-family="sans-serif" font-size="14" lengthAdjust="spacing" textLength="88" x="1017.5" y="847.9951">String name</text><ellipse cx="1008.5" cy="860.9453" fill="none" rx="3" ry="3" style="stroke:#038048;stroke-width:1.0;"/><text fill="#000000" font-family="sans-serif" font-size="14" lengthAdjust="spacing" textLength="61" x="1017.5" y="864.292">int price</text><line style="stroke:#181818;stroke-width:0.5;" x1="998.5" x2="1110.5" y1="871.5938" y2="871.5938"/></g><!--MD5=[db25c41ae6377e017d9f6f1472547e10]
reverse link User to Manager--><g id="link_User_Manager"><path d="M1044.75,135.081 C1029.87,151.56 1015.04,167.977 1003.588,180.652 " fill="none" id="User-backto-Manager" style="stroke:#181818;stroke-width:1.0;"/><polygon fill="none" points="1039.74,130.185,1058.34,120.035,1050.13,139.569,1039.74,130.185" style="stroke:#181818;stroke-width:1.0;"/></g><!--MD5=[a605f9a646bac91c0f1ec4bed5c60b13]
reverse link User to Client--><g id="link_User_Client"><path d="M1153.21,137.552 C1178.32,178.584 1208.35,227.657 1227.42,258.828 " fill="none" id="User-backto-Client" style="stroke:#181818;stroke-width:1.0;"/><polygon fill="none" points="1147.08,140.955,1142.61,120.242,1159.02,133.647,1147.08,140.955" style="stroke:#181818;stroke-width:1.0;"/></g><!--MD5=[19fa245312e6f256a2235e882af7c3a7]
link Manager to Room--><g id="link_Manager_Room"><path codeLine="55" d="M935.845,224.004 C865.279,251.235 726.389,304.832 601.721,352.941 " fill="none" id="Manager-Room" style="stroke:#181818;stroke-width:1.0;stroke-dasharray:7.0,7.0;"/><polygon fill="#000000" points="830.8353,292.8665,840.3319,292.352,838.2158,286.8682,830.8353,292.8665" style="stroke:#000000;stroke-width:1.0;"/><text fill="#000000" font-family="sans-serif" font-size="13" lengthAdjust="spacing" textLength="60" x="844.5" y="295.5669">manages</text><text fill="#000000" font-family="sans-serif" font-size="13" lengthAdjust="spacing" textLength="8" x="920.0885" y="222.8426">1</text><text fill="#000000" font-family="sans-serif" font-size="13" lengthAdjust="spacing" textLength="23" x="596.9981" y="341.982">0..*</text></g><!--MD5=[605baa654b253f1f367e834081b74d26]
link Manager to Promotion--><g id="link_Manager_Promotion"><path codeLine="56" d="M982.5,229.348 C982.5,263.094 982.5,326.967 982.5,377.257 " fill="none" id="Manager-Promotion" style="stroke:#181818;stroke-width:1.0;stroke-dasharray:7.0,7.0;"/><polygon fill="#000000" points="987.5,296.0664,990.4389,287.0213,984.5611,287.0213,987.5,296.0664" style="stroke:#000000;stroke-width:1.0;"/><text fill="#000000" font-family="sans-serif" font-size="13" lengthAdjust="spacing" textLength="60" x="996.5" y="295.5669">manages</text><text fill="#000000" font-family="sans-serif" font-size="13" lengthAdjust="spacing" textLength="8" x="973.525" y="249.194">1</text><text fill="#000000" font-family="sans-serif" font-size="13" lengthAdjust="spacing" textLength="23" x="958.368" y="366.3931">0..*</text></g><!--MD5=[9ee890e3271cd9be3ed17d9ceb0af7d4]
reverse link Client to Reservation--><g id="link_Client_Reservation"><path codeLine="57" d="M1259.92,335.9 C1273.63,389.557 1288.18,481.419 1251.5,548 C1224.17,597.61 1167.81,630.194 1122.35,649.537 " fill="none" id="Client-backto-Reservation" style="stroke:#181818;stroke-width:1.0;stroke-dasharray:7.0,7.0;"/><polygon fill="#181818" points="1256.48,323.12,1254.1741,329.9525,1259.5941,334.7089,1261.9,327.8764,1256.48,323.12" style="stroke:#181818;stroke-width:1.0;"/><text fill="#000000" font-family="sans-serif" font-size="13" lengthAdjust="spacing" textLength="23" x="1275.5" y="455.0669">has</text><text fill="#000000" font-family="sans-serif" font-size="13" lengthAdjust="spacing" textLength="8" x="1249.7134" y="343.3416">1</text><text fill="#000000" font-family="sans-serif" font-size="13" lengthAdjust="spacing" textLength="23" x="1129.913" y="643.6166">0..*</text></g><!--MD5=[7b4d6fb963924739b814f542f15b4cfb]
reverse link Room to Reservation--><g id="link_Room_Reservation"><path codeLine="58" d="M671.135,551.983 C789.705,589.257 913.152,628.065 986.909,651.252 " fill="none" id="Room-backto-Reservation" style="stroke:#181818;stroke-width:1.0;stroke-dasharray:7.0,7.0;"/><polygon fill="#181818" points="658.568,548.032,663.0923,553.6473,670.0157,551.6307,665.4914,546.0155,658.568,548.032" style="stroke:#181818;stroke-width:1.0;"/><text fill="#000000" font-family="sans-serif" font-size="13" lengthAdjust="spacing" textLength="23" x="808.5" y="591.0669">has</text><text fill="#000000" font-family="sans-serif" font-size="13" lengthAdjust="spacing" textLength="8" x="672.8246" y="567.8291">1</text><text fill="#000000" font-family="sans-serif" font-size="13" lengthAdjust="spacing" textLength="23" x="956.1235" y="645.4025">0..*</text></g><!--MD5=[e32f11a55dae7b5e56c1a7481c160ec1]
reverse link Reservation to Extra--><g id="link_Reservation_Extra"><path codeLine="59" d="M1054.5,735.581 C1054.5,756.737 1054.5,779.885 1054.5,798.8598 " fill="none" id="Reservation-backto-Extra" style="stroke:#181818;stroke-width:1.0;stroke-dasharray:7.0,7.0;"/><polygon fill="#181818" points="1054.5,722.376,1050.5,728.376,1054.5,734.376,1058.5,728.376,1054.5,722.376" style="stroke:#181818;stroke-width:1.0;"/><text fill="#000000" font-family="sans-serif" font-size="13" lengthAdjust="spacing" textLength="56" x="1055.5" y="765.0669">reserves</text><text fill="#000000" font-family="sans-serif" font-size="13" lengthAdjust="spacing" textLength="23" x="1029.9547" y="742.0347">0..*</text><text fill="#000000" font-family="sans-serif" font-size="13" lengthAdjust="spacing" textLength="23" x="1029.5953" y="787.9981">0..*</text></g><!--MD5=[49fecf7b8b41cb2860a72369c81e866f]
@startuml
class User {
  -String username
  -String password
  -String email
  -bool login(String username, String password)
}

enum RoomType {
  SUITE
  SINGLE
  DOUBLE
  TRIPLE
}
class Manager extends User {

}

class Client extends User{
 +Reservation[] getReservations()
}

class Room{
  +int roomId
  +RoomType type
  +int pricePerDay
  +String[] images
  +Room createRoom(RoomType type, int pricePerDay, String[] images, Promotion promotion)
  +Room updateRoom(int roomId, Room updates)
  +bool deleteRoom(int roomId)
  +Room[] getAll(RoomType type)
  +Room getRoom(int roomId)
}

class Promotion {
  +String name
  +float percentage
  +Promotion createPromotion(String name, float perentage)
  +Promotion updatePromotion(int promotionId, Promotion updates)
  +bool deletePromotion(int promotionId)
  +Promotion[] getAll()
}


class Reservation{
 +Date startDate
 +Date endDate
 +int total 
}

class Extra{
 +String name
 +int price
}

Manager "1" .. "0..*" Room: > manages
Manager "1" .. "0..*" Promotion: > manages
Client "1" *.. "0..*" Reservation : has
Room "1" *.. "0..*" Reservation : has
Reservation  "0..*" *.. "0..*" Extra: reserves
@enduml

PlantUML version 1.2022.10beta1(Unknown compile time)
(GPL source distribution)
Java Runtime: Java(TM) SE Runtime Environment
JVM: Java HotSpot(TM) 64-Bit Server VM
Default Encoding: UTF-8
Language: en
Country: US
--></g></svg>