<svg fill="none" height="48" width="146" xmlns="http://www.w3.org/2000/svg"><path d="M13.277 22.318c.823-3.068 3.977-6.222 7.045-7.044l19.129-5.127c3.068-.822 4.889.999 4.067 4.067l-5.127 19.13c-.822 3.067-3.976 6.221-7.044 7.044l-19.13 5.126c-3.067.822-4.888-.998-4.066-4.067z" fill="#3acfc3"/><path d="M5.609 14.65c.822-3.069 3.976-6.223 7.044-7.045l19.13-5.126c3.068-.823 4.888.998 4.066 4.066l-5.126 19.13c-.823 3.068-3.976 6.221-7.045 7.044L4.55 37.845c-3.068.822-4.889-.998-4.067-4.067z" fill="#22968e"/><path d="M61.292 31.424h6.58V34H58.1V14.54h3.192zm8.185-5.208c0-1.55.318-2.921.952-4.116.654-1.195 1.531-2.119 2.632-2.772a7.05 7.05 0 013.696-1.008c1.214 0 2.268.243 3.164.728.915.467 1.643 1.055 2.184 1.764v-2.24h3.22V34h-3.22v-2.296c-.54.728-1.278 1.335-2.212 1.82-.933.485-1.997.728-3.192.728a6.855 6.855 0 01-3.64-1.008c-1.1-.69-1.978-1.643-2.632-2.856-.634-1.232-.952-2.623-.952-4.172zm12.628.056c0-1.064-.224-1.988-.672-2.772-.429-.784-.998-1.381-1.708-1.792a4.505 4.505 0 00-2.296-.616c-.82 0-1.586.205-2.296.616-.709.392-1.288.98-1.736 1.764-.429.765-.644 1.68-.644 2.744s.215 1.997.644 2.8c.448.803 1.027 1.419 1.736 1.848.728.41 1.494.616 2.296.616a4.5 4.5 0 002.296-.616c.71-.41 1.28-1.008 1.708-1.792.448-.803.672-1.736.672-2.8zm21.301-7.7l-9.464 22.68h-3.304l3.136-7.504-6.076-15.176h3.556l4.34 11.76 4.508-11.76zm16.549 7.336a9.94 9.94 0 01-.112 1.568h-11.788c.093 1.232.551 2.221 1.372 2.968.821.747 1.829 1.12 3.024 1.12 1.717 0 2.931-.719 3.64-2.156h3.444c-.467 1.419-1.316 2.585-2.548 3.5-1.213.896-2.725 1.344-4.536 1.344-1.475 0-2.8-.327-3.976-.98a7.327 7.327 0 01-2.744-2.8c-.653-1.213-.98-2.613-.98-4.2 0-1.587.317-2.977.952-4.172.653-1.213 1.559-2.147 2.716-2.8 1.176-.653 2.52-.98 4.032-.98 1.456 0 2.753.317 3.892.952a6.702 6.702 0 012.66 2.688c.635 1.139.952 2.455.952 3.948zm-3.332-1.008c-.019-1.176-.439-2.119-1.26-2.828-.821-.71-1.839-1.064-3.052-1.064-1.101 0-2.044.355-2.828 1.064-.784.69-1.251 1.633-1.4 2.828zm9.665-4.088a4.942 4.942 0 011.848-1.82c.784-.448 1.708-.672 2.772-.672v3.304h-.812c-1.251 0-2.203.317-2.856.952-.635.635-.952 1.736-.952 3.304V34h-3.192V18.572h3.192zm13.154 13.44c-1.213 0-2.305-.215-3.276-.644-.952-.448-1.708-1.045-2.268-1.792a4.539 4.539 0 01-.896-2.548h3.304c.056.653.364 1.204.924 1.652.579.43 1.298.644 2.156.644.896 0 1.587-.168 2.072-.504.504-.355.756-.803.756-1.344 0-.579-.28-1.008-.84-1.288-.541-.28-1.409-.588-2.604-.924-1.157-.317-2.1-.625-2.828-.924a5.082 5.082 0 01-1.904-1.372c-.522-.616-.784-1.428-.784-2.436 0-.821.243-1.568.728-2.24.486-.69 1.176-1.232 2.072-1.624.915-.392 1.96-.588 3.136-.588 1.755 0 3.164.448 4.228 1.344 1.083.877 1.662 2.081 1.736 3.612h-3.192c-.056-.69-.336-1.241-.84-1.652-.504-.41-1.185-.616-2.044-.616-.84 0-1.484.159-1.932.476-.448.317-.672.737-.672 1.26 0 .41.15.756.448 1.036.299.28.663.504 1.092.672.43.15 1.064.345 1.904.588 1.12.299 2.035.607 2.744.924a4.96 4.96 0 011.876 1.344c.523.597.794 1.39.812 2.38 0 .877-.242 1.661-.728 2.352-.485.69-1.176 1.232-2.072 1.624-.877.392-1.913.588-3.108.588z" fill="#101828"/></svg>