<svg fill="none" height="513" width="514" xmlns="http://www.w3.org/2000/svg"><linearGradient id="a" gradientUnits="userSpaceOnUse" x1="75.981" x2="438.019" y1="74.981" y2="437.019"><stop offset="0" stop-color="#02aab0"/><stop offset="1" stop-color="#00cdac"/></linearGradient><path d="M75.98 74.98c24.941-24.94 53.326-43.62 85.156-56.04C192.543 6.1 224.521-.138 257.068.228c32.949-.037 65.02 6.29 96.214 18.98 31.596 12.287 59.842 30.878 84.737 55.774 5.908 5.907 11.202 12.006 15.883 18.296 4.661 5.465 9.332 11.343 14.013 17.633L204.834 373.992c24.982 11.305 50.823 15.424 77.521 12.355 26.679-3.894 49.874-15.696 69.585-35.407 14.482-14.481 24.582-31.333 30.301-50.554 5.719-19.222 7.116-38.341 4.19-57.357l100.164-100.164c11.688 23.756 19.496 48.861 23.423 75.315 4.329 26.052 4.336 52.206.021 78.463-4.335 25.433-12.6 50.154-24.794 74.163-11.371 24.029-27.112 46.1-47.226 66.213-24.94 24.941-53.114 43.832-84.522 56.673-31.829 12.42-64.219 18.648-97.168 18.685-32.547-.366-64.618-6.693-96.214-18.98-31.194-12.69-59.239-31.482-84.134-56.378-24.896-24.895-43.688-52.94-56.378-84.134C7.316 321.289.99 289.218.623 256.671c.037-32.949 6.476-65.128 19.318-96.535 12.42-31.83 31.1-60.215 56.04-85.155zm233.187 63.028c-24.983-11.305-50.814-15.011-77.493-11.118-27.101 3.471-50.305 14.861-69.614 34.17-19.711 19.711-31.302 43.117-34.774 70.218-3.491 26.276.417 51.906 11.722 76.888z" fill="url(#a)"/></svg>