<svg fill="none" height="38" width="38" xmlns="http://www.w3.org/2000/svg"><filter id="a" color-interpolation-filters="sRGB" filterUnits="userSpaceOnUse" height="38" width="38" x="0" y="0"><feFlood flood-opacity="0" result="BackgroundImageFix"/><feColorMatrix in="SourceAlpha" result="hardAlpha" values="0 0 0 0 0 0 0 0 0 0 0 0 0 0 0 0 0 0 127 0"/><feOffset dy="1"/><feGaussianBlur stdDeviation="1"/><feColorMatrix values="0 0 0 0 0.0627451 0 0 0 0 0.0941176 0 0 0 0 0.156863 0 0 0 0.06 0"/><feBlend in2="BackgroundImageFix" result="effect1_dropShadow_1083_50505"/><feColorMatrix in="SourceAlpha" result="hardAlpha" values="0 0 0 0 0 0 0 0 0 0 0 0 0 0 0 0 0 0 127 0"/><feOffset dy="1"/><feGaussianBlur stdDeviation="1.5"/><feColorMatrix values="0 0 0 0 0.0627451 0 0 0 0 0.0941176 0 0 0 0 0.156863 0 0 0 0.1 0"/><feBlend in2="effect1_dropShadow_1083_50505" result="effect2_dropShadow_1083_50505"/><feBlend in="SourceGraphic" in2="effect2_dropShadow_1083_50505" result="shape"/></filter><linearGradient id="b" gradientUnits="userSpaceOnUse" x1="13.657" x2="24.971" y1="12.343" y2="23.657"><stop offset="0" stop-color="#02aab0"/><stop offset="1" stop-color="#00cdac"/></linearGradient><g filter="url(#a)"><rect fill="#fff" height="32" rx="8" width="32" x="3" y="2"/><rect fill="#fff" height="32" rx="8" width="32" x="3" y="2"/><path d="M13.657 12.343a7.682 7.682 0 012.66-1.751 7.626 7.626 0 012.999-.585 7.884 7.884 0 013.007.593c.987.384 1.87.965 2.648 1.743.184.185.35.375.496.572.146.17.292.354.438.55l-8.221 8.222c.78.353 1.588.482 2.422.386a3.78 3.78 0 002.175-1.106 3.71 3.71 0 00.947-1.58c.178-.6.222-1.198.13-1.792l3.13-3.13a7.94 7.94 0 01.732 2.353 7.47 7.47 0 01.001 2.452 8.106 8.106 0 01-.775 2.318 7.393 7.393 0 01-1.475 2.069c-.78.78-1.66 1.37-2.642 1.77a8.316 8.316 0 01-3.036.585 8.505 8.505 0 01-3.007-.593 7.91 7.91 0 01-2.63-1.762 7.908 7.908 0 01-1.76-2.63 8.503 8.503 0 01-.594-3.006 7.928 7.928 0 01.604-3.017 7.682 7.682 0 011.75-2.66zm7.287 1.97a4.266 4.266 0 00-2.422-.348 3.653 3.653 0 00-2.175 1.068 3.69 3.69 0 00-1.087 2.194 4.341 4.341 0 00.366 2.403z" fill="url(#b)"/></g></svg>