<svg width="24" height="25" fill="none" xmlns="http://www.w3.org/2000/svg"><path d="M3 20.896h18v-7.238c0-1.52-.915-2.543-2.295-2.543H5.295C3.915 11.115 3 12.138 3 13.658v7.238zm-.33 3.762h18.66c1.575 0 2.355-.752 2.67-2.257H0c.315 1.505 1.095 2.257 2.67 2.257zM5.295 12.62h13.41c.48 0 .795.421.795 1.038v2.212s-.75.828-1.785.828-1.38-.843-2.49-.843c-1.35 0-1.65 1.28-3.225 1.28-1.575 0-1.875-1.28-3.225-1.28-1.095 0-1.455.843-2.49.843-1.035 0-1.785-.828-1.785-.828v-2.212c0-.617.315-1.038.795-1.038zm5.955-.542h1.5V9.896c0-1.068 0-1.068-.75-1.068s-.75 0-.75 1.068v2.182zm-.3-4.364c0-.617 1.05-2.136 1.05-2.136s1.035 1.52 1.035 2.136c0 .753-.51 1.144-1.035 1.144-.57 0-1.05-.391-1.05-1.144zm-1.845-.797c0 1.76 1.23 3.07 2.88 3.07 1.635 0 2.895-1.31 2.895-3.07 0-1.806-2.895-6.335-2.895-6.335s-2.88 4.53-2.88 6.335z" fill="#28B0A6"/></svg>