<svg width="24" height="24" fill="none" xmlns="http://www.w3.org/2000/svg"><path d="M20.727 0H3.273A3.277 3.277 0 000 3.273v17.454A3.277 3.277 0 003.273 24h17.454A3.278 3.278 0 0024 20.727V3.273A3.277 3.277 0 0020.727 0zm2.182 20.727a2.189 2.189 0 01-2.182 2.182H3.273a2.189 2.189 0 01-2.182-2.182V3.273a2.19 2.19 0 012.182-2.182h17.454a2.19 2.19 0 012.182 2.182v17.454z" fill="#000"/><path d="M6.782 4.948a1.042 1.042 0 100-2.084 1.042 1.042 0 000 2.084zm5.217 0a1.042 1.042 0 100-2.084 1.042 1.042 0 000 2.084zm5.219 0a1.042 1.042 0 100-2.084 1.042 1.042 0 000 2.084zM7.934 9.217h3.76v3.345h-3.76V9.217zm4.372 0h3.76v3.345h-3.76V9.217zm4.37 0h3.76v3.345h-3.76V9.217zM3.564 13.116h3.76v3.343h-3.76v-3.343zm4.37 0h3.76v3.343h-3.76v-3.343zm4.373 0h3.76v3.343h-3.76v-3.343zm4.37 0h3.76v3.343h-3.76v-3.343zM3.564 17.015h3.76v3.343h-3.76v-3.343zm4.37 0h3.76v3.343h-3.76v-3.343zm4.373 0h3.76v3.343h-3.76v-3.343zm4.37 0h3.76v3.343h-3.76v-3.343z" fill="#000"/></svg>