<svg xmlns="http://www.w3.org/2000/svg" width="56" height="56"><path d="M48.555 51.092h-5.936V37.44l4.04-3.234a3.686 3.686 0 001.34-2.866 3.6 3.6 0 00-1.795-3.173 3.13 3.13 0 00-3.45.246L29.319 38.535H7.543a3.652 3.652 0 00-3.512 3.77 3.743 3.743 0 002.577 3.633v5.154H3.716a1.057 1.057 0 000 2.108h44.839a1.057 1.057 0 000-2.108zm-42.56-8.787a1.61 1.61 0 011.548-1.662h1.506v1.594a1.02 1.02 0 00.982 1.054 1.02 1.02 0 00.982-1.054v-1.594h5.6v1.594a.984.984 0 101.964 0v-1.594h5.6v1.594a.984.984 0 101.964 0v-1.594h3.434a1.124 1.124 0 00.68-.23l3.061-2.306.851 1.1a.954.954 0 00.756.381.938.938 0 00.627-.243 1.108 1.108 0 00.129-1.484l-.75-.97 3.848-2.9.879 1.137a.954.954 0 00.756.381.938.938 0 00.627-.243 1.108 1.108 0 00.129-1.484l-.778-1.006 3.5-2.639a1.268 1.268 0 011.416-.1 1.461 1.461 0 01.737 1.3 1.513 1.513 0 01-.55 1.176L31.691 43.558a1.844 1.844 0 01-1.146.408h-23a1.61 1.61 0 01-1.55-1.662zm34.66 8.787H8.572v-5.018h21.973a3.733 3.733 0 002.32-.826l7.79-6.236z"/><path d="M51.838 12.562a15.318 15.318 0 00-28.28 1.171l-.261.712a1.054 1.054 0 00.627 1.352l12.535 4.594-3.653 9.836a1.054 1.054 0 101.976.734l3.656-9.845 12.275 4.5a1.054 1.054 0 001.352-.627l.261-.712a15.217 15.217 0 00-.488-11.715zm-26.2 1.62a13.226 13.226 0 0113.221-8.361 16.671 16.671 0 00-6.262 5.579 22.5 22.5 0 00-2.386 4.455zm19.2 2.209a20.493 20.493 0 01-.948 4.481l-11.701-4.29a20.482 20.482 0 012.17-4.031 13.4 13.4 0 018.063-5.778 13.4 13.4 0 012.422 9.619zm5.6 6.881l-4.565-1.673a22.508 22.508 0 001.059-4.942 16.674 16.674 0 00-1.17-8.3 13.235 13.235 0 014.68 14.915zm-15.863 9.357a1.069 1.069 0 00-.06-.2 1.116 1.116 0 00-.1-.182 1.135 1.135 0 00-.132-.16 1 1 0 00-.16-.131 1.065 1.065 0 00-.181-.1 1.114 1.114 0 00-.2-.06 1.048 1.048 0 00-1.082.448 1.127 1.127 0 00-.1.182 1.07 1.07 0 00-.06.2 1.017 1.017 0 000 .412 1.091 1.091 0 00.06.2 1.069 1.069 0 00.1.181 1.047 1.047 0 00.291.292 1.05 1.05 0 00.182.1 1.079 1.079 0 00.2.06 1.018 1.018 0 00.411 0 1.113 1.113 0 00.2-.06 1.077 1.077 0 00.181-.1 1.011 1.011 0 00.16-.132 1.054 1.054 0 00.289-.539 1.071 1.071 0 000-.412z"/></svg>