<svg xmlns="http://www.w3.org/2000/svg" id="prefix__prefix__prefix__Bungee_Jump-icon" width="56" height="56"><defs><style/></defs><g id="prefix__prefix__prefix__Bungee_jum" transform="translate(-96.999 -15.999)"><path id="prefix__prefix__prefix__Path_122719" d="M104.154 57.934L106 60.7a.921.921 0 001.178.313l1.647-.823h9.475a3.658 3.658 0 00-.5 1.841v1.841a.921.921 0 00-.921.921v1.406a4.6 4.6 0 109.205 0v-1.411a.921.921 0 00-.921-.921v-1.841a3.659 3.659 0 00-.5-1.841h9.483l1.647.823a.921.921 0 001.178-.313l1.841-2.762a.921.921 0 00-.255-1.277l-2.762-1.841a.921.921 0 00-.511-.155h-9.205V40.854h.437a8.362 8.362 0 016.246 2.8 7.708 7.708 0 005.389 2.594q.212.012.423.012a7.7 7.7 0 005.211-2.019 7.79 7.79 0 00.58-10.9l-5.458-6.139a7.433 7.433 0 01-.155-9.7.921.921 0 00-1.414-1.179 9.274 9.274 0 00.193 12.1L143 34.568a5.921 5.921 0 11-8.851 7.868 10.205 10.205 0 00-7.621-3.423h-.437V36.53l1.688-2.53a.921.921 0 00.155-.511v-1.84a.921.921 0 00-.921-.921h-3.682a.921.921 0 00-.651.27l-1.19 1.19L120.3 31a.921.921 0 00-.651-.27h-3.682a.921.921 0 00-.921.921v1.839a.921.921 0 00.154.51l1.686 2.53v18.132h-9.205a.921.921 0 00-.511.155l-2.762 1.841a.921.921 0 00-.254 1.276zm25.62-1.431h5.245l1.764 1.176L135.9 59l-1.114-.557a.92.92 0 00-.412-.1h-4.6zm-5.523 9.691a2.762 2.762 0 11-5.523 0v-.486h5.523zm-4.6-2.327v-1.841a1.841 1.841 0 013.682 0v1.841zm4.6-5.523h-5.523V50.98h5.523zm-3.682-17.49V42.7h-1.841v-1.846zm-1.841-1.841v-1.841h1.841v1.841zm1.841 5.523V46l-1.841 1.841v-3.3zm7.364 11.964v1.841h-1.841V56.5zm-5.523-22.629l1.3-1.3h2.38v.642l-1.413 2.12h-2.267zm0 3.3h1.841v1.841h-1.841zm0 3.682h1.841V42.7h-1.841zm0 3.682h1.841v3.3L122.41 46zm.539 4.6h-2.919l1.46-1.46zm-6.062-16.57h2.38l1.3 1.3v1.46H118.3l-1.413-2.12zM115.046 56.5h1.841v1.841h-1.841zm-7.086 0h5.24v1.841h-4.6a.92.92 0 00-.412.1l-1.112.559-.88-1.319z" class="prefix__prefix__prefix__cls-2"/><path id="prefix__prefix__prefix__Path_122720" d="M321.284 185.841a5.27 5.27 0 014.394 2.352.921.921 0 101.532-1.021 7.108 7.108 0 00-5.926-3.172h-.363a.921.921 0 100 1.841z" class="prefix__prefix__prefix__cls-2" transform="translate(-191.146 -148.669)"/><path id="prefix__prefix__prefix__Path_122721" d="M412.231 40.154a.921.921 0 00-1.277.255 4.982 4.982 0 00.621 6.27l.414.414a.921.921 0 101.3-1.3l-.414-.414a3.136 3.136 0 01-.391-3.947.921.921 0 00-.253-1.278z" class="prefix__prefix__prefix__cls-2" transform="translate(-270.899 -21.238)"/><path id="prefix__prefix__prefix__Path_122722" d="M441.19 114.492a.921.921 0 101.3-1.3l-.921-.921a.921.921 0 00-1.3 1.3z" class="prefix__prefix__prefix__cls-2" transform="translate(-297.338 -84.954)"/><path id="prefix__prefix__prefix__Path_122723" d="M153.841 282.762v-1.841a.921.921 0 00-1.841 0v1.841a.921.921 0 001.841 0z" class="prefix__prefix__prefix__cls-2" transform="translate(-42.477 -233.623)"/><path id="prefix__prefix__prefix__Path_122724" d="M120 299.682a.921.921 0 101.841 0v-2.762a.921.921 0 10-1.841 0z" class="prefix__prefix__prefix__cls-2" transform="translate(-14.16 -247.782)"/><path id="prefix__prefix__prefix__Path_122725" d="M352 304.921v1.841a.921.921 0 001.841 0v-1.841a.921.921 0 10-1.841 0z" class="prefix__prefix__prefix__cls-2" transform="translate(-219.464 -254.861)"/><path id="prefix__prefix__prefix__Path_122726" d="M320 280.921v3.679a.921.921 0 101.841 0v-3.682a.921.921 0 00-1.841 0z" class="prefix__prefix__prefix__cls-2" transform="translate(-191.146 -233.623)"/><path id="prefix__prefix__prefix__Path_122727" d="M120.921 251.682a.921.921 0 00.921-.921v-1.841a.921.921 0 00-1.841 0v1.841a.921.921 0 00.92.921z" class="prefix__prefix__prefix__cls-2" transform="translate(-14.16 -205.305)"/></g></svg>