<svg xmlns="http://www.w3.org/2000/svg" width="88" height="88"><g fill="var(--brand" stroke="#fff" stroke-width="2"><circle cx="44" cy="44" r="44" stroke="none"/><circle cx="44" cy="44" r="43" fill="none"/></g><g fill="#fff"><path d="M29.107 54.026l1.274 1.911a.637.637 0 00.815.216l1.14-.57h6.565a2.532 2.532 0 00-.343 1.274v1.274a.637.637 0 00-.637.637v.973a3.186 3.186 0 106.371 0v-.973a.637.637 0 00-.637-.637v-1.273a2.532 2.532 0 00-.343-1.274h6.564l1.14.57a.637.637 0 00.815-.216l1.274-1.911a.637.637 0 00-.177-.884l-1.911-1.274a.637.637 0 00-.353-.107h-6.371v-9.561h.3a5.788 5.788 0 014.323 1.941 5.335 5.335 0 003.73 1.8q.147.008.293.008a5.331 5.331 0 003.607-1.4 5.392 5.392 0 00.4-7.545l-3.777-4.249a5.145 5.145 0 01-.107-6.711.637.637 0 10-.979-.816 6.419 6.419 0 00.134 8.373l3.784 4.25a4.1 4.1 0 11-6.126 5.446 7.064 7.064 0 00-5.275-2.369h-.3v-1.718l1.167-1.751a.637.637 0 00.107-.353v-1.275a.637.637 0 00-.637-.637h-2.556a.637.637 0 00-.451.187l-.824.824-.824-.824a.637.637 0 00-.451-.187h-2.549a.637.637 0 00-.637.637v1.274a.637.637 0 00.107.353l1.167 1.751v12.551h-6.372a.637.637 0 00-.353.107l-1.911 1.274a.637.637 0 00-.176.884zm17.733-.991h3.63l1.221.814-.609.913-.771-.386a.637.637 0 00-.285-.067h-3.185zm-3.823 6.708a1.911 1.911 0 11-3.823 0v-.336h3.823zm-3.186-1.611v-1.274a1.274 1.274 0 112.549 0v1.274zm3.186-3.823h-3.823v-5.1h3.823zm-2.548-12.108v1.274h-1.274v-1.274zm-1.274-1.274v-1.272h1.274v1.274zm1.274 3.823v1.01l-1.274 1.274v-2.282zm5.1 8.283v1.274h-1.274v-1.272zm-3.823-15.665l.9-.9h1.648v.444l-.978 1.467h-1.57zm0 2.285h1.274v1.274h-1.274zm0 2.549h1.274v1.274h-1.274zm0 2.549h1.274v2.285l-1.274-1.274zm.373 3.186h-2.021l1.01-1.01zm-4.2-11.469h1.648l.9.9v1.01h-1.566l-.978-1.467zm-1.274 16.566h1.274v1.274h-1.274zm-4.9 0h3.63v1.274h-3.186a.637.637 0 00-.285.067l-.771.386-.609-.913z"/><path d="M47.091 39.654a3.648 3.648 0 013.042 1.628.637.637 0 101.06-.707 4.92 4.92 0 00-4.1-2.2h-.251a.637.637 0 100 1.274zm7.748-12.636a.637.637 0 00-.884.177 3.449 3.449 0 00.43 4.34l.287.287a.637.637 0 10.9-.9l-.287-.287a2.171 2.171 0 01-.271-2.732.637.637 0 00-.175-.885zm1.746 7.353a.637.637 0 10.9-.9l-.637-.637a.637.637 0 00-.9.9zM34.097 47.937v-1.274a.637.637 0 10-1.274 0v1.274a.637.637 0 001.274 0zm-3.823 1.912a.637.637 0 101.274 0v-1.911a.637.637 0 00-1.274 0zm18.478-1.275v1.274a.637.637 0 101.274 0v-1.274a.637.637 0 10-1.274 0zm-2.549-1.911v2.549a.637.637 0 101.274 0v-2.549a.637.637 0 10-1.274 0zm-15.292-.637a.637.637 0 00.637-.637v-1.274a.637.637 0 10-1.274 0v1.274a.637.637 0 00.637.637z"/></g></svg>