<svg xmlns="http://www.w3.org/2000/svg" width="56" height="56"><path d="M50.757 13.284l-2.988-1.149v-5.1a.791.791 0 00-.791-.791h-1.83V1.791a.791.791 0 00-1.582 0v4.451h-1.83a.791.791 0 00-.791.791V9.51l-12.9-4.963a.791.791 0 00-1.075.738v6.2h-5.41V8.78a.791.791 0 00-1.582 0v2.7h-2.595a.791.791 0 000 1.582h13.079v1.912H11.076v-1.908h3.139a.791.791 0 000-1.582h-3.932a.791.791 0 00-.791.791v3.494a.791.791 0 00.791.791h.956v3.66H6.791a.791.791 0 00-.791.791v3.494a.791.791 0 00.791.791h.956v28.913a.791.791 0 00.791.791h41.935a.791.791 0 00.791-.791V14.022a.791.791 0 00-.507-.738zm-8.229-5.46h3.655v3.7l-3.66-1.408zm7.155 6.741v1.8L28.549 8.237v-1.8zm-36.858 2h15.89v3.66H12.824zM7.583 21.8h26.373v1.912H7.583zm10.649 6.989v24.629h-1.914V28.791zm1.582 0h1.912v24.629h-1.913zm3.495 0h1.913v24.629h-1.915zm3.495 0h1.912v24.629h-1.914V28.791zm3.495 0h1.913v24.629h-1.916zm1.913-1.582H9.329V25.3h22.88zm-19.388 1.584h1.912v24.627h-1.912zm-3.495 0h1.913v24.627H9.329zm24.462 24.627V25.3h.956a.791.791 0 00.791-.791v-3.498a.791.791 0 00-.791-.791h-4.451v-3.66h.956a.791.791 0 00.791-.791v-3.494a.791.791 0 00-.791-.791h-2.7V9.932l21.131 8.128v35.358z" class="prefix__cls-2"/><path d="M43.488 18.389h-3.656a.827.827 0 00-.827.827v3.655a.827.827 0 00.827.827h3.655a.827.827 0 00.827-.827v-3.655a.827.827 0 00-.826-.827zm-.827 3.655h-2v-2h2zm.827 5.041h-3.656a.827.827 0 00-.827.827v3.655a.827.827 0 00.827.827h3.655a.827.827 0 00.827-.827v-3.655a.827.827 0 00-.826-.827zm-.827 3.655h-2v-2h2zm.827 5.038h-3.656a.827.827 0 00-.827.827v3.655a.827.827 0 00.827.827h3.655a.827.827 0 00.827-.827v-3.655a.827.827 0 00-.826-.827zm-.827 3.655h-2v-2h2zm.827 4.773h-3.656a.827.827 0 00-.827.827v3.655a.827.827 0 00.827.827h3.655a.827.827 0 00.827-.827v-3.655a.827.827 0 00-.826-.827zm-.827 3.655h-2v-2h2z" class="prefix__cls-2"/></svg>