<svg xmlns="http://www.w3.org/2000/svg" width="88" height="88"><g fill="none" stroke="#fff" stroke-width="2"><circle cx="44" cy="44" r="44" stroke="none"/><circle cx="44" cy="44" r="43"/></g><g fill="#fff"><path d="M59.63 34.407l-2.048-.787v-3.491a.541.541 0 00-.541-.541h-1.249v-3.047a.541.541 0 00-1.083 0v3.046h-1.252a.541.541 0 00-.541.541v1.7l-8.834-3.4a.541.541 0 00-.736.505v4.242h-3.7v-1.85a.541.541 0 00-1.083 0v1.85h-1.776a.541.541 0 100 1.083h8.953v1.308H32.473v-1.308h2.149a.541.541 0 000-1.083h-2.69a.541.541 0 00-.541.541v2.392a.541.541 0 00.541.541h.65v2.5H29.54a.541.541 0 00-.541.541v2.392a.541.541 0 00.541.541h.654v19.792a.541.541 0 00.541.541h28.7a.541.541 0 00.541-.541V34.912a.541.541 0 00-.346-.505zm-5.632-3.737h2.5v2.53l-2.5-.963zm4.9 4.614v1.231l-14.467-5.562v-1.232zm-25.229 1.365h10.875v2.5H33.669zm-3.587 3.588h18.05v1.309h-18.05zm7.288 4.783v16.854h-1.309V45.02zm1.083 0h1.309v16.854h-1.31zm2.392 0h1.309v16.854h-1.31zm2.392 0h1.309v16.854h-1.311zm2.392 0h1.309v16.854h-1.311zm1.309-1.083H31.282v-1.309h15.654zM33.669 45.02h1.313v16.854h-1.313zm-2.392 0h1.305v16.854h-1.3zm16.742 16.854V42.628h.654a.541.541 0 00.541-.541V39.7a.541.541 0 00-.541-.541h-3.046v-2.5h.655a.541.541 0 00.541-.541v-2.402a.541.541 0 00-.541-.541h-1.85v-1.062l14.463 5.563v24.2z"/><path d="M54.652 37.958h-2.391a.541.541 0 00-.541.541v2.392a.541.541 0 00.541.541h2.391a.541.541 0 00.541-.541V38.5a.541.541 0 00-.541-.542zm-.541 2.391h-1.309v-1.308h1.309zm.541 3.589h-2.391a.541.541 0 00-.541.541v2.392a.541.541 0 00.541.541h2.391a.541.541 0 00.541-.541v-2.393a.541.541 0 00-.541-.54zm-.541 2.392h-1.309v-1.309h1.309zm.541 3.586h-2.391a.541.541 0 00-.541.541v2.391a.541.541 0 00.541.541h2.391a.541.541 0 00.541-.541v-2.391a.541.541 0 00-.541-.541zm-.541 2.392h-1.309v-1.309h1.309zm.541 3.587h-2.391a.541.541 0 00-.541.541v2.392a.541.541 0 00.541.541h2.391a.541.541 0 00.541-.541v-2.391a.541.541 0 00-.541-.542zm-.541 2.391h-1.309v-1.308h1.309z"/></g></svg>