<svg width="56" height="56" fill="none" xmlns="http://www.w3.org/2000/svg"><rect width="56" height="56" rx="28" fill="#28B0A6"/><path d="M38.653 13h-1.607v1.492a.56.56 0 01-.558.56.557.557 0 01-.558-.56V13H19.343v1.492a.56.56 0 01-.558.56.557.557 0 01-.558-.56V13H16.62a2.63 2.63 0 00-1.857.782 2.647 2.647 0 00-.763 1.87v24.724a2.626 2.626 0 00.766 1.859A2.612 2.612 0 0016.62 43h22.033a2.605 2.605 0 002.422-1.618c.131-.319.198-.66.198-1.005V15.651a2.647 2.647 0 00-.764-1.87A2.63 2.63 0 0038.654 13zM23.705 35.085l-3.503 3.36a.557.557 0 01-.78-.009l-1.905-1.911a.56.56 0 01.608-.913c.068.028.13.069.181.12l1.52 1.525 3.108-2.982a.557.557 0 01.944.418.561.561 0 01-.173.392zm0-8l-3.503 3.36a.557.557 0 01-.78-.009l-1.905-1.911a.561.561 0 01.395-.956c.148 0 .29.059.394.164l1.52 1.524 3.108-2.982a.557.557 0 01.944.418.561.561 0 01-.173.392zm0-8l-3.503 3.36a.557.557 0 01-.78-.009l-1.905-1.911a.56.56 0 01.608-.913c.068.028.13.069.181.12l1.52 1.525 3.108-2.982a.557.557 0 01.944.418.561.561 0 01-.173.392zM37.362 36.92H28.19a.557.557 0 01-.558-.56.56.56 0 01.558-.56h9.17a.558.558 0 01.559.56.561.561 0 01-.559.56zm0-8H28.19a.557.557 0 01-.558-.56.56.56 0 01.558-.56h9.17a.558.558 0 01.559.56.561.561 0 01-.559.56zm0-8H28.19a.557.557 0 01-.558-.56.56.56 0 01.558-.56h9.17a.558.558 0 01.559.56.561.561 0 01-.559.56z" fill="#fff"/></svg>