<svg width="20" height="18" fill="none" xmlns="http://www.w3.org/2000/svg"><path d="M18.123.403H1.437A1.44 1.44 0 000 1.84v11.715c0 .792.645 1.436 1.437 1.436h9.029l3.371 2.518c.276.207.562.312.846.312.526 0 1.092-.401 1.091-1.282v-1.548h2.349c.792 0 1.436-.644 1.436-1.436V1.84c0-.792-.645-1.437-1.436-1.437zm.104 13.152a.103.103 0 01-.103.103h-3.682v2.637l-3.531-2.638H1.437a.103.103 0 01-.102-.103V1.839c0-.056.045-.103.102-.103h16.686c.058 0 .103.047.103.104v11.715zM3.67 6.528h2.89v2.889H3.67V6.528zm4.667 0h2.889v2.889h-2.89V6.528zm4.666 0h2.89v2.889h-2.89V6.528z" fill="#28B0A6"/></svg>