<svg width="24" height="24" fill="none" xmlns="http://www.w3.org/2000/svg"><path d="M13.875 7.5H2.812A2.816 2.816 0 000 10.313v10.874A2.816 2.816 0 002.813 24h11.062a2.816 2.816 0 002.813-2.813V10.313A2.816 2.816 0 0013.874 7.5zm.938 13.688a.94.94 0 01-.938.937H2.812a.939.939 0 01-.937-.938V10.313c0-.516.42-.937.938-.937h11.062c.517 0 .938.42.938.938v10.874zM21.186 0h-11.06a2.816 2.816 0 00-2.813 2.813v2.812h1.875V2.812a.94.94 0 01.938-.937h11.063c.516 0 .937.42.937.938v10.874c0 .517-.42.938-.938.938h-2.625V16.5h2.625A2.816 2.816 0 0024 13.687V2.813A2.816 2.816 0 0021.187 0z" fill="#4A7AFF"/></svg>