<svg width="52" height="47" fill="none" xmlns="http://www.w3.org/2000/svg"><g filter="url(#filter0_d_791_4983)"><path d="M30.157 22.8c-1.364 2.363-2.046 3.544-2.937 3.94a3 3 0 01-2.44 0c-.89-.396-1.573-1.577-2.937-3.94L12.836 7.2c-1.364-2.363-2.046-3.544-1.944-4.514a3 3 0 011.22-2.113C12.901 0 14.265 0 16.993 0h18.014c2.728 0 4.092 0 4.88.573a3 3 0 011.22 2.113c.103.97-.58 2.151-1.943 4.514l-9.007 15.6z" fill="#fff"/></g><defs><filter id="filter0_d_791_4983" x=".882" y="0" width="50.236" height="47" filterUnits="userSpaceOnUse" color-interpolation-filters="sRGB"><feFlood flood-opacity="0" result="BackgroundImageFix"/><feColorMatrix in="SourceAlpha" values="0 0 0 0 0 0 0 0 0 0 0 0 0 0 0 0 0 0 127 0" result="hardAlpha"/><feOffset dy="10"/><feGaussianBlur stdDeviation="5"/><feComposite in2="hardAlpha" operator="out"/><feColorMatrix values="0 0 0 0 0 0 0 0 0 0 0 0 0 0 0 0 0 0 0.12 0"/><feBlend in2="BackgroundImageFix" result="effect1_dropShadow_791_4983"/><feBlend in="SourceGraphic" in2="effect1_dropShadow_791_4983" result="shape"/></filter></defs></svg>