<svg width="24" height="25" fill="none" xmlns="http://www.w3.org/2000/svg"><path d="M12 .013c-2.373 0-4.693.706-6.667 2.029a12.03 12.03 0 00-4.42 5.402A12.074 12.074 0 00.231 14.4a12.05 12.05 0 003.284 6.164 11.988 11.988 0 006.144 3.295c2.328.464 4.74.226 6.933-.685a12.009 12.009 0 005.386-4.434 12.066 12.066 0 00-1.493-15.2A11.98 11.98 0 0012 .013zm0 22.471c-2.057 0-4.068-.612-5.778-1.758a10.426 10.426 0 01-3.83-4.682 10.464 10.464 0 012.254-11.37A10.37 10.37 0 0115.98 2.412a10.41 10.41 0 014.667 3.843 10.457 10.457 0 01-1.293 13.173A10.383 10.383 0 0112 22.484z" fill="#28B0A6"/><path d="M12.8 4.025a.804.804 0 00-.8-.802.799.799 0 00-.8.802v8.026a.804.804 0 00.8.802h8a.799.799 0 00.8-.802.804.804 0 00-.8-.803h-7.2V4.025z" fill="#28B0A6"/></svg>