<svg xmlns="http://www.w3.org/2000/svg" width="56" height="56"><circle cx="28" cy="28" r="28" fill="hsl(177, 100%, 35%)"/><path d="M31.1 26.569a5.049 5.049 0 01-.872.853 2.844 2.844 0 01-.978.517.877.877 0 01-.766-.078q-.291-.207-.291-.982a13.866 13.866 0 00.772-4.079 15.939 15.939 0 00-.291-3.876 8.273 8.273 0 00-1.083-2.847q-.713-1.085-1.559-.982-.74.1-1.374 1.912a28.245 28.245 0 00-1.083 4.316q-.449 2.507-.713 5.143t-.262 4.341a17.2 17.2 0 00.423 4.626 8.86 8.86 0 001.159 2.767 3.893 3.893 0 001.374 1.318 2.019 2.019 0 001.057.284 5.352 5.352 0 002.536-.853 8.663 8.663 0 002.087-1.912 15.243 15.243 0 001.638-2.558q.713-1.4 1.242-2.739a20.449 20.449 0 00.819-2.507q.291-1.163.449-1.835.106-.258.793-.233t.793.543a11.285 11.285 0 01-.264 1.266 24.171 24.171 0 01-.845 2.688 32.541 32.541 0 01-1.48 3.359 18.154 18.154 0 01-2.14 3.308 12.568 12.568 0 01-2.853 2.584 7.056 7.056 0 01-3.567 1.163 5.464 5.464 0 01-3.012-.594 6.643 6.643 0 01-2.114-1.809 10.72 10.72 0 01-1.4-2.481 15.445 15.445 0 01-.819-2.636q-.264-1.266-.37-2.222T18 31.014q0-.672.053-2.222t.29-3.492a36.231 36.231 0 01.74-4.031 17.278 17.278 0 011.4-3.85 10.711 10.711 0 012.193-2.97 5.385 5.385 0 013.197-1.421 4.017 4.017 0 013.355 1.137 8.438 8.438 0 012.115 3.435A13.127 13.127 0 0132 22.15a11.72 11.72 0 01-.9 4.419z" fill="hsl(0, 0%, 100%)"/></svg>