<svg width="23" height="23" fill="none" xmlns="http://www.w3.org/2000/svg"><path fill-rule="evenodd" clip-rule="evenodd" d="M2.062 6.108l9.066 7.934 9.065-7.934-9.065-4.532-9.066 4.532zm12.529 6.874l6.18 6.649V7.57l-6.18 5.411zM1.484 7.572v12.056l6.18-6.649-6.18-5.408zm18.328 13.204l-6.339-6.816-1.857 1.623a.742.742 0 01-.976 0l-1.858-1.632-6.338 6.825h17.368zM.418 5.272A.742.742 0 000 5.939v15.58a.742.742 0 00.742.741h20.772a.742.742 0 00.742-.742V5.94a.742.742 0 00-.419-.667L11.46.079a.741.741 0 00-.665 0L.418 5.272z" fill="#fff"/></svg>