<svg width="135" height="32" fill="none" xmlns="http://www.w3.org/2000/svg"><path d="M21.272 16.778c0-1.33.214-2.582.64-3.755a9.38 9.38 0 011.818-3.078 8.264 8.264 0 012.862-2.063c1.123-.52 2.38-.778 3.771-.778 1.325 0 2.548.281 3.67.845a8.341 8.341 0 012.896 2.233 8.43 8.43 0 012.862-2.233 8.27 8.27 0 013.703-.845c1.392 0 2.65.259 3.771.778a8.266 8.266 0 012.862 2.063 9.38 9.38 0 011.819 3.078 10.9 10.9 0 01.64 3.755v9.133h-5.051v-9.133c0-.7-.079-1.353-.236-1.962-.157-.631-.404-1.173-.74-1.624a3.737 3.737 0 00-1.28-1.082c-.494-.27-1.089-.406-1.785-.406-.695 0-1.301.135-1.818.406a3.84 3.84 0 00-1.246 1.082c-.336.451-.583.993-.74 1.624a7.831 7.831 0 00-.236 1.962v9.133h-5.05v-9.133c0-.7-.079-1.353-.236-1.962-.157-.631-.404-1.173-.74-1.624a3.738 3.738 0 00-1.28-1.082c-.494-.27-1.089-.406-1.785-.406s-1.302.135-1.818.406a3.84 3.84 0 00-1.246 1.082c-.337.451-.583.993-.74 1.624a7.831 7.831 0 00-.236 1.962v9.133h-5.05v-9.133zM65.6 7.104c1.391 0 2.693.259 3.905.778a9.747 9.747 0 013.165 2.063 9.781 9.781 0 012.121 3.078 8.887 8.887 0 01.809 3.755c0 1.33-.27 2.582-.808 3.755a9.782 9.782 0 01-2.122 3.078 10.215 10.215 0 01-3.165 2.097c-1.212.496-2.514.744-3.905.744-.965 0-1.875-.18-2.728-.54a7.402 7.402 0 01-2.222-1.49V32H55.6V16.778c0-1.33.258-2.582.774-3.755a10.265 10.265 0 012.155-3.078 9.748 9.748 0 013.165-2.063 9.981 9.981 0 013.906-.778zm-.101 14.748c.696 0 1.347-.135 1.953-.406a5.093 5.093 0 001.616-1.082 5.217 5.217 0 001.077-1.59c.27-.632.404-1.297.404-1.996 0-.7-.135-1.353-.404-1.962a5.12 5.12 0 00-1.077-1.624 5.095 5.095 0 00-1.617-1.082 4.735 4.735 0 00-1.952-.406c-.696 0-1.358.135-1.987.406a5.2 5.2 0 00-1.582 1.082 5.12 5.12 0 00-1.078 1.624 4.795 4.795 0 00-.404 1.962c0 .7.135 1.364.404 1.996.27.609.629 1.139 1.078 1.59a5.2 5.2 0 001.582 1.082c.629.27 1.29.406 1.987.406zm12.295-5.074c0-1.33.225-2.582.674-3.755a9.708 9.708 0 011.952-3.078 8.886 8.886 0 012.963-2.063c1.168-.52 2.447-.778 3.839-.778h.673v4.6a4.97 4.97 0 00-1.986.406 5.203 5.203 0 00-1.583 1.082 5.12 5.12 0 00-1.077 1.624 4.793 4.793 0 00-.404 1.962v9.133h-5.05v-9.133zM92.924 0c.404 0 .774.079 1.11.237.36.158.663.372.91.642.27.249.483.553.64.914.157.338.235.71.235 1.116 0 .406-.078.79-.235 1.15-.157.338-.37.643-.64.914-.247.27-.55.484-.91.642a2.954 2.954 0 01-1.11.203c-.808 0-1.493-.282-2.054-.845-.561-.564-.842-1.252-.842-2.064 0-.406.067-.778.202-1.116.157-.361.37-.665.64-.914.27-.27.572-.484.909-.642.36-.158.74-.237 1.145-.237zm-2.526 7.645h5.051V25.91h-5.05V7.645zm17.394 7.509a7.268 7.268 0 011.952.474 5.686 5.686 0 011.718 1.015c.516.428.931.947 1.245 1.556.315.586.472 1.263.472 2.03 0 .969-.202 1.849-.606 2.638a6.013 6.013 0 01-1.65 1.962 7.264 7.264 0 01-2.357 1.184 8.744 8.744 0 01-2.795.44 8.946 8.946 0 01-2.794-.44 7.664 7.664 0 01-2.391-1.184 6.202 6.202 0 01-1.616-1.962c-.404-.79-.606-1.669-.606-2.639h5.051c0 .767.246 1.286.74 1.556a3.434 3.434 0 001.616.406c.562 0 1.089-.146 1.583-.44.516-.293.774-.732.774-1.319 0-.428-.247-.812-.74-1.15-.494-.338-1.123-.564-1.886-.676a11.795 11.795 0 01-2.593-.643 9.489 9.489 0 01-2.222-1.184 6.614 6.614 0 01-1.549-1.624 3.857 3.857 0 01-.572-2.03c0-.924.19-1.758.572-2.502a5.746 5.746 0 011.549-1.895 7.307 7.307 0 012.324-1.184 8.63 8.63 0 012.76-.44c.988 0 1.908.147 2.761.44a6.57 6.57 0 012.29 1.218 5.484 5.484 0 011.582 1.928c.382.767.573 1.646.573 2.639h-5.051c0-.384-.067-.7-.202-.947a1.308 1.308 0 00-.471-.61 1.542 1.542 0 00-.707-.304 2.921 2.921 0 00-.775-.101 3.08 3.08 0 00-1.515.372c-.426.225-.639.643-.639 1.251 0 .271.123.53.37.778.247.226.572.44.976.643.404.18.853.338 1.347.474.494.112.988.203 1.482.27zm17.107-8.05c1.392 0 2.705.259 3.939.778a9.661 9.661 0 013.199 2.063 9.523 9.523 0 012.155 3.078 8.882 8.882 0 01.808 3.755c0 .316-.022.62-.067.913-.023.27-.056.553-.101.846h-14.68a5.48 5.48 0 001.818 2.402c.853.609 1.829.913 2.929.913.808 0 1.56-.18 2.256-.541a5.06 5.06 0 001.717-1.42h5.589a9.438 9.438 0 01-1.448 2.638 9.236 9.236 0 01-2.188 2.097 10.423 10.423 0 01-2.761 1.319 9.704 9.704 0 01-3.165.507c-1.392 0-2.705-.248-3.939-.744a10.538 10.538 0 01-3.233-2.097 10.266 10.266 0 01-2.154-3.078 9.204 9.204 0 01-.775-3.755c0-1.33.258-2.582.775-3.755a10.265 10.265 0 012.154-3.078 10.055 10.055 0 013.233-2.063 10.061 10.061 0 013.939-.778zm4.747 7.915a5.18 5.18 0 00-1.851-2.368 4.745 4.745 0 00-2.896-.947c-1.1 0-2.076.316-2.929.947a5.259 5.259 0 00-1.818 2.368h9.494z" fill="#1D293F"/><path d="M4.827 9.004a10.112 10.112 0 013.741-1.446 9.68 9.68 0 013.799.028 9.482 9.482 0 013.456 1.436 8.797 8.797 0 012.677 2.72c.168.266.31.533.429.803.125.24.246.494.364.764L6.89 21.129c.838.61 1.775.96 2.812 1.047 1.044.057 2.031-.207 2.96-.793a4.838 4.838 0 001.619-1.656 5.035 5.035 0 00.695-2.108l4.723-2.977c.218.974.278 1.97.178 2.986a9.182 9.182 0 01-.735 2.926 10.403 10.403 0 01-1.631 2.578 9.73 9.73 0 01-2.405 2.112 10.512 10.512 0 01-3.723 1.474c-1.319.222-2.6.21-3.845-.038a10.222 10.222 0 01-3.456-1.436 9.12 9.12 0 01-2.65-2.74 9.101 9.101 0 01-1.34-3.563 10.172 10.172 0 01.185-3.732 10.02 10.02 0 011.635-3.454 10.093 10.093 0 012.915-2.751zm8.216 4.114a5.169 5.169 0 00-2.823-1 4.764 4.764 0 00-2.95.747c-.928.586-1.586 1.371-1.97 2.355a5.223 5.223 0 00-.279 2.957l8.022-5.059z" fill="#28B0A6"/></svg>