<svg width="224" height="53" fill="none" xmlns="http://www.w3.org/2000/svg"><path d="M36 27.789c0-2.204.353-4.277 1.058-6.22.705-1.941 1.707-3.64 3.006-5.098 1.298-1.456 2.875-2.595 4.73-3.417 1.856-.86 3.934-1.289 6.234-1.289 2.19 0 4.212.467 6.067 1.401a13.784 13.784 0 014.787 3.698 13.939 13.939 0 014.73-3.698c1.893-.934 3.934-1.4 6.123-1.4 2.3 0 4.379.429 6.234 1.288 1.855.822 3.432 1.96 4.731 3.417 1.3 1.457 2.3 3.157 3.006 5.099.705 1.942 1.057 4.015 1.057 6.219v15.126h-8.349V27.79c0-1.158-.13-2.241-.39-3.25-.259-1.046-.667-1.942-1.224-2.69a6.182 6.182 0 00-2.115-1.792c-.816-.448-1.8-.672-2.95-.672-1.15 0-2.152.224-3.005.672a6.35 6.35 0 00-2.06 1.793c-.556.747-.964 1.643-1.224 2.69a12.99 12.99 0 00-.39 3.249v15.126h-8.348V27.79c0-1.158-.13-2.241-.39-3.25-.26-1.046-.668-1.942-1.225-2.69a6.181 6.181 0 00-2.115-1.792c-.816-.448-1.8-.672-2.95-.672-1.15 0-2.152.224-3.005.672a6.35 6.35 0 00-2.06 1.793c-.556.747-.964 1.643-1.224 2.69a12.995 12.995 0 00-.39 3.249v15.126h-8.348V27.79zm73.277-16.024c2.3 0 4.453.43 6.456 1.289 2.004.822 3.748 1.96 5.232 3.417a16.219 16.219 0 013.507 5.099c.89 1.942 1.336 4.015 1.336 6.219 0 2.203-.446 4.276-1.336 6.218a16.22 16.22 0 01-3.507 5.099c-1.484 1.456-3.228 2.614-5.232 3.473-2.003.822-4.156 1.233-6.456 1.233a11.43 11.43 0 01-4.508-.897 12.237 12.237 0 01-3.674-2.465V53h-8.349V27.789c0-2.204.427-4.277 1.28-6.22a17.002 17.002 0 013.563-5.098c1.484-1.456 3.228-2.595 5.232-3.417a16.467 16.467 0 016.456-1.289zm-.167 24.427c1.15 0 2.226-.224 3.228-.672a8.419 8.419 0 002.672-1.793 8.656 8.656 0 001.781-2.633 8.356 8.356 0 00.668-3.305 7.959 7.959 0 00-.668-3.25 8.492 8.492 0 00-1.781-2.69 8.419 8.419 0 00-2.672-1.792 7.815 7.815 0 00-3.228-.672c-1.15 0-2.245.224-3.284.672a8.594 8.594 0 00-2.616 1.793c-.742.747-1.336 1.643-1.781 2.69a7.959 7.959 0 00-.668 3.249c0 1.157.223 2.26.668 3.305a8.656 8.656 0 001.781 2.633 8.594 8.594 0 002.616 1.793 8.205 8.205 0 003.284.672zm20.325-8.403c0-2.204.371-4.277 1.114-6.22.779-1.941 1.855-3.64 3.228-5.098a14.682 14.682 0 014.898-3.417c1.929-.86 4.044-1.289 6.345-1.289h1.113v7.62c-1.15 0-2.245.224-3.284.672a8.594 8.594 0 00-2.616 1.793c-.742.747-1.336 1.643-1.781 2.69a7.959 7.959 0 00-.668 3.249v15.126h-8.349V27.79zM154.446 0c.668 0 1.28.13 1.836.392a4.398 4.398 0 011.503 1.065c.445.41.798.915 1.058 1.512.259.56.389 1.177.389 1.85a4.74 4.74 0 01-.389 1.904 5.303 5.303 0 01-1.058 1.513 4.398 4.398 0 01-1.503 1.064 4.868 4.868 0 01-1.836.336c-1.336 0-2.468-.467-3.396-1.4-.927-.934-1.391-2.073-1.391-3.418 0-.672.111-1.288.334-1.849a4.436 4.436 0 011.057-1.512 5.276 5.276 0 011.503-1.065A4.647 4.647 0 01154.446 0zm-4.175 12.662h8.349v30.253h-8.349V12.662zM179.023 25.1c1.113.111 2.189.373 3.228.784a9.372 9.372 0 012.839 1.68 8.19 8.19 0 012.059 2.578c.52.97.78 2.091.78 3.361 0 1.606-.334 3.063-1.002 4.37a9.949 9.949 0 01-2.728 3.25c-1.113.859-2.411 1.512-3.896 1.96-1.447.486-2.987.729-4.619.729a14.76 14.76 0 01-4.62-.728c-1.484-.449-2.801-1.102-3.952-1.961a10.26 10.26 0 01-2.671-3.25c-.668-1.307-1.002-2.764-1.002-4.37h8.349c0 1.27.408 2.13 1.224 2.577a5.674 5.674 0 002.672.673c.927 0 1.799-.243 2.616-.729.853-.485 1.28-1.214 1.28-2.185 0-.71-.408-1.344-1.225-1.904-.816-.56-1.855-.934-3.117-1.121a19.453 19.453 0 01-4.285-1.064c-1.373-.523-2.598-1.177-3.674-1.961a10.935 10.935 0 01-2.56-2.69 6.396 6.396 0 01-.946-3.361c0-1.532.315-2.913.946-4.146a9.518 9.518 0 012.56-3.137c1.113-.86 2.394-1.513 3.841-1.961a14.248 14.248 0 014.564-.729c1.632 0 3.154.243 4.564.729 1.447.448 2.708 1.12 3.785 2.017a9.075 9.075 0 012.615 3.193c.631 1.27.947 2.727.947 4.37h-8.349c0-.635-.111-1.158-.334-1.569-.186-.448-.445-.784-.779-1.008a2.548 2.548 0 00-1.169-.504 4.812 4.812 0 00-1.28-.168c-.928 0-1.763.205-2.505.616-.705.373-1.057 1.064-1.057 2.073 0 .448.204.878.612 1.288.408.374.946.729 1.614 1.065.668.299 1.41.56 2.226.784.817.187 1.633.336 2.449.448zm28.28-13.335c2.301 0 4.471.43 6.512 1.289 2.041.822 3.803 1.96 5.288 3.417a15.785 15.785 0 013.562 5.099c.89 1.942 1.336 4.015 1.336 6.219 0 .522-.037 1.027-.112 1.512a19.91 19.91 0 01-.167 1.4h-24.267a9.086 9.086 0 003.006 3.979c1.41 1.008 3.024 1.512 4.842 1.512a7.967 7.967 0 003.729-.896c1.15-.598 2.097-1.382 2.839-2.353h9.239a15.7 15.7 0 01-2.393 4.37 15.294 15.294 0 01-3.618 3.473 17.202 17.202 0 01-4.564 2.185c-1.633.56-3.377.84-5.232.84-2.301 0-4.471-.41-6.512-1.232-2.041-.859-3.822-2.017-5.343-3.473a16.997 16.997 0 01-3.562-5.099c-.854-1.942-1.281-4.015-1.281-6.218 0-2.204.427-4.277 1.281-6.22a16.996 16.996 0 013.562-5.098c1.521-1.456 3.302-2.595 5.343-3.417 2.041-.86 4.211-1.289 6.512-1.289zm7.848 13.11a8.587 8.587 0 00-3.061-3.922c-1.41-1.045-3.006-1.568-4.787-1.568-1.818 0-3.432.523-4.842 1.568a8.723 8.723 0 00-3.006 3.922h15.696z" fill="#1D293F"/><path d="M8.815 14.912c1.943-1.227 4.005-2.026 6.185-2.394 2.16-.4 4.253-.384 6.28.046a15.659 15.659 0 015.712 2.378c1.782 1.155 3.258 2.657 4.426 4.507.278.439.514.882.709 1.329.206.396.406.817.601 1.265L12.226 34.995a9.026 9.026 0 004.648 1.735c1.726.094 3.357-.345 4.893-1.315a8.006 8.006 0 002.676-2.743c.655-1.116 1.038-2.279 1.15-3.49L33.4 24.25c.362 1.614.46 3.262.295 4.946a15.236 15.236 0 01-1.214 4.846 17.234 17.234 0 01-2.698 4.27c-1.082 1.342-2.407 2.508-3.974 3.498-1.944 1.228-3.996 2.042-6.155 2.441-2.18.369-4.299.348-6.357-.063a16.88 16.88 0 01-5.713-2.378c-1.75-1.175-3.21-2.687-4.379-4.536-1.168-1.85-1.907-3.818-2.216-5.903a16.88 16.88 0 01.306-6.18c.513-2.035 1.414-3.942 2.702-5.721 1.269-1.81 2.875-3.33 4.819-4.557zm13.582 6.815a8.533 8.533 0 00-4.666-1.657c-1.746-.126-3.371.287-4.876 1.238-1.536.97-2.623 2.27-3.26 3.901a8.666 8.666 0 00-.459 4.896l13.26-8.378z" fill="#28B0A6"/></svg>