<svg width="200" height="48" fill="none" xmlns="http://www.w3.org/2000/svg"><path fill="#fff" d="M0 0h200v48H0z"/><path d="M0 38.867V2.334h25.001v7.307H8.097v7.205h13.868v7.306H8.098v7.408H25v7.307H0zm29.055-13.7c0-1.996.32-3.873.962-5.632.64-1.76 1.552-3.298 2.732-4.617 1.181-1.32 2.615-2.351 4.302-3.096 1.687-.778 3.577-1.167 5.668-1.167 1.991 0 3.83.423 5.517 1.269a12.535 12.535 0 014.352 3.349 12.667 12.667 0 014.302-3.35c1.72-.845 3.577-1.268 5.567-1.268 2.092 0 3.981.39 5.668 1.167 1.687.745 3.121 1.776 4.302 3.096 1.181 1.319 2.092 2.858 2.733 4.617s.962 3.636.962 5.632v13.7H68.53v-13.7c0-1.049-.118-2.03-.354-2.943-.236-.947-.607-1.759-1.113-2.435a5.615 5.615 0 00-1.924-1.624c-.742-.406-1.636-.609-2.682-.609s-1.957.203-2.733.609a5.768 5.768 0 00-1.872 1.624c-.506.676-.878 1.488-1.114 2.435a11.722 11.722 0 00-.354 2.943v13.7h-7.591v-13.7c0-1.049-.118-2.03-.355-2.943-.236-.947-.607-1.759-1.113-2.435a5.615 5.615 0 00-1.923-1.624c-.742-.406-1.637-.609-2.683-.609-1.046 0-1.956.203-2.732.609a5.768 5.768 0 00-1.873 1.624c-.506.676-.877 1.488-1.113 2.435a11.722 11.722 0 00-.355 2.943v13.7h-7.591v-13.7zm66.629-14.512c2.092 0 4.049.39 5.87 1.167 1.822.745 3.408 1.776 4.758 3.096a14.683 14.683 0 013.188 4.617c.81 1.759 1.215 3.636 1.215 5.632 0 1.996-.405 3.873-1.215 5.632a14.684 14.684 0 01-3.188 4.617c-1.35 1.32-2.936 2.368-4.758 3.146-1.822.745-3.778 1.117-5.87 1.117-1.451 0-2.817-.271-4.1-.812a11.128 11.128 0 01-3.34-2.233V48h-7.591V25.167c0-1.996.388-3.873 1.164-5.632a15.398 15.398 0 013.239-4.617c1.35-1.32 2.935-2.351 4.757-3.096a15.03 15.03 0 015.87-1.167zm-.152 22.123a7.128 7.128 0 002.935-.609 7.662 7.662 0 002.43-1.623 7.856 7.856 0 001.619-2.385 7.535 7.535 0 00.607-2.994c0-1.049-.202-2.03-.607-2.943a7.694 7.694 0 00-1.619-2.435 7.662 7.662 0 00-2.43-1.624 7.13 7.13 0 00-2.935-.609 7.485 7.485 0 00-2.986.609 7.818 7.818 0 00-2.379 1.624 7.681 7.681 0 00-1.62 2.435 7.18 7.18 0 00-.606 2.943 7.54 7.54 0 00.607 2.994 7.843 7.843 0 001.62 2.384 7.818 7.818 0 002.378 1.624c.945.406 1.94.609 2.986.609zm18.481-7.611c0-1.996.338-3.873 1.013-5.632a14.54 14.54 0 012.935-4.617 13.352 13.352 0 014.454-3.096c1.754-.778 3.677-1.167 5.769-1.167h1.012v6.901a7.486 7.486 0 00-2.986.609 7.805 7.805 0 00-2.378 1.624 7.68 7.68 0 00-1.62 2.435 7.177 7.177 0 00-.607 2.943v13.7h-7.592v-13.7zM136.755 0c.607 0 1.164.118 1.67.355.54.237.995.558 1.366.964.405.372.726.829.962 1.37.236.508.354 1.066.354 1.675a4.27 4.27 0 01-.354 1.725 4.788 4.788 0 01-.962 1.37 3.997 3.997 0 01-1.366.964 4.448 4.448 0 01-1.67.304c-1.215 0-2.244-.423-3.087-1.268-.844-.846-1.266-1.878-1.266-3.095 0-.61.102-1.167.304-1.675a4.01 4.01 0 01.962-1.37 4.78 4.78 0 011.366-.964A4.24 4.24 0 01136.755 0zm-3.796 11.467h7.592v27.4h-7.592v-27.4zm26.144 11.265c1.012.101 1.991.338 2.935.71a8.53 8.53 0 012.581 1.522 7.43 7.43 0 011.873 2.334c.472.88.708 1.894.708 3.045 0 1.454-.303 2.773-.911 3.957a9.03 9.03 0 01-2.479 2.943c-1.013.778-2.194 1.37-3.543 1.776-1.316.44-2.716.66-4.201.66-1.451 0-2.851-.22-4.2-.66-1.35-.406-2.548-.998-3.594-1.776a9.31 9.31 0 01-2.429-2.943c-.607-1.184-.911-2.503-.911-3.957h7.592c0 1.15.371 1.928 1.113 2.333a5.173 5.173 0 002.429.61 4.59 4.59 0 002.379-.66c.776-.44 1.164-1.1 1.164-1.98 0-.642-.371-1.217-1.113-1.724-.743-.508-1.687-.846-2.835-1.015a17.753 17.753 0 01-3.896-.964 14.264 14.264 0 01-3.341-1.776 9.944 9.944 0 01-2.328-2.436 5.781 5.781 0 01-.86-3.044c0-1.387.287-2.638.86-3.755a8.636 8.636 0 012.328-2.841c1.012-.778 2.176-1.37 3.492-1.776 1.316-.44 2.699-.66 4.15-.66 1.485 0 2.868.22 4.15.66 1.316.406 2.463 1.015 3.442 1.827a8.23 8.23 0 012.378 2.892c.574 1.15.861 2.47.861 3.957h-7.592c0-.575-.101-1.048-.303-1.42-.169-.406-.405-.71-.709-.914a2.321 2.321 0 00-1.063-.456 4.396 4.396 0 00-1.164-.152c-.843 0-1.602.186-2.277.558-.641.338-.962.964-.962 1.877 0 .406.186.795.557 1.167.371.338.86.66 1.468.964.607.27 1.282.508 2.024.71.742.17 1.485.305 2.227.407zm25.714-12.077c2.092 0 4.066.39 5.921 1.167 1.856.745 3.459 1.776 4.808 3.096a14.274 14.274 0 013.239 4.617c.81 1.759 1.215 3.636 1.215 5.632 0 .474-.034.93-.101 1.37-.034.406-.085.829-.152 1.268h-22.066a8.237 8.237 0 002.733 3.603c1.282.913 2.75 1.37 4.403 1.37a7.27 7.27 0 003.391-.812c1.046-.541 1.906-1.251 2.581-2.13h8.401a14.182 14.182 0 01-2.176 3.957 13.863 13.863 0 01-3.29 3.146 15.65 15.65 0 01-4.15 1.978c-1.484.508-3.07.762-4.757.762-2.092 0-4.065-.372-5.921-1.117-1.856-.778-3.475-1.826-4.859-3.145a15.415 15.415 0 01-3.239-4.618c-.776-1.759-1.164-3.636-1.164-5.632 0-1.996.388-3.873 1.164-5.632a15.414 15.414 0 013.239-4.617c1.384-1.32 3.003-2.351 4.859-3.096 1.856-.778 3.829-1.167 5.921-1.167zm7.136 11.874a7.777 7.777 0 00-2.783-3.552c-1.283-.947-2.733-1.421-4.353-1.421-1.653 0-3.121.474-4.403 1.42a7.91 7.91 0 00-2.733 3.553h14.272z" fill="#423C3C"/></svg>