<svg width="161" height="43" fill="none" xmlns="http://www.w3.org/2000/svg"><path d="M6.2 8.24v7.32h10v4.32h-10v7.6h11.2V32H.56V3.76H17.4v4.48H6.2zm43.576 1.28c2.693 0 4.813.84 6.36 2.52 1.573 1.653 2.36 4.013 2.36 7.08V32h-5.6V19.76c0-1.707-.44-3.013-1.32-3.92-.854-.933-2.04-1.4-3.56-1.4-1.574 0-2.827.493-3.76 1.48-.934.987-1.4 2.427-1.4 4.32V32h-5.6V19.76c0-1.707-.44-3.013-1.32-3.92-.854-.933-2.04-1.4-3.56-1.4-1.574 0-2.827.493-3.76 1.48-.934.987-1.4 2.427-1.4 4.32V32h-5.64V9.84h5.64v4.2c.586-1.44 1.506-2.547 2.76-3.32 1.28-.8 2.76-1.2 4.44-1.2 1.786 0 3.333.427 4.64 1.28 1.333.853 2.333 2.08 3 3.68.693-1.52 1.72-2.72 3.08-3.6 1.386-.907 2.933-1.36 4.64-1.36zm26.915.04c1.866 0 3.546.453 5.04 1.36 1.493.907 2.653 2.227 3.48 3.96.853 1.707 1.28 3.72 1.28 6.04s-.427 4.347-1.28 6.08c-.827 1.707-1.987 3.013-3.48 3.92-1.494.907-3.174 1.36-5.04 1.36-1.867 0-3.467-.44-4.8-1.32a7.48 7.48 0 01-2.8-3.6v15.2h-5.64V9.84h5.64v4.6c.56-1.493 1.493-2.68 2.8-3.56 1.333-.88 2.933-1.32 4.8-1.32zm-1.76 4.92c-1.707 0-3.12.587-4.24 1.76-1.094 1.147-1.64 2.707-1.64 4.68 0 1.947.546 3.507 1.64 4.68 1.12 1.147 2.533 1.72 4.24 1.72 1.76 0 3.173-.56 4.24-1.68 1.066-1.147 1.6-2.72 1.6-4.72 0-2-.534-3.573-1.6-4.72-1.067-1.147-2.48-1.72-4.24-1.72zm21.19-.4c.828-1.413 1.92-2.52 3.28-3.32 1.361-.827 2.881-1.24 4.561-1.24v6.04h-1.64c-4.133 0-6.2 1.92-6.2 5.76V32h-5.64V9.84h5.64v4.24zm10.322-10.6c0-.907.32-1.64.96-2.2.64-.587 1.48-.88 2.52-.88s1.88.293 2.52.88c.64.56.96 1.293.96 2.2 0 .88-.32 1.613-.96 2.2-.64.56-1.48.84-2.52.84s-1.88-.28-2.52-.84c-.64-.587-.96-1.32-.96-2.2zm6.28 6.36V32h-5.64V9.84h5.64zm12.743-.28c2.693 0 4.853.68 6.48 2.04 1.626 1.36 2.64 3.173 3.04 5.44h-5.28c-.214-1.067-.694-1.92-1.44-2.56-.747-.64-1.72-.96-2.92-.96-.96 0-1.707.227-2.24.68-.534.453-.8 1.067-.8 1.84 0 .613.213 1.107.64 1.48.426.373.96.667 1.6.88.64.213 1.56.467 2.76.76 1.68.373 3.04.773 4.08 1.2a6.381 6.381 0 012.72 1.96c.773.88 1.16 2.08 1.16 3.6 0 1.893-.747 3.427-2.24 4.6-1.467 1.173-3.454 1.76-5.96 1.76-2.88 0-5.187-.64-6.92-1.92-1.734-1.307-2.787-3.16-3.16-5.56h5.4c.133 1.093.613 1.96 1.44 2.6.826.613 1.906.92 3.24.92.96 0 1.693-.227 2.2-.68.506-.48.76-1.093.76-1.84 0-.64-.227-1.16-.68-1.56-.427-.4-.974-.707-1.64-.92-.64-.213-1.56-.467-2.76-.76-1.654-.373-3-.747-4.04-1.12a6.77 6.77 0 01-2.64-1.88c-.72-.853-1.08-2.027-1.08-3.52 0-1.92.733-3.48 2.2-4.68 1.466-1.2 3.493-1.8 6.08-1.8zm34.84 10.52c0 .56-.066 1.2-.2 1.92h-16.24c.08 1.973.614 3.427 1.6 4.36.987.933 2.214 1.4 3.68 1.4 1.307 0 2.387-.32 3.24-.96.88-.64 1.44-1.507 1.68-2.6h5.96a9.531 9.531 0 01-1.88 4.16c-.96 1.227-2.2 2.187-3.72 2.88-1.493.693-3.16 1.04-5 1.04-2.16 0-4.08-.453-5.76-1.36-1.68-.933-2.986-2.253-3.92-3.96-.933-1.707-1.4-3.72-1.4-6.04s.467-4.333 1.4-6.04c.934-1.733 2.24-3.053 3.92-3.96 1.68-.907 3.6-1.36 5.76-1.36 2.187 0 4.094.453 5.72 1.36 1.654.907 2.92 2.16 3.8 3.76.907 1.573 1.36 3.373 1.36 5.4zm-5.68-.56c.08-1.813-.4-3.187-1.44-4.12-1.013-.933-2.266-1.4-3.76-1.4-1.52 0-2.8.467-3.84 1.4-1.04.933-1.613 2.307-1.72 4.12h10.76z" fill="#1D293F"/></svg>