<svg width="168" height="40" fill="none" xmlns="http://www.w3.org/2000/svg"><path d="M26.472 20.973c0-1.664.266-3.228.796-4.694.531-1.466 1.285-2.748 2.263-3.848a10.278 10.278 0 013.562-2.579c1.396-.648 2.96-.973 4.692-.973 1.648 0 3.17.353 4.567 1.058a10.386 10.386 0 013.604 2.79 10.497 10.497 0 013.561-2.79c1.425-.705 2.961-1.058 4.61-1.058 1.731 0 3.295.325 4.692.973a10.28 10.28 0 013.562 2.58c.977 1.099 1.732 2.381 2.262 3.847.531 1.466.796 3.03.796 4.694v11.416h-6.285V20.972c0-.873-.097-1.69-.293-2.452-.195-.79-.503-1.466-.922-2.03a4.657 4.657 0 00-1.592-1.353c-.614-.338-1.355-.507-2.22-.507-.867 0-1.62.17-2.263.507a4.785 4.785 0 00-1.55 1.354c-.42.563-.727 1.24-.922 2.03a9.832 9.832 0 00-.294 2.451V32.39h-6.285V20.972c0-.873-.098-1.69-.293-2.452-.196-.79-.503-1.466-.922-2.03a4.656 4.656 0 00-1.592-1.353c-.614-.338-1.355-.507-2.22-.507-.867 0-1.62.17-2.263.507a4.784 4.784 0 00-1.55 1.354c-.42.563-.727 1.24-.922 2.03a9.827 9.827 0 00-.294 2.451V32.39h-6.285V20.972zM81.635 8.88c1.732 0 3.352.324 4.86.972 1.509.62 2.822 1.48 3.94 2.58a12.233 12.233 0 012.639 3.847 11.15 11.15 0 011.005 4.694 11.15 11.15 0 01-1.005 4.693 12.231 12.231 0 01-2.64 3.848 12.709 12.709 0 01-3.938 2.621c-1.509.62-3.129.93-4.86.93a8.588 8.588 0 01-3.395-.676 9.21 9.21 0 01-2.765-1.86V40H69.19V20.973c0-1.664.321-3.228.963-4.694a12.834 12.834 0 012.682-3.848 12.114 12.114 0 013.939-2.579 12.374 12.374 0 014.86-.973zm-.126 18.435a5.87 5.87 0 002.43-.507 6.338 6.338 0 002.012-1.354 6.535 6.535 0 001.34-1.987c.336-.79.504-1.62.504-2.494 0-.874-.168-1.692-.503-2.453a6.404 6.404 0 00-1.341-2.03 6.338 6.338 0 00-2.011-1.353 5.87 5.87 0 00-2.43-.507c-.867 0-1.69.17-2.473.507-.754.339-1.41.79-1.969 1.354a6.404 6.404 0 00-1.34 2.03 6.016 6.016 0 00-.504 2.451c0 .874.168 1.706.503 2.495a6.535 6.535 0 001.341 1.988 6.472 6.472 0 001.97 1.353 6.162 6.162 0 002.472.507zm15.301-6.342c0-1.664.28-3.228.839-4.694a12.14 12.14 0 012.43-3.848 11.047 11.047 0 013.687-2.579c1.453-.648 3.045-.973 4.777-.973h.838v5.751c-.866 0-1.69.17-2.472.507a6.469 6.469 0 00-1.97 1.354 6.428 6.428 0 00-1.341 2.03 6.02 6.02 0 00-.502 2.451V32.39h-6.285V20.972zM115.638 0c.503 0 .964.099 1.383.296a3.31 3.31 0 011.131.803c.336.31.601.691.797 1.142.195.423.293.888.293 1.395 0 .508-.098.987-.293 1.438a3.99 3.99 0 01-.797 1.142 3.31 3.31 0 01-1.131.803c-.419.17-.88.254-1.383.254-1.005 0-1.857-.353-2.555-1.057-.699-.705-1.048-1.565-1.048-2.58 0-.507.084-.972.251-1.395.196-.451.461-.832.797-1.142a3.953 3.953 0 011.131-.803A3.488 3.488 0 01115.638 0zm-3.142 9.556h6.285v22.833h-6.285V9.556zm21.645 9.387a9.018 9.018 0 012.43.592c.81.31 1.522.733 2.137 1.268a6.184 6.184 0 011.55 1.945c.391.733.587 1.579.587 2.537 0 1.212-.252 2.312-.754 3.299a7.513 7.513 0 01-2.054 2.452c-.838.648-1.815 1.142-2.933 1.48-1.089.366-2.248.55-3.477.55a11.09 11.09 0 01-3.478-.55 9.52 9.52 0 01-2.975-1.48 7.74 7.74 0 01-2.011-2.453c-.503-.986-.754-2.085-.754-3.298h6.285c0 .959.307 1.607.921 1.945a4.264 4.264 0 002.012.508c.698 0 1.354-.183 1.969-.55.642-.366.964-.916.964-1.649 0-.536-.308-1.015-.922-1.438-.615-.422-1.397-.704-2.347-.845a14.62 14.62 0 01-3.226-.804 11.785 11.785 0 01-2.765-1.48 8.252 8.252 0 01-1.928-2.03 4.836 4.836 0 01-.712-2.536c0-1.156.237-2.199.712-3.129a7.18 7.18 0 011.928-2.368 9.065 9.065 0 012.891-1.48 10.704 10.704 0 013.436-.55c1.229 0 2.374.184 3.435.55 1.09.338 2.04.846 2.85 1.522a6.853 6.853 0 011.969 2.41c.475.959.712 2.058.712 3.299h-6.285c0-.48-.084-.874-.251-1.184-.14-.339-.335-.592-.587-.761a1.91 1.91 0 00-.88-.381 3.613 3.613 0 00-.963-.127c-.699 0-1.327.155-1.886.465-.531.282-.796.804-.796 1.565 0 .338.154.662.461.972.307.282.712.55 1.215.804.503.225 1.062.422 1.676.592.615.14 1.229.253 1.844.338zM155.43 8.88c1.732 0 3.366.324 4.902.972 1.537.62 2.863 1.48 3.981 2.58a11.9 11.9 0 012.681 3.847A11.142 11.142 0 01168 20.973c0 .394-.028.775-.084 1.141-.028.338-.07.69-.126 1.057h-18.268a6.853 6.853 0 002.263 3.002c1.061.762 2.276 1.142 3.645 1.142a5.985 5.985 0 002.807-.677 6.307 6.307 0 002.137-1.775h6.956a11.856 11.856 0 01-1.802 3.298 11.511 11.511 0 01-2.724 2.621 12.923 12.923 0 01-3.435 1.65 12.03 12.03 0 01-3.939.633c-1.732 0-3.366-.31-4.902-.93a13.093 13.093 0 01-4.023-2.621 12.829 12.829 0 01-2.681-3.848 11.554 11.554 0 01-.964-4.694c0-1.663.321-3.227.964-4.693a12.83 12.83 0 012.681-3.848 12.492 12.492 0 014.023-2.579 12.475 12.475 0 014.902-.973zm5.908 9.894a6.476 6.476 0 00-2.305-2.96 5.883 5.883 0 00-3.603-1.184c-1.369 0-2.584.395-3.645 1.184a6.58 6.58 0 00-2.263 2.96h11.816z" fill="#1D293F"/><path d="M6.007 11.255a12.551 12.551 0 014.656-1.807c1.626-.302 3.201-.29 4.727.035 1.549.31 2.982.908 4.3 1.794a10.973 10.973 0 013.333 3.401c.208.332.386.666.533 1.003.155.3.306.618.453.955L8.574 26.412a6.784 6.784 0 003.5 1.309c1.3.07 2.527-.26 3.683-.993a6.037 6.037 0 002.014-2.07 6.31 6.31 0 00.866-2.634l5.877-3.722c.272 1.218.346 2.462.222 3.732a11.525 11.525 0 01-.914 3.658 13.018 13.018 0 01-2.03 3.223 12.178 12.178 0 01-2.993 2.64c-1.463.926-3.008 1.54-4.634 1.842-1.64.278-3.236.262-4.785-.048a12.692 12.692 0 01-4.3-1.794 11.377 11.377 0 01-3.297-3.424 11.407 11.407 0 01-1.668-4.455 12.77 12.77 0 01.23-4.664 12.55 12.55 0 012.034-4.318 12.583 12.583 0 013.628-3.44zm10.224 5.143a6.413 6.413 0 00-3.512-1.251c-1.315-.095-2.538.217-3.67.934-1.157.733-1.975 1.714-2.454 2.945a6.556 6.556 0 00-.347 3.695l9.983-6.323z" fill="#28B0A6"/></svg>