<svg width="179" height="42" viewBox="0 0 179 42" fill="none" xmlns="http://www.w3.org/2000/svg">
<path d="M14.0799 9.536C15.8986 9.536 17.6146 9.87334 19.2279 10.548C20.8412 11.1933 22.2346 12.088 23.4079 13.232C24.6106 14.376 25.5492 15.7107 26.2239 17.236C26.9279 18.7613 27.2799 20.3893 27.2799 22.12C27.2799 22.5307 27.2506 22.9267 27.1919 23.308C27.1626 23.66 27.1186 24.0267 27.0599 24.408H7.87588C8.37455 25.6693 9.16655 26.7107 10.2519 27.532C11.3666 28.324 12.6426 28.72 14.0799 28.72C15.1359 28.72 16.1186 28.4853 17.0279 28.016C17.9372 27.5467 18.6852 26.9307 19.2719 26.168H26.5759C26.1359 27.4 25.5052 28.544 24.6839 29.6C23.8919 30.656 22.9386 31.5653 21.8239 32.328C20.7386 33.0613 19.5359 33.6333 18.2159 34.044C16.9252 34.484 15.5465 34.704 14.0799 34.704C12.2612 34.704 10.5452 34.3813 8.93188 33.736C7.31855 33.0613 5.91055 32.152 4.70788 31.008C3.53455 29.864 2.59588 28.5293 1.89188 27.004C1.21722 25.4787 0.879883 23.8507 0.879883 22.12C0.879883 20.3893 1.21722 18.7613 1.89188 17.236C2.59588 15.7107 3.53455 14.376 4.70788 13.232C5.91055 12.088 7.31855 11.1933 8.93188 10.548C10.5452 9.87334 12.2612 9.536 14.0799 9.536ZM20.2839 19.832C19.7852 18.5707 18.9786 17.544 17.8639 16.752C16.7492 15.9307 15.4879 15.52 14.0799 15.52C12.6426 15.52 11.3666 15.9307 10.2519 16.752C9.16655 17.544 8.37455 18.5707 7.87588 19.832H20.2839Z" fill="white"/>
<path d="M30.2533 22.12C30.2533 20.3893 30.532 18.7613 31.0893 17.236C31.6467 15.7107 32.4387 14.376 33.4653 13.232C34.492 12.088 35.7387 11.1933 37.2053 10.548C38.672 9.87334 40.3147 9.536 42.1333 9.536C43.864 9.536 45.4627 9.90267 46.9293 10.636C48.4253 11.34 49.6867 12.308 50.7133 13.54C51.74 12.308 52.9867 11.34 54.4533 10.636C55.9493 9.90267 57.5627 9.536 59.2933 9.536C61.112 9.536 62.7547 9.87334 64.2213 10.548C65.688 11.1933 66.9347 12.088 67.9613 13.232C68.988 14.376 69.78 15.7107 70.3373 17.236C70.8947 18.7613 71.1733 20.3893 71.1733 22.12V34H64.5733V22.12C64.5733 21.2107 64.4707 20.36 64.2653 19.568C64.06 18.7467 63.7373 18.0427 63.2973 17.456C62.8573 16.8693 62.3 16.4 61.6253 16.048C60.98 15.696 60.2027 15.52 59.2933 15.52C58.384 15.52 57.592 15.696 56.9173 16.048C56.272 16.4 55.7293 16.8693 55.2893 17.456C54.8493 18.0427 54.5267 18.7467 54.3213 19.568C54.116 20.36 54.0133 21.2107 54.0133 22.12V34H47.4133V22.12C47.4133 21.2107 47.3107 20.36 47.1053 19.568C46.9 18.7467 46.5773 18.0427 46.1373 17.456C45.6973 16.8693 45.14 16.4 44.4653 16.048C43.82 15.696 43.0427 15.52 42.1333 15.52C41.224 15.52 40.432 15.696 39.7573 16.048C39.112 16.4 38.5693 16.8693 38.1293 17.456C37.6893 18.0427 37.3667 18.7467 37.1613 19.568C36.956 20.36 36.8533 21.2107 36.8533 22.12V34H30.2533V22.12Z" fill="white"/>
<path d="M88.1807 9.536C89.9994 9.536 91.7007 9.87334 93.2847 10.548C94.8687 11.1933 96.2474 12.088 97.4207 13.232C98.594 14.376 99.518 15.7107 100.193 17.236C100.897 18.7613 101.249 20.3893 101.249 22.12C101.249 23.8507 100.897 25.4787 100.193 27.004C99.518 28.5293 98.594 29.864 97.4207 31.008C96.2474 32.152 94.8687 33.0613 93.2847 33.736C91.7007 34.3813 89.9994 34.704 88.1807 34.704C86.9194 34.704 85.7314 34.4693 84.6167 34C83.5314 33.5307 82.5634 32.8853 81.7127 32.064V41.92H75.1127V22.12C75.1127 20.3893 75.45 18.7613 76.1247 17.236C76.8287 15.7107 77.7674 14.376 78.9407 13.232C80.114 12.088 81.4927 11.1933 83.0767 10.548C84.69 9.87334 86.3914 9.536 88.1807 9.536ZM88.0487 28.72C88.958 28.72 89.8087 28.544 90.6007 28.192C91.422 27.84 92.126 27.3707 92.7127 26.784C93.2994 26.1973 93.7687 25.508 94.1207 24.716C94.4727 23.8947 94.6487 23.0293 94.6487 22.12C94.6487 21.2107 94.4727 20.36 94.1207 19.568C93.7687 18.7467 93.2994 18.0427 92.7127 17.456C92.126 16.8693 91.422 16.4 90.6007 16.048C89.8087 15.696 88.958 15.52 88.0487 15.52C87.1394 15.52 86.274 15.696 85.4527 16.048C84.6607 16.4 83.9714 16.8693 83.3847 17.456C82.798 18.0427 82.3287 18.7467 81.9767 19.568C81.6247 20.36 81.4487 21.2107 81.4487 22.12C81.4487 23.0293 81.6247 23.8947 81.9767 24.716C82.3287 25.508 82.798 26.1973 83.3847 26.784C83.9714 27.3707 84.6607 27.84 85.4527 28.192C86.274 28.544 87.1394 28.72 88.0487 28.72Z" fill="white"/>
<path d="M104.117 22.12C104.117 20.3893 104.41 18.7613 104.997 17.236C105.613 15.7107 106.463 14.376 107.549 13.232C108.634 12.088 109.925 11.1933 111.421 10.548C112.946 9.87334 114.618 9.536 116.437 9.536H117.317V15.52C116.407 15.52 115.542 15.696 114.721 16.048C113.929 16.4 113.239 16.8693 112.653 17.456C112.066 18.0427 111.597 18.7467 111.245 19.568C110.893 20.36 110.717 21.2107 110.717 22.12V34H104.117V22.12Z" fill="white"/>
<path d="M123.888 0.296005C124.416 0.296005 124.9 0.398671 125.34 0.604004C125.809 0.809338 126.205 1.08801 126.528 1.44001C126.88 1.76267 127.159 2.15867 127.364 2.628C127.569 3.06801 127.672 3.55201 127.672 4.08001C127.672 4.60801 127.569 5.10667 127.364 5.576C127.159 6.016 126.88 6.412 126.528 6.76401C126.205 7.116 125.809 7.39467 125.34 7.60001C124.9 7.776 124.416 7.86401 123.888 7.86401C122.832 7.86401 121.937 7.49734 121.204 6.76401C120.471 6.03067 120.104 5.13601 120.104 4.08001C120.104 3.55201 120.192 3.06801 120.368 2.628C120.573 2.15867 120.852 1.76267 121.204 1.44001C121.556 1.08801 121.952 0.809338 122.392 0.604004C122.861 0.398671 123.36 0.296005 123.888 0.296005ZM120.588 10.24H127.188V34H120.588V10.24Z" fill="white"/>
<path d="M143.318 20.008C144.198 20.096 145.048 20.3013 145.87 20.624C146.72 20.9467 147.468 21.3867 148.114 21.944C148.788 22.5013 149.331 23.176 149.742 23.968C150.152 24.7307 150.357 25.6107 150.357 26.608C150.357 27.8693 150.094 29.0133 149.566 30.04C149.038 31.0373 148.319 31.888 147.41 32.592C146.53 33.2667 145.503 33.78 144.329 34.132C143.185 34.5133 141.968 34.704 140.678 34.704C139.416 34.704 138.199 34.5133 137.025 34.132C135.852 33.78 134.811 33.2667 133.902 32.592C133.022 31.888 132.318 31.0373 131.79 30.04C131.262 29.0133 130.997 27.8693 130.997 26.608H137.598C137.598 27.6053 137.92 28.28 138.566 28.632C139.24 28.984 139.944 29.16 140.678 29.16C141.411 29.16 142.1 28.9693 142.745 28.588C143.42 28.2067 143.758 27.6347 143.758 26.872C143.758 26.3147 143.435 25.816 142.79 25.376C142.144 24.936 141.323 24.6427 140.326 24.496C139.182 24.3493 138.052 24.0707 136.938 23.66C135.852 23.2493 134.884 22.736 134.034 22.12C133.212 21.504 132.538 20.8 132.01 20.008C131.511 19.1867 131.262 18.3067 131.262 17.368C131.262 16.1653 131.511 15.08 132.01 14.112C132.508 13.144 133.183 12.3227 134.034 11.648C134.914 10.9733 135.926 10.46 137.07 10.108C138.214 9.72667 139.416 9.536 140.678 9.536C141.968 9.536 143.171 9.72667 144.286 10.108C145.43 10.46 146.427 10.988 147.278 11.692C148.158 12.3667 148.847 13.2027 149.346 14.2C149.844 15.1973 150.094 16.3413 150.094 17.632H143.493C143.493 17.1333 143.406 16.7227 143.23 16.4C143.083 16.048 142.878 15.784 142.614 15.608C142.35 15.4027 142.041 15.2707 141.689 15.212C141.367 15.124 141.03 15.08 140.678 15.08C139.944 15.08 139.284 15.2413 138.698 15.564C138.14 15.8573 137.862 16.4 137.862 17.192C137.862 17.544 138.023 17.8813 138.346 18.204C138.668 18.4973 139.094 18.776 139.622 19.04C140.15 19.2747 140.736 19.48 141.382 19.656C142.027 19.8027 142.672 19.92 143.318 20.008Z" fill="white"/>
<path d="M165.674 9.536C167.492 9.536 169.208 9.87334 170.822 10.548C172.435 11.1933 173.828 12.088 175.002 13.232C176.204 14.376 177.143 15.7107 177.818 17.236C178.522 18.7613 178.874 20.3893 178.874 22.12C178.874 22.5307 178.844 22.9267 178.786 23.308C178.756 23.66 178.712 24.0267 178.654 24.408H159.47C159.968 25.6693 160.76 26.7107 161.846 27.532C162.96 28.324 164.236 28.72 165.674 28.72C166.73 28.72 167.712 28.4853 168.622 28.016C169.531 27.5467 170.279 26.9307 170.866 26.168H178.17C177.73 27.4 177.099 28.544 176.278 29.6C175.486 30.656 174.532 31.5653 173.418 32.328C172.332 33.0613 171.13 33.6333 169.81 34.044C168.519 34.484 167.14 34.704 165.674 34.704C163.855 34.704 162.139 34.3813 160.526 33.736C158.912 33.0613 157.504 32.152 156.302 31.008C155.128 29.864 154.19 28.5293 153.486 27.004C152.811 25.4787 152.474 23.8507 152.474 22.12C152.474 20.3893 152.811 18.7613 153.486 17.236C154.19 15.7107 155.128 14.376 156.302 13.232C157.504 12.088 158.912 11.1933 160.526 10.548C162.139 9.87334 163.855 9.536 165.674 9.536ZM171.878 19.832C171.379 18.5707 170.572 17.544 169.458 16.752C168.343 15.9307 167.082 15.52 165.674 15.52C164.236 15.52 162.96 15.9307 161.846 16.752C160.76 17.544 159.968 18.5707 159.47 19.832H171.878Z" fill="white"/>
</svg>
