<svg width="146" height="34" viewBox="0 0 146 34" fill="none" xmlns="http://www.w3.org/2000/svg">
<path d="M26 17.8266C26 16.413 26.225 15.0832 26.675 13.8372C27.125 12.5913 27.7645 11.5011 28.5935 10.5666C29.4224 9.63213 30.429 8.90134 31.6132 8.37421C32.7975 7.82311 34.1238 7.54757 35.5922 7.54757C36.9896 7.54757 38.2804 7.84707 39.4646 8.44609C40.6726 9.02114 41.691 9.81184 42.5199 10.8182C43.3489 9.81184 44.3555 9.02114 45.5397 8.44609C46.7476 7.84707 48.0503 7.54757 49.4477 7.54757C50.9161 7.54757 52.2424 7.82311 53.4267 8.37421C54.6109 8.90134 55.6175 9.63213 56.4464 10.5666C57.2754 11.5011 57.9149 12.5913 58.3649 13.8372C58.8149 15.0832 59.0399 16.413 59.0399 17.8266V27.5307H53.7109V17.8266C53.7109 17.0839 53.628 16.389 53.4622 15.7421C53.2964 15.0712 53.0359 14.4961 52.6806 14.0169C52.3253 13.5377 51.8753 13.1543 51.3306 12.8668C50.8095 12.5793 50.1819 12.4355 49.4477 12.4355C48.7134 12.4355 48.074 12.5793 47.5292 12.8668C47.0082 13.1543 46.57 13.5377 46.2147 14.0169C45.8595 14.4961 45.5989 15.0712 45.4331 15.7421C45.2674 16.389 45.1845 17.0839 45.1845 17.8266V27.5307H39.8554V17.8266C39.8554 17.0839 39.7725 16.389 39.6068 15.7421C39.441 15.0712 39.1804 14.4961 38.8252 14.0169C38.4699 13.5377 38.0199 13.1543 37.4751 12.8668C36.9541 12.5793 36.3264 12.4355 35.5922 12.4355C34.858 12.4355 34.2185 12.5793 33.6738 12.8668C33.1527 13.1543 32.7146 13.5377 32.3593 14.0169C32.004 14.4961 31.7435 15.0712 31.5777 15.7421C31.4119 16.389 31.329 17.0839 31.329 17.8266V27.5307H26V17.8266Z" fill="#1D293F"/>
<path d="M72.7721 7.54757C74.2405 7.54757 75.6142 7.82311 76.8932 8.37421C78.1722 8.90134 79.2853 9.63213 80.2327 10.5666C81.1801 11.5011 81.9262 12.5913 82.4709 13.8372C83.0393 15.0832 83.3236 16.413 83.3236 17.8266C83.3236 19.2403 83.0393 20.5701 82.4709 21.8161C81.9262 23.062 81.1801 24.1522 80.2327 25.0867C79.2853 26.0211 78.1722 26.7639 76.8932 27.315C75.6142 27.8421 74.2405 28.1057 72.7721 28.1057C71.7537 28.1057 70.7944 27.914 69.8944 27.5307C69.0181 27.1473 68.2365 26.6202 67.5497 25.9493V34H62.2207V17.8266C62.2207 16.413 62.493 15.0832 63.0378 13.8372C63.6062 12.5913 64.3641 11.5011 65.3115 10.5666C66.2589 9.63213 67.372 8.90134 68.651 8.37421C69.9536 7.82311 71.3273 7.54757 72.7721 7.54757ZM72.6655 23.2178C73.3997 23.2178 74.0866 23.074 74.7261 22.7865C75.3892 22.4989 75.9577 22.1156 76.4314 21.6364C76.9051 21.1572 77.284 20.5941 77.5682 19.9471C77.8524 19.2762 77.9945 18.5694 77.9945 17.8266C77.9945 17.0839 77.8524 16.389 77.5682 15.7421C77.284 15.0712 76.9051 14.4961 76.4314 14.0169C75.9577 13.5377 75.3892 13.1543 74.7261 12.8668C74.0866 12.5793 73.3997 12.4355 72.6655 12.4355C71.9313 12.4355 71.2326 12.5793 70.5694 12.8668C69.93 13.1543 69.3734 13.5377 68.8997 14.0169C68.426 14.4961 68.047 15.0712 67.7628 15.7421C67.4786 16.389 67.3365 17.0839 67.3365 17.8266C67.3365 18.5694 67.4786 19.2762 67.7628 19.9471C68.047 20.5941 68.426 21.1572 68.8997 21.6364C69.3734 22.1156 69.93 22.4989 70.5694 22.7865C71.2326 23.074 71.9313 23.2178 72.6655 23.2178Z" fill="#1D293F"/>
<path d="M85.6392 17.8266C85.6392 16.413 85.876 15.0832 86.3497 13.8372C86.8471 12.5913 87.5339 11.5011 88.4103 10.5666C89.2866 9.63213 90.3287 8.90134 91.5366 8.37421C92.7682 7.82311 94.1182 7.54757 95.5867 7.54757H96.2972V12.4355C95.563 12.4355 94.8643 12.5793 94.2011 12.8668C93.5616 13.1543 93.0051 13.5377 92.5314 14.0169C92.0577 14.4961 91.6787 15.0712 91.3945 15.7421C91.1103 16.389 90.9682 17.0839 90.9682 17.8266V27.5307H85.6392V17.8266Z" fill="#1D293F"/>
<path d="M101.603 0C102.03 0 102.42 0.0838615 102.776 0.251585C103.155 0.419309 103.474 0.646935 103.735 0.934462C104.019 1.19803 104.244 1.52149 104.41 1.90486C104.576 2.26427 104.658 2.65962 104.658 3.09091C104.658 3.5222 104.576 3.92953 104.41 4.3129C104.244 4.6723 104.019 4.99577 103.735 5.2833C103.474 5.57082 103.155 5.79845 102.776 5.96617C102.42 6.10994 102.03 6.18182 101.603 6.18182C100.751 6.18182 100.028 5.88231 99.436 5.2833C98.8439 4.68428 98.5479 3.95349 98.5479 3.09091C98.5479 2.65962 98.6189 2.26427 98.761 1.90486C98.9268 1.52149 99.1518 1.19803 99.436 0.934462C99.7203 0.646935 100.04 0.419309 100.395 0.251585C100.774 0.0838615 101.177 0 101.603 0ZM98.9387 8.12262H104.268V27.5307H98.9387V8.12262Z" fill="#1D293F"/>
<path d="M117.291 16.1015C118.002 16.1734 118.688 16.3411 119.352 16.6047C120.038 16.8682 120.642 17.2276 121.163 17.6829C121.708 18.1381 122.146 18.6892 122.478 19.3362C122.81 19.9591 122.975 20.6779 122.975 21.4926C122.975 22.5229 122.762 23.4574 122.336 24.296C121.91 25.1106 121.329 25.8055 120.595 26.3806C119.884 26.9316 119.056 27.3509 118.108 27.6385C117.184 27.95 116.202 28.1057 115.159 28.1057C114.141 28.1057 113.158 27.95 112.211 27.6385C111.263 27.3509 110.423 26.9316 109.688 26.3806C108.978 25.8055 108.409 25.1106 107.983 24.296C107.557 23.4574 107.344 22.5229 107.344 21.4926H112.673C112.673 22.3073 112.933 22.8583 113.454 23.1459C113.999 23.4334 114.567 23.5772 115.159 23.5772C115.752 23.5772 116.308 23.4214 116.829 23.1099C117.374 22.7984 117.646 22.3312 117.646 21.7082C117.646 21.253 117.386 20.8457 116.865 20.4863C116.344 20.1268 115.68 19.8872 114.875 19.7674C113.952 19.6476 113.04 19.42 112.14 19.0846C111.263 18.7491 110.482 18.3298 109.795 17.8266C109.132 17.3235 108.587 16.7484 108.161 16.1015C107.758 15.4306 107.557 14.7118 107.557 13.945C107.557 12.9626 107.758 12.0761 108.161 11.2854C108.563 10.4947 109.108 9.82382 109.795 9.27273C110.505 8.72163 111.323 8.30233 112.246 8.0148C113.17 7.70331 114.141 7.54757 115.159 7.54757C116.202 7.54757 117.173 7.70331 118.073 8.0148C118.996 8.30233 119.802 8.73362 120.488 9.30867C121.199 9.85976 121.756 10.5426 122.158 11.3573C122.561 12.172 122.762 13.1064 122.762 14.1607H117.433C117.433 13.7533 117.362 13.4179 117.22 13.1543C117.102 12.8668 116.936 12.6512 116.723 12.5074C116.509 12.3397 116.261 12.2319 115.977 12.1839C115.716 12.1121 115.444 12.0761 115.159 12.0761C114.567 12.0761 114.034 12.2079 113.561 12.4715C113.111 12.7111 112.886 13.1543 112.886 13.8013C112.886 14.0888 113.016 14.3643 113.277 14.6279C113.537 14.8675 113.88 15.0951 114.307 15.3108C114.733 15.5025 115.207 15.6702 115.728 15.814C116.249 15.9338 116.77 16.0296 117.291 16.1015Z" fill="#1D293F"/>
<path d="M135.342 7.54757C136.81 7.54757 138.196 7.82311 139.499 8.37421C140.801 8.90134 141.926 9.63213 142.874 10.5666C143.845 11.5011 144.603 12.5913 145.147 13.8372C145.716 15.0832 146 16.413 146 17.8266C146 18.1621 145.976 18.4856 145.929 18.797C145.905 19.0846 145.87 19.3841 145.822 19.6956H130.333C130.735 20.7259 131.375 21.5765 132.251 22.2474C133.151 22.8943 134.181 23.2178 135.342 23.2178C136.195 23.2178 136.988 23.0261 137.722 22.6427C138.456 22.2593 139.06 21.7562 139.534 21.1332H145.432C145.076 22.1395 144.567 23.074 143.904 23.9366C143.264 24.7992 142.495 25.5419 141.595 26.1649C140.718 26.7639 139.747 27.2311 138.681 27.5666C137.639 27.926 136.526 28.1057 135.342 28.1057C133.874 28.1057 132.488 27.8421 131.185 27.315C129.883 26.7639 128.746 26.0211 127.775 25.0867C126.827 24.1522 126.069 23.062 125.501 21.8161C124.956 20.5701 124.684 19.2403 124.684 17.8266C124.684 16.413 124.956 15.0832 125.501 13.8372C126.069 12.5913 126.827 11.5011 127.775 10.5666C128.746 9.63213 129.883 8.90134 131.185 8.37421C132.488 7.82311 133.874 7.54757 135.342 7.54757ZM140.351 15.9577C139.949 14.9274 139.297 14.0888 138.397 13.4419C137.497 12.771 136.479 12.4355 135.342 12.4355C134.181 12.4355 133.151 12.771 132.251 13.4419C131.375 14.0888 130.735 14.9274 130.333 15.9577H140.351Z" fill="#1D293F"/>
<path d="M8.85789 10.3619C10.0783 9.58513 11.3722 9.07929 12.7397 8.84441C14.0948 8.58977 15.4075 8.59697 16.6778 8.866C17.9678 9.1225 19.1612 9.62012 20.2579 10.3589C21.3742 11.0851 22.2978 12.0308 23.0284 13.1959C23.2018 13.4724 23.3493 13.7516 23.4709 14.0333C23.5998 14.2829 23.7251 14.5485 23.8467 14.8303L10.9732 23.0243C11.8404 23.6605 12.8115 24.0233 13.8865 24.1126C14.9689 24.1697 15.9923 23.8913 16.9568 23.2774C17.6655 22.8264 18.2258 22.2487 18.6379 21.5443C19.05 20.8399 19.2919 20.1057 19.3636 19.3417L24.2649 16.2219C24.4898 17.2393 24.5495 18.2789 24.4442 19.3406C24.3585 20.3898 24.1027 21.4092 23.6767 22.3988C23.2579 23.3561 22.6924 24.2549 21.98 25.0952C21.2996 25.9427 20.4673 26.6796 19.4831 27.3061C18.2627 28.0829 16.9749 28.5986 15.6199 28.8532C14.2524 29.0881 12.9237 29.0773 11.6337 28.8208C10.3633 28.5518 9.16998 28.0542 8.05361 27.3279C6.95692 26.5892 6.04325 25.6372 5.31261 24.4721C4.58197 23.3069 4.12105 22.0668 3.92983 20.7517C3.7583 19.4241 3.82473 18.1246 4.12914 16.8533C4.45322 15.5694 5.02036 14.3657 5.83055 13.2421C6.62836 12.0988 7.63747 11.1387 8.85789 10.3619ZM17.3678 14.6437C16.5007 14.0076 15.5259 13.6609 14.4435 13.6038C13.3488 13.5269 12.329 13.7892 11.3842 14.3906C10.4196 15.0045 9.73675 15.826 9.3355 16.8551C8.94154 17.8519 8.8435 18.8813 9.04136 19.9435L17.3678 14.6437Z" fill="#10A5B2"/>
</svg>
