<svg width="763" height="585" fill="none" xmlns="http://www.w3.org/2000/svg"><path d="M165.345 561.117a2.958 2.958 0 01-2.859-1.809 2.943 2.943 0 01.719-3.304l.203-.804-.081-.193c-2.718-6.476-20.06 11.577-20.81 17.663a23.44 23.44 0 00.412 8.06 93.913 93.913 0 01-8.553-39.024c-.001-3.38.187-6.758.563-10.117a94.147 94.147 0 011.294-8.203 95.017 95.017 0 0118.862-40.284c5.369.299 10.073-.518 10.528-10.915.081-1.849 1.453-3.45 1.756-5.272a23.8 23.8 0 01-1.546.142l-.488.026-.06.002a2.923 2.923 0 01-2.402-4.761l.664-.816c.337-.42.681-.832 1.017-1.251.039-.04.075-.082.109-.126.387-.479.773-.949 1.16-1.428a8.47 8.47 0 00-2.773-2.678c-3.873-2.267-9.217-.697-12.015 2.804-2.806 3.501-3.335 8.413-2.361 12.787a33.87 33.87 0 004.689 10.445c-.21.269-.429.529-.639.797a95.65 95.65 0 00-9.992 15.819c.794-6.196-8.912-28.571-12.666-33.31-4.508-5.693-13.754-3.208-14.548 4.008l-.023.209c.558.315 1.103.648 1.637 1.001a4 4 0 01-1.614 7.282l-.082.013c-7.463 10.648 16.462 38.362 22.45 32.139a97.614 97.614 0 00-5.259 24.735 92.508 92.508 0 00.067 14.953l-.025-.176c-1.331-10.835-24.158-26.943-30.823-25.602-3.84.773-7.623.598-7.04 4.468l.029.186c1.034.421 2.042.906 3.016 1.452.558.315 1.103.648 1.638 1.001a4 4 0 01-1.615 7.282l-.082.012-.168.026c-3.397 11.68 21.796 30.531 37.112 24.533h.008a97.583 97.583 0 006.562 19.142h23.441c.084-.26.16-.529.236-.789-2.17.136-4.348.007-6.487-.386 1.74-2.133 3.479-4.282 5.218-6.415.039-.039.075-.082.109-.126.882-1.091 1.773-2.174 2.655-3.266l.001-.001a38.952 38.952 0 00-1.144-9.931zm-26.844-52.768l.013-.017-.013.033v-.016zm-5.192 46.773l-.202-.453a18.19 18.19 0 000-.991c0-.092-.017-.184-.017-.277.076.58.143 1.159.227 1.738l-.008-.017z" fill="#CDF3F0"/><path d="M614.641 581.911l-.121-.82a101.132 101.132 0 013.05-43.327 101.178 101.178 0 0120.944-38.058 97.993 97.993 0 0118.535-16.137l.614-.413.361 1.056a5.376 5.376 0 008.971 1.915 5.37 5.37 0 001.456-3.284l.475-6.198.734-.361a19.106 19.106 0 0121.237 2.839 19.409 19.409 0 015.767 21.003c-1.118 3.388-2.183 6.903-3.213 10.304-3.521 11.629-7.161 23.653-13.789 33.662a60.43 60.43 0 01-19.605 18.476 60.47 60.47 0 01-25.692 8.126l-19.724 11.217z" fill="#F2F2F2"/><path d="M391.522 343.676a8.254 8.254 0 007.369 6.866 8.262 8.262 0 003.555-.44l18.753 21.993 4.689-14.518-18.546-18.612a8.312 8.312 0 00-15.82 4.711z" fill="#9E616A"/><path d="M467.137 338.192s9.493-15.755 18.407-11.263c8.914 4.491 2.054 20.074 2.054 20.074l-41.718 48.38s-46.483-38.785-40.305-38.24c6.179.545 9.427-10.4 9.427-10.4l25.045 16.711 1.503-4.637 1.267 1.631 4.112-2.471 20.208-19.785z" fill="#CDF3F0"/><path d="M530.321 43.841a43.628 43.628 0 01-11.679 29.777 37.562 37.562 0 01-1.783 1.803 662.884 662.884 0 00-71.174-47.752c.306-.774.632-1.538.988-2.291a43.85 43.85 0 0120.338-20.825 43.892 43.892 0 0128.906-3.511 43.87 43.87 0 0124.737 15.351 43.816 43.816 0 019.667 27.448z" fill="#FF6584"/><path d="M565.898 133.05l-.041.459c-28.851-1.986-57.698-3.975-86.542-5.968-20.841-1.436-42.405-3.065-60.82-12.923-6.991-3.738-13.798-8.728-21.727-9.074-9.834-.438-18.415 6.436-25.162 13.606-39.877 42.445-51.423 107.346-96.162 144.629A1419.33 1419.33 0 01376.193 62.844c7.174-11.864 15.683-24.533 29.003-28.403 12.708-3.696 25.712 1.701 37.411 8.626a194.711 194.711 0 017.317 4.593 1290.744 1290.744 0 0153.197 36.733 1298.513 1298.513 0 0162.777 48.657z" fill="#F2F2F2"/><path d="M659.206 223.074a683.18 683.18 0 00-106.75-118.406 702.26 702.26 0 00-35.597-29.247 662.884 662.884 0 00-71.174-47.752 628.202 628.202 0 00-24.622-13.554c-6.451-3.35-13.319-6.416-20.759-5.937a27.631 27.631 0 00-14.338 5.51c-9.142 6.67-15.195 17.087-20.178 27.017-4.362 8.707-8.428 17.587-12.576 26.416-1.763 3.758-3.526 7.505-5.35 11.233a1916.27 1916.27 0 01-19.526 38.952 1891.53 1891.53 0 01-26.487 49.544 1900.448 1900.448 0 01-60.361 101.491 1911.037 1911.037 0 01-99.892 141.991c-4.352 5.612-6.145 6.915-10.558 12.486-1.019 1.303-2.833-.53-1.824-1.823 36.8-46.479 68.84-90.391 101.146-140.108a1903.345 1903.345 0 0069.054-114.953 1875.121 1875.121 0 0020.443-37.904 1927.157 1927.157 0 0031.256-62.325 1701.92 1701.92 0 007.867-16.62c8.244-17.648 20.249-43.891 43.434-43.535 6.818.102 13.146 2.862 19.118 5.917 6.084 3.126 12.056 6.446 18.018 9.817a490.846 490.846 0 017.123 4.094 658.992 658.992 0 0127.679 16.996 688.898 688.898 0 0144.29 31.244 706.303 706.303 0 0120.148 16.03 686.175 686.175 0 01111.173 116.409 632.897 632.897 0 0111.465 15.724c.958 1.355-1.274 2.638-2.222 1.293zM554.751 91.707c1.347-1.5 2.686-3.001 4.042-4.502 10.692-11.817 22.165-23.496 36.847-30.27a53.495 53.495 0 0122.398-5.188 63.95 63.95 0 0123.254 5.068c3.502 1.397 6.926 2.984 10.298 4.673 3.853 1.938 7.638 4.005 11.404 6.088a503.497 503.497 0 0120.938 12.246 501.448 501.448 0 0139.826 27.329 486.842 486.842 0 0119.566 15.675 502.83 502.83 0 0117.454 15.426c1.218 1.124 3.037-.694 1.819-1.817a421.412 421.412 0 00-4.539-4.159 496.08 496.08 0 00-13.078-11.405 497.285 497.285 0 00-24.852-19.637 503.394 503.394 0 00-40.983-27.338 500.443 500.443 0 00-21.454-12.125 185.373 185.373 0 00-6.642-3.387 105.894 105.894 0 00-15.789-6.423 56.207 56.207 0 00-23.847-2.34 62.117 62.117 0 00-22.003 7.605c-14.416 8.052-25.597 20.503-36.478 32.654-1.099 1.235.712 3.062 1.819 1.827z" fill="#E4E4E4"/><path d="M259.365 214.157l-51.697-18.895a175.62 175.62 0 00-16.933-5.828 26.743 26.743 0 00-15.327.195 35.33 35.33 0 00-11.955 7.406 97.01 97.01 0 00-9.805 10.463c-3.734 4.485-7.413 9.017-11.109 13.533a6786.043 6786.043 0 00-90.314 112.807 6730.367 6730.367 0 00-49.748 64.308c-.992 1.299-3.229.019-2.223-1.298a6838.507 6838.507 0 0144.684-57.84 6757.597 6757.597 0 0191.449-114.496c3.848-4.713 7.703-9.421 11.564-14.124 3.257-3.966 6.478-7.976 10.05-11.668 6.558-6.777 14.75-12.766 24.557-12.929 5.766-.095 11.346 1.733 16.703 3.67 5.776 2.088 11.537 4.214 17.305 6.323l43.483 15.892c1.544.565.877 3.052-.684 2.481z" fill="#E4E4E4"/><path d="M600.187 71.803c17.555-9.015 40.036-7.25 56.168 4.014a801.605 801.605 0 00-91.145 21.258c12.433-7.28 22.159-18.689 34.977-25.272zm56.341 3.983l3.38 2.745a49.91 49.91 0 00-3.553-2.714l.173-.03zM164.754 214.283c3.401-4.136 7.077-8.467 12.164-10.147l4.748.187A538.39 538.39 0 0138.198 368.224l126.556-153.941z" fill="#F2F2F2"/><path d="M652.503 450.541l-31.968-14.094v-12.116l11.393-.064a8.457 8.457 0 007.98-5.782l8.004-14.937a8.453 8.453 0 00-8.028-11.13l-19.349 6.793v-11.275h24.291a8.467 8.467 0 005.271-1.841 8.455 8.455 0 002.976-4.721l5.512-23.959a8.463 8.463 0 00-1.627-7.162 8.463 8.463 0 00-6.621-3.189h-29.802v-2.819a5.641 5.641 0 00-11.283 0v2.819H409.447v-2.819a5.642 5.642 0 00-11.283 0v2.819h-23.691a8.46 8.46 0 00-8.247 10.351l5.512 23.959a8.465 8.465 0 008.247 6.562h18.179v11.275l-13.238-6.793a8.47 8.47 0 00-6.84 3.477 8.454 8.454 0 00-1.214 7.573l8.169 16.276a8.45 8.45 0 003.091 4.256 8.469 8.469 0 005.011 1.607l5.021-.028v10.868l-25.857 14.094a8.466 8.466 0 00-5.984 2.477 8.451 8.451 0 000 11.959 8.465 8.465 0 005.984 2.476h25.857v109.563a5.638 5.638 0 005.642 5.638 5.638 5.638 0 005.641-5.638V467.454h199.805v110.694a5.635 5.635 0 005.641 5.638 5.644 5.644 0 005.642-5.638V467.454h31.969a8.464 8.464 0 008.462-8.457 8.464 8.464 0 00-8.463-8.456zm-243.056-62.605h199.805v11.275H409.447v-11.275zm0 48.511v-10.931l199.805-1.122v12.053H409.447z" fill="#CCC"/><path d="M484.532 286.852a23.617 23.617 0 016.384-8.616 23.656 23.656 0 019.537-4.91c7.801-2.028 19.224 1.061 25.088 5.496 10.728 8.112 13.346 35.981 5.976 44.788-1.466-.059-6.525-.103-8.009-.145l-2.098-5.308v5.256c-11.581-.272-23.638-.102-35.702.074-1.081-6.235-3.657-30.637-1.176-36.635z" fill="#2F2E41"/><path d="M500.66 316.888c9.24 0 16.73-7.485 16.73-16.718s-7.49-16.718-16.73-16.718-16.73 7.485-16.73 16.718 7.49 16.718 16.73 16.718z" fill="#9E616A"/><path d="M489.164 278.4a21.034 21.034 0 0121.4-.282 21.006 21.006 0 0110.548 18.608c-9.119 2.329-18.838 3.304-29.136.561l-2.355-5.757-1.387 5.762c-3.151 2.214-6.192 2.21-9.123-.012a21.414 21.414 0 012.503-10.782 21.454 21.454 0 017.55-8.098zm45.673 1.66c-1.653-2.534-3.476-5.211-6.283-6.343-2.807-1.132-6.787.222-7.168 3.222-.285 2.243 1.427 4.169 2.716 6.027 1.29 1.858 2.128 4.662.444 6.172l-.948.488a9.47 9.47 0 007.689 3.666 6.82 6.82 0 006.278-5.276c.484-2.833-1.157-5.549-2.728-7.956z" fill="#2F2E41"/><path d="M433.264 561.774l-9.397-2.733 6.074-37.522 13.87 4.033-10.547 36.222z" fill="#9E616A"/><path d="M432.277 580.827l-6.668-1.939.641-6.637-4.88 5.405-17.686-5.142a4.142 4.142 0 01-2.132-1.457 4.133 4.133 0 011.981-6.441l16.961-5.642 1.852-6.36 14.598 5.204-4.667 23.009z" fill="#2F2E41"/><path d="M548.873 558.373l-9.311 3.01-16.051-34.46 13.744-4.442 11.618 35.892z" fill="#9E616A"/><path d="M558.759 574.695l-6.608 2.136-3.197-5.852-1.003 7.21-17.525 5.666a4.136 4.136 0 01-4.656-1.549 4.132 4.132 0 01.094-4.903l10.868-14.183-2.04-6.303 15.005-3.881 9.062 21.659zm-70.641-116.876l-5.749 24.801 43.065 54.673 16.485-8.443c-12.848-28.599-13.98-31.995-27.724-44.331l.141-.212c9.878-14.903 20.55-29.191 21.99-47.008.039-.487-2.168-18.312-2.117-18.797 1.231-11.652-56.318-15.349-56.318-15.349s-9.782 17.229-24.33 30.441l-29.429 29.155.794 80.314 13.848 3.361c10.182-19.384 15.133-42.115 16.555-67.102l25.582-17.148 7.207-4.355z" fill="#2F2E41"/><path d="M530.76 464.162a7.618 7.618 0 01-1.878-6.178 7.628 7.628 0 013.534-5.405l-12.348-61.734 13.19 4.988 10.026 59.636a7.672 7.672 0 01-7.692 11.222 7.674 7.674 0 01-4.832-2.529z" fill="#9E616A"/><path d="M516.07 334.886l8.641-5.85s7.366-.144 7.989 13.149c.622 13.293 1.971 39.206 1.971 39.206l9.712 59.576-17.821 2.964-10.379-64.287-7.213-19.303 7.1-25.455z" fill="#CDF3F0"/><path d="M484.414 369.251l-2.456 6.38.491 6.381 48.059 16.633-2.385-27.922-5.402-6.379-38.307 4.907z" fill="#FFB6B6"/><path d="M469.181 416.112l1.565-15.638a3.112 3.112 0 012.82-2.341c.652-7.449 3.396-39.585 3.559-40.986l.007-.06 1.247-26.628a3.945 3.945 0 011.124-2.575 3.947 3.947 0 012.556-1.17l6.588-.431a.348.348 0 00.337-.348 5.525 5.525 0 011.623-3.915 5.533 5.533 0 013.918-1.622h19.506a5.19 5.19 0 015.145 4.538.346.346 0 00.351.31h.002a9.27 9.27 0 019.323 7.681c2.667 15.505 8.011 50.696 5.369 70.26-.92 6.81 1.063 1.416 1.411 7.115a4.189 4.189 0 01-1.045 3.041 3.024 3.024 0 011.821 3.844l.343-.085a3.12 3.12 0 01-2.58 2.329c-.407.06-.821.039-1.22-.061l-57.128-5.162c-1.677-.422-7.065 3.578-6.642 1.904z" fill="#CDF3F0"/></svg>