<svg width="52" height="54" fill="none" xmlns="http://www.w3.org/2000/svg"><path d="M47.997 40.877a26.15 26.15 0 003.67-18.06A26.101 26.101 0 0042.52 6.83 25.947 25.947 0 0025.121.905 25.958 25.958 0 008.16 7.997a26.144 26.144 0 00-3.17 34.34 25.994 25.994 0 0015.372 10.098 25.927 25.927 0 0018.187-2.62l10.782 2.8a1.728 1.728 0 001.71-.513 1.74 1.74 0 00.352-1.756l-3.397-9.469zm-9.343 7.156a.864.864 0 00-.65.087 24.2 24.2 0 01-17.033 2.644 24.26 24.26 0 01-14.487-9.368A24.4 24.4 0 019.412 9.202 24.227 24.227 0 0125.35 2.618a24.218 24.218 0 0116.275 5.693 24.363 24.363 0 018.402 15.098 24.406 24.406 0 01-3.711 16.886.872.872 0 00-.096.765l3.545 9.877-11.11-2.904z" fill="#99A3AD"/><path d="M25.55 34.244a2.474 2.474 0 00-1.776.661 2.25 2.25 0 00-.694 1.687 2.19 2.19 0 00.685 1.678 2.786 2.786 0 003.58 0 2.21 2.21 0 00.675-1.661 2.256 2.256 0 00-.693-1.687 2.46 2.46 0 00-1.777-.678zm5.322-16.511a7.36 7.36 0 00-5.018-1.565 7.273 7.273 0 00-5.053 1.652 5.894 5.894 0 00-1.889 4.573h4.42a2.77 2.77 0 01.71-1.92 2.39 2.39 0 011.803-.705c1.586 0 2.384.87 2.384 2.608a3.198 3.198 0 01-.46 1.635 9.68 9.68 0 01-1.837 2 6.953 6.953 0 00-1.898 2.503 9.166 9.166 0 00-.52 3.408h3.9l.06-.93a4.22 4.22 0 011.327-2.608L30.04 27.2a9.95 9.95 0 002.028-2.582 5.379 5.379 0 00.58-2.46 5.589 5.589 0 00-1.776-4.426z" fill="#99A3AD"/></svg>