<svg width="24" height="17" fill="none" xmlns="http://www.w3.org/2000/svg"><path d="M16.833 10.225c-1.63 0-2.933.428-3.91.963 1.52 1.284 2.172 2.782 2.28 2.89l.11.213v2.354H24v-2.14c-.109 0-1.846-4.28-7.167-4.28zm0-2.14c2.099 0 3.8-1.677 3.8-3.745 0-2.069-1.701-3.746-3.8-3.746-2.1 0-3.801 1.677-3.801 3.746 0 2.068 1.701 3.745 3.8 3.745zM3.258 4.34c0-2.033 1.737-3.746 3.8-3.746 2.064 0 3.802 1.713 3.802 3.746S9.122 8.085 7.059 8.085c-2.064 0-3.801-1.712-3.801-3.745zm3.8 5.885c-5.32 0-7.058 4.28-7.058 4.28v2.14h14.118v-2.14s-1.738-4.28-7.06-4.28z" fill="#28B0A6"/></svg>