<svg width="45" height="45" fill="none" xmlns="http://www.w3.org/2000/svg"><path d="M0 38a1 1 0 102 0H0zm43 0a1 1 0 102 0h-2zm1-8h1a1 1 0 00-1-1v1zm0 10h-1 1zM1 30v-1a1 1 0 00-1 1h1zm11.944 10h-1 1zM2 38V23.2H0V38h2zm0-14.8C2 11.46 11.208 2 22.5 2V0C10.044 0 0 10.417 0 23.2h2zM22.5 2C33.792 2 43 11.46 43 23.2h2C45 10.417 34.956 0 22.5 0v2zM43 23.2V38h2V23.2h-2zM39.222 43h-2.389v2h2.39v-2zm-2.389 0c-2.255 0-3.777-1.506-3.777-3h-2c0 2.917 2.765 5 5.777 5v-2zm-3.777-3v-6h-2v6h2zm0-6c0-1.494 1.522-3 3.777-3v-2c-3.012 0-5.777 2.083-5.777 5h2zm3.777-3H44v-2h-7.167v2zM43 30v10h2V30h-2zm0 10c0 1.494-1.52 3-3.778 3v2c3.014 0 5.78-2.083 5.778-5.001h-2zM8.167 43h-2.39v2h2.39v-2zm-2.39 0C3.523 43 2 41.494 2 40H0c0 2.917 2.765 5 5.778 5v-2zM2 40V30H0v10h2zm-1-9h7.167v-2H1v2zm7.167 0c2.255 0 3.777 1.506 3.777 3h2c0-2.917-2.765-5-5.777-5v2zm3.777 3v6h2v-6h-2zm0 6c.001 1.494-1.52 3-3.777 3v2c3.013 0 5.779-2.083 5.777-5.001h-2z" fill="#28B0A6"/></svg>