<svg xmlns="http://www.w3.org/2000/svg" width="88" height="88"><g fill="none" stroke="#fff" stroke-width="2"><circle cx="44" cy="44" r="44" stroke="none"/><circle cx="44" cy="44" r="43"/></g><g transform="translate(27 24)" fill="#fff"><path d="M3.05 36.747h1.621a3.055 3.055 0 002.953 2.287h5.718a.762.762 0 000-1.525h-2.669V33.7a6.1 6.1 0 0112.2 0v3.812H20.2a.762.762 0 100 1.525h5.718a3.055 3.055 0 002.953-2.287H30.5a3.053 3.053 0 003.05-3.05v-5.034a5.344 5.344 0 00-4.574-5.281V12.864a3.055 3.055 0 002.287-2.953V7.624a3.053 3.053 0 00-3.05-3.05h-6.1V3.05A3.053 3.053 0 0019.06 0h-4.575a3.053 3.053 0 00-3.05 3.05v1.524h-6.1a3.053 3.053 0 00-3.05 3.05v2.287a3.055 3.055 0 002.287 2.953v10.52A5.344 5.344 0 000 28.666V33.7a3.053 3.053 0 003.05 3.047zM6.1 12.96h21.346v1.982a3.816 3.816 0 01-3.812 3.812h-3.812V17.23a.762.762 0 00-.762-.762h-4.575a.762.762 0 00-.762.762v1.525H9.911A3.816 3.816 0 016.1 14.943zM22.871 6.1v5.337h-12.2V6.1zM18.3 19.517a1.525 1.525 0 11-3.05 0v-1.525h3.05zm-1.525 6.556a7.617 7.617 0 00-6.1 3.055v-8.849h3.146a3.05 3.05 0 005.906 0h3.146v8.842a7.6 7.6 0 00-6.101-3.048zm15.245 2.593V33.7a1.526 1.526 0 01-1.52 1.522h-1.53V24.93a3.818 3.818 0 013.05 3.735zm-4.574 7.319a1.526 1.526 0 01-1.525 1.525H24.4V20.224a5.326 5.326 0 003.05-1.552zm2.287-28.361v2.287a1.526 1.526 0 01-1.525 1.525H24.4V6.1h3.812a1.526 1.526 0 011.521 1.524zM12.96 3.05a1.526 1.526 0 011.525-1.525h4.575a1.526 1.526 0 011.524 1.525v1.524H12.96zM3.812 9.911V7.624A1.526 1.526 0 015.337 6.1h3.812v5.337H5.337a1.526 1.526 0 01-1.525-1.526zm5.337 10.313v17.285H7.624A1.526 1.526 0 016.1 35.984V18.672a5.326 5.326 0 003.05 1.552zm-7.624 8.442a3.818 3.818 0 013.05-3.735v10.291H3.05A1.526 1.526 0 011.525 33.7z"/><path d="M19.823 31.41a.762.762 0 00-.762-.762h-4.574a.762.762 0 100 1.525h4.574a.762.762 0 00.762-.763z"/><circle cx=".396" cy=".396" r=".396" transform="translate(16.322 37.739)"/></g></svg>