<svg xmlns="http://www.w3.org/2000/svg" width="56" height="56"><g transform="translate(-31 1)"><path d="M40.219 50.836h2.243A4.226 4.226 0 0046.547 54h7.91a1.055 1.055 0 100-2.109h-3.691v-5.274a8.438 8.438 0 0116.875 0v5.273h-3.692a1.055 1.055 0 100 2.109h7.91a4.226 4.226 0 004.085-3.164h2.243a4.224 4.224 0 004.219-4.219v-6.96a7.393 7.393 0 00-6.328-7.306V17.8a4.226 4.226 0 003.164-4.085v-3.168a4.224 4.224 0 00-4.219-4.219h-8.437V4.219A4.224 4.224 0 0062.367 0h-6.328a4.224 4.224 0 00-4.219 4.219v2.109h-8.437a4.224 4.224 0 00-4.219 4.219v3.164a4.226 4.226 0 003.164 4.089v14.55A7.393 7.393 0 0036 39.656v6.961a4.224 4.224 0 004.219 4.219zm4.219-32.906h29.531v2.742a5.279 5.279 0 01-5.269 5.273h-5.278v-2.109a1.055 1.055 0 00-1.055-1.055h-6.328a1.055 1.055 0 00-1.055 1.055v2.109h-5.273a5.279 5.279 0 01-5.273-5.273zm23.2-9.492v7.382H50.766V8.438zM61.312 27a2.109 2.109 0 11-4.219 0v-2.109h4.219zM59.2 36.07a10.537 10.537 0 00-8.434 4.23V28.055h4.352a4.219 4.219 0 008.17 0h4.352v12.231a10.507 10.507 0 00-8.44-4.216zm21.1 3.586v6.961a2.112 2.112 0 01-2.109 2.109h-2.113V34.489a5.282 5.282 0 014.222 5.167zm-6.331 10.125a2.112 2.112 0 01-2.109 2.109h-2.11V27.978a7.369 7.369 0 004.219-2.146zm3.164-39.234v3.164a2.112 2.112 0 01-2.109 2.109H69.75V8.438h5.273a2.112 2.112 0 012.11 2.109zM53.93 4.219a2.112 2.112 0 012.109-2.109h6.328a2.112 2.112 0 012.109 2.109v2.109H53.93zm-12.657 9.492v-3.164a2.112 2.112 0 012.109-2.109h5.273v7.382h-5.272a2.112 2.112 0 01-2.11-2.109zm7.383 14.267v23.913h-2.109a2.112 2.112 0 01-2.109-2.109v-23.95a7.368 7.368 0 004.219 2.146zM38.109 39.656a5.282 5.282 0 014.219-5.167v14.238h-2.109a2.112 2.112 0 01-2.109-2.109z" class="prefix__cls-2"/><path d="M63.615 43.419a1.1 1.1 0 00-1.1-1.1h-6.624a1.103 1.103 0 100 2.206h6.618a1.1 1.1 0 001.106-1.106z" class="prefix__cls-2"/><ellipse cx=".5" cy="1" class="prefix__cls-2" rx=".5" ry="1" transform="translate(58.637 51.77)"/></g></svg>