<svg width="81" height="66" fill="none" xmlns="http://www.w3.org/2000/svg"><path d="M16.13 56.675c1.899-4.297 3.32-8.75 4.737-13.225a137.07 137.07 0 012.502-7.247c.66-1.741 7.758 2.717 8.947 3.372 2 1.1 3.55 1.37 3.796 3.75.15 1.448.234 2.903.325 4.355.112 1.818.955 5.647.263 7.294-.308.73.76 1.365 1.07.628.418-.995.144-2.424.114-3.463a142.184 142.184 0 00-.532-8.814c-.183-2.01-.043-2.502-1.881-3.45-3.971-2.051-7.746-4.318-11.964-5.843-.345-.125-.643.14-.763.435-2.878 7.085-4.591 14.578-7.685 21.58-.32.727.748 1.36 1.071.628z" fill="#000"/><path d="M24.255 34.588c1.544-3.748 3.503-7.326 4.978-11.099 1.505-3.85 2.046-8.092 4.116-11.7.193-.336.026-.818-.374-.91-4.757-1.086-8.476-4.863-3.388-8.484 1.216-.866 2.71-1.16 4.173-1.178a5.776 5.776 0 012.841.913l.674 6.446c-1.447 1.273-3.115 1.945-5.005 2.014-.796.07-.803 1.309 0 1.239 4.592-.405 9.746-4.107 6.927-8.985-2.159-3.736-8.08-3.5-10.99-.979-2.994 2.595-3.411 6.076-.114 8.552.394.296 3.798 1.405 3.452 2.009-1.02 1.778-1.419 3.988-1.914 5.939-1.412 5.565-4.404 10.605-6.582 15.893-.304.74.905 1.059 1.206.33z" fill="#000"/><path d="M29.425 20.27c4.696 1.657 2.565 7.813 8.385 7.73 4.738-.07 9.722-2.895 13.876-5.038.712-.367.087-1.47-.622-1.104C46.91 24 42.483 26.232 37.81 26.72c-4.239.443-4.239-6.337-8.057-7.683-.755-.266-1.076.97-.328 1.234z" fill="#000"/><path d="M30.607 18.999c7.895-.477 14.076.052 19.27-7.064.49-.672-.605-1.32-1.088-.658-4.844 6.637-10.957 5.982-18.182 6.418-.807.05-.812 1.353 0 1.304zM53.704 4.605c-.247 16.51-6.46 32.274-6.704 48.79-.011.808 1.285.806 1.296 0C48.54 36.881 54.753 21.117 55 4.605c.012-.808-1.284-.806-1.296 0z" fill="#000"/><path d="M7.542 61.17c8.545-1.173 16.566-4.477 25.046-5.956 8.574-1.495 15.955-3.29 23.65-7.531 1.901-1.047.705 5.455 3.556 4.769 2.593-.624 4.992-2.296 7.376-3.424 2.65-1.253 5.46-2.222 8.175-3.329 2.204-.897 2.492-1.29 2.492 1.251 0 3.013-.029 5.853.512 8.814.956 5.23-1.327 5.97-6.05 5.983-5.447.015-10.829-1.385-16.269-1.267-9.883.213-19.765 2.21-29.558 3.384a132.5 132.5 0 01-14.798.966c-2.465.019-4.923-.153-7.378-.37-1.81-1.56-1.57-2.446.724-2.656a81.519 81.519 0 012.522-.635c.785-.19.452-1.395-.333-1.204-3.15.767-5.485 1.41-7.132 4.325-.18.317-.04.857.375.917 10.566 1.54 21.048.596 31.575-.792 9.547-1.26 19.392-3.362 29.05-2.374 5.353.546 12.272 2.33 17.401-.016 1.573-.72 1.566-2.339 1.502-3.822-.21-4.884-.886-9.643-.886-14.593 0-.504-.525-.738-.944-.54-4.837 2.288-9.928 3.944-14.69 6.397-.748.384-3.924 2.686-4.384.965-.384-1.435-.633-2.875-1.09-4.297-.122-.383-.56-.583-.92-.374-7.951 4.592-15.755 7.005-24.811 8.247-8.525 1.17-16.5 4.784-25.045 5.956-.8.111-.458 1.314.332 1.205zM68.386 5.425c-2.905-1.825-5.113 2.667-5.363 5.12-.264 2.577 1.803 4.864 4.211 4.393 2.116-.413 3.916-2.592 4.565-4.673.82-2.632-.985-4.455-3.295-4.907-.774-.15-1.104 1.105-.326 1.257 1.627.317 2.94 1.224 2.482 3.143-.368 1.543-1.577 2.88-2.876 3.6-1.546.859-2.824.057-3.422-1.572-.616-1.676 1.258-6.586 3.405-5.237.682.43 1.3-.698.62-1.124zm-.153-2.638l1.554-1.554c.659-.658-.361-1.678-1.02-1.02l-1.554 1.554c-.658.66.36 1.678 1.02 1.02zM73.586 7c.62-.03 1.207-.333 1.828-.356.78-.026.782-1.67 0-1.644-.623.021-1.213.325-1.828.355-.78.039-.783 1.682 0 1.644zm1.116 7.075c.441.026.756.405.942.659.45.608 1.71.066 1.261-.542a2.89 2.89 0 00-2.203-1.19c-.94-.056-.932 1.018 0 1.073zm-4.84 5.195a5.91 5.91 0 01-1.591 1.592c-.635.431-.037 1.469.604 1.033a7.444 7.444 0 002.02-2.02c.436-.64-.603-1.24-1.033-.604zm-8.599-1.247c-.444.1-.902.192-1.347.043-.697-.232-1.306.515-.605.75.758.253 1.483.223 2.27.043.736-.168.421-1.006-.318-.837zm-.421-6.94l-.925-.925c-.49-.49-1.248.269-.759.759l.925.925c.489.49 1.249-.269.759-.759zm-.097-6.282c.34-.539.34-1.064 0-1.602-.37-.587-1 .256-.634.838v-.072c-.367.58.263 1.423.634.836zm-2.749 29.968c2.275-3.033 3.591-6.618 5.58-9.835H62.53c2.425 3.606 4.89 7.181 7.315 10.787.442.658 1.494.033 1.046-.632-2.424-3.606-4.89-7.182-7.315-10.787-.261-.39-.789-.416-1.046 0-1.931 3.12-3.185 6.64-5.392 9.581-.472.63.38 1.523.858.886z" fill="#000"/><path d="M67.884 32.29c2.464-1.747 4.54-3.845 6.41-6.234h-.859c2.587 2.198 4.367 5.159 6.55 7.74.512.606 1.368-.274.86-.876-2.182-2.579-3.963-5.542-6.55-7.74-.232-.197-.64-.28-.86 0-1.805 2.305-3.782 4.35-6.164 6.042-.638.453-.031 1.527.613 1.069zM25.69 29.834c-1.425-.661-2.876-1.289-4.116-2.305-2.152-1.765-1.324-4.844-.74-7.187.549-2.21.967-5.007 3.287-5.87 1.859-.691 4.292.623 6.303.357.764-.1.772-1.383 0-1.28-2.282.3-5.227-1.363-7.4-.013-2.204 1.37-2.74 4.01-3.357 6.466-.594 2.369-1.088 4.604-.119 6.919.904 2.158 3.68 3.16 5.532 4.019.706.328 1.323-.776.61-1.106z" fill="#000"/></svg>