<svg width="40" height="40" fill="none" xmlns="http://www.w3.org/2000/svg"><path d="M4.287 20.001L4.285 20l.001.001z" fill="#28B0A6"/><path d="M6.33 15.766l7.949-1.14a.527.527 0 00.4-.29l3.56-7.18.001-.003a1.931 1.931 0 011.763-1.097c.354 0 .708.092 1.017.274.309.183.575.453.763.828l-.002-.003 3.54 7.181a.53.53 0 00.4.29l7.948 1.14c.536.079.95.335 1.244.691.292.356.456.814.455 1.271-.002.494-.18.98-.594 1.383l-2.212 2.14a.527.527 0 00-.01.748.53.53 0 00.749.01l2.211-2.14a2.955 2.955 0 00.916-2.14c0-.705-.245-1.393-.695-1.94a3.004 3.004 0 00-1.912-1.067l-7.672-1.101-3.416-6.932-.002-.003a3.035 3.035 0 00-1.171-1.264A3.067 3.067 0 0020.003 5a2.99 2.99 0 00-2.715 1.69l.001-.002-3.437 6.932-7.672 1.101c-.8.114-1.464.519-1.912 1.067a3.062 3.062 0 00-.697 1.94 2.957 2.957 0 00.916 2.14l5.565 5.403-1.31 7.623a2.958 2.958 0 00.863 2.674c.554.534 1.305.86 2.11.86.471 0 .958-.113 1.418-.356h.002l8.194-4.29a.527.527 0 00.222-.712.53.53 0 00-.715-.222l-8.193 4.289h-.001a1.976 1.976 0 01-.925.235 1.984 1.984 0 01-1.372-.562 1.903 1.903 0 01-.558-1.732v-.004l1.357-7.898a.53.53 0 00-.152-.468l-5.766-5.597v-.001a1.897 1.897 0 01-.595-1.382c0-.458.163-.915.455-1.271a1.943 1.943 0 011.245-.69zm2.413 17.131v-.004.004zm27.156-2.805h-4.77V25.34a.53.53 0 00-1.06 0v4.752h-4.768a.53.53 0 100 1.056h4.769V35.9a.53.53 0 001.06 0v-4.752h4.769a.53.53 0 100-1.056z" fill="#28B0A6"/></svg>