<svg width="40" height="40" fill="none" xmlns="http://www.w3.org/2000/svg"><g clip-path="url(#a)" fill="#28B0A6"><path d="M27.714 33.571h-14c-1.654 0-3-1.324-3-2.952V16.841c0-1.49.792-3.477 1.802-4.523l1.665-1.725a.506.506 0 01.706-.017c.2.187.209.499.018.695l-1.664 1.725c-.828.857-1.527 2.618-1.527 3.845v13.778c0 1.085.897 1.968 2 1.968h14c1.103 0 2-.883 2-1.968V16.841c0-1.227-.725-3.016-1.584-3.906l-6.056-6.273c-.416-.43-.953-.677-1.476-.677a1.31 1.31 0 00-.963.387l-1.442 1.493a.506.506 0 01-.707.018.487.487 0 01-.018-.696l1.442-1.494A2.316 2.316 0 0120.598 5c.796 0 1.597.359 2.2.984l6.057 6.274c1.043 1.08 1.86 3.093 1.86 4.583v13.778c0 1.628-1.346 2.952-3 2.952z"/><path d="M20.714 12.68a2.468 2.468 0 01-2.464-2.466 2.468 2.468 0 012.464-2.464 2.468 2.468 0 012.465 2.464 2.468 2.468 0 01-2.465 2.465zm0-3.644a1.18 1.18 0 000 2.357 1.18 1.18 0 000-2.357z"/><path d="M19.277 9.75a.642.642 0 01-.417-.154L8.083.418a.643.643 0 01.834-.979l10.777 9.178a.643.643 0 01-.417 1.133zm1.437 20.393a2.574 2.574 0 01-2.571-2.572.643.643 0 111.285 0 1.287 1.287 0 002.571 0c0-.709-.576-1.285-1.285-1.285a2.574 2.574 0 01-2.571-2.572 2.574 2.574 0 012.571-2.571 2.574 2.574 0 012.571 2.571.643.643 0 11-1.285 0 1.287 1.287 0 00-2.571 0c0 .71.576 1.286 1.285 1.286a2.574 2.574 0 012.571 2.572 2.574 2.574 0 01-2.571 2.57z"/><path d="M20.714 32.072a.637.637 0 01-.643-.633V19.847c0-.35.288-.633.643-.633.356 0 .643.284.643.633v11.592c0 .35-.287.633-.643.633z"/></g><defs><clipPath id="a"><path fill="#fff" d="M0 0h40v40H0z"/></clipPath></defs></svg>