<svg width="40" height="40" fill="none" xmlns="http://www.w3.org/2000/svg"><g clip-path="url(#a)" fill="#28B0A6"><path d="M36.777 28.279c-.802.645-1.815 1.033-2.89 1.115v-1.306c1.155-.1 2.209-.599 2.94-1.407a3.966 3.966 0 001-3.164l-.471-5.276c-.292-2.459-2.663-4.46-5.286-4.46h-4.134V12.48h7.295a.657.657 0 00.661-.651.657.657 0 00-.661-.651H19.359a.657.657 0 00-.661.65c0 .36.296.652.661.652h7.254v1.303H7.29l-1.2-4.72a.66.66 0 00-.641-.493H2.804a.657.657 0 00-.66.652v7.815c0 .336.259.617.599.648L18.16 19.11l.353 4.54c.273 2.304 2.373 4.205 4.794 4.436v1.29a6.112 6.112 0 01-2.937-1.017.667.667 0 00-.919.17.645.645 0 00.173.906 7.455 7.455 0 004.175 1.28h9.66c1.535 0 3.011-.507 4.155-1.428a.645.645 0 00.094-.916.67.67 0 00-.93-.092zm-4.212-.17v1.303H24.63v-1.303h7.936zM19.83 23.525l-.393-5.062a.655.655 0 00-.598-.599l-15.373-1.42v-6.57h1.467l1.198 4.717c.073.29.338.493.641.493H32.07c1.94 0 3.76 1.515 3.97 3.29l.471 5.277a2.704 2.704 0 01-.673 2.165c-.577.638-1.422.99-2.379.99H23.8c-1.94 0-3.76-1.514-3.969-3.281z"/><path d="M29.236 21.429h4.306c.45 0 .849-.155 1.124-.435.256-.26.37-.611.324-.968l-.208-2.159c-.102-.793-.937-1.438-1.86-1.438h-5.1a.71.71 0 00-.498.199.595.595 0 00-.179.471l.235 2.915c.115.78.947 1.415 1.856 1.415zm3.687-3.75c.254 0 .495.206.51.317l.227 2.16c-.006.005-.042.023-.118.023h-4.306c-.256 0-.492-.202-.507-.295l-.177-2.205h4.37zM25 18.572h1.429a.715.715 0 000-1.43H25a.715.715 0 000 1.43zm-2.143-1.429H21.43a.715.715 0 000 1.428h1.428a.715.715 0 000-1.428z"/></g><defs><clipPath id="a"><path fill="#fff" d="M0 0h40v40H0z"/></clipPath></defs></svg>