<svg width="40" height="40" fill="none" xmlns="http://www.w3.org/2000/svg"><g clip-path="url(#a)" fill="#28B0A6"><path d="M13.964 11.923c-.404.401-1.01.502-1.413.2-.504-.4-.504-1.003-.201-1.404C15.275 7.107 19.613 5 24.153 5c8.374 0 15.133 6.722 15.133 15.05 0 8.228-6.76 14.95-15.133 14.95-4.54 0-8.878-2.107-11.803-5.72-.303-.4-.303-1.002.201-1.404.404-.3 1.01-.2 1.413.2 2.522 3.111 6.255 4.917 10.19 4.917 7.263 0 13.114-5.82 13.114-12.943 0-7.224-5.851-13.043-13.115-13.043-3.934 0-7.667 1.806-10.19 4.916z"/><path d="M23.571 12.449c0-.51.42-1.02 1.048-1.02.524 0 1.047.51 1.047 1.02v6.939h4.715c.524 0 1.047.408 1.047 1.02 0 .51-.523 1.02-1.047 1.02l-5.762-.102c-.524 0-1.048-.408-1.048-.918V12.45zm-19.715 3.98c-.6 0-.999-.536-.999-1.072 0-.643.4-1.071.999-1.071h7.289c.499 0 .998.428.998 1.071 0 .536-.5 1.072-.998 1.072h-7.29zm-2.139 5c-.602 0-1.003-.536-1.003-1.072 0-.643.401-1.071 1.003-1.071h9.423c.502 0 1.003.428 1.003 1.071 0 .536-.501 1.072-1.003 1.072H1.717zm2.139 4.285c-.6 0-.999-.428-.999-1.071 0-.536.4-1.072.999-1.072h7.289c.499 0 .998.536.998 1.072 0 .643-.5 1.071-.998 1.071h-7.29z"/></g><defs><clipPath id="a"><path fill="#fff" d="M0 0h40v40H0z"/></clipPath></defs></svg>