<svg width="24" height="24" fill="none" xmlns="http://www.w3.org/2000/svg"><path d="M17.53 13.953a.921.921 0 00-.272.817l.756 4.143a.906.906 0 01-.383.91.943.943 0 01-.994.067l-3.764-1.946a.968.968 0 00-.425-.11h-.23a.696.696 0 00-.23.076l-3.765 1.954c-.186.093-.397.126-.603.093a.937.937 0 01-.757-1.07l.757-4.143a.937.937 0 00-.272-.825L4.28 10.972a.903.903 0 01-.23-.951.952.952 0 01.756-.632l4.224-.607a.945.945 0 00.748-.513l1.861-3.78a.878.878 0 01.17-.228l.077-.059a.572.572 0 01.137-.11l.093-.033L12.26 4h.358c.32.033.6.222.748.505l1.886 3.764c.136.276.4.467.705.513l4.224.607a.96.96 0 01.773.632.909.909 0 01-.246.951l-3.179 2.981z" fill="#F5A623"/></svg>