<svg width="56" height="56" fill="none" xmlns="http://www.w3.org/2000/svg"><path d="M49.018 49.928h-5.962V36.511l4.058-3.178c.424-.342.765-.773.997-1.26a3.557 3.557 0 00.349-1.557c.01-.63-.151-1.25-.468-1.799a3.576 3.576 0 00-1.335-1.32 3.2 3.2 0 00-3.465.243l-13.494 9.947H7.826a3.703 3.703 0 00-2.546 1.14 3.545 3.545 0 00-.982 2.566c-.016.787.226 1.56.692 2.203a3.755 3.755 0 001.896 1.367v5.065H3.982a1.07 1.07 0 00-.699.33 1.027 1.027 0 000 1.412c.182.193.432.31.699.33h45.036a1.07 1.07 0 00.699-.33 1.027 1.027 0 000-1.412 1.071 1.071 0 00-.699-.33zM6.271 41.292a1.563 1.563 0 01.433-1.13 1.633 1.633 0 011.122-.503h1.512v1.567a.99.99 0 00.275.717c.184.194.44.309.712.319.27-.01.527-.125.712-.319a.99.99 0 00.274-.717v-1.567h5.625v1.567a.949.949 0 00.265.723.988.988 0 00.72.305 1.006 1.006 0 00.722-.305.965.965 0 00.265-.723v-1.567h5.625v1.567a.947.947 0 00.265.723.988.988 0 00.721.305 1.005 1.005 0 00.721-.305.963.963 0 00.266-.723v-1.567h3.449c.246 0 .486-.08.683-.226l3.074-2.266.855 1.08a.974.974 0 00.76.374.954.954 0 00.629-.238 1.072 1.072 0 00.13-1.458l-.754-.953 3.865-2.85.883 1.117a.974.974 0 00.76.374.954.954 0 00.63-.238 1.072 1.072 0 00.13-1.458l-.783-.99 3.516-2.593a1.29 1.29 0 011.422-.098c.23.128.42.314.55.539.13.225.196.48.19.738a1.46 1.46 0 01-.143.639 1.47 1.47 0 01-.41.517L32.08 42.524a1.878 1.878 0 01-1.151.4H7.828a1.633 1.633 0 01-1.124-.501 1.563 1.563 0 01-.433-1.132v.002zm34.813 8.636H8.858v-4.931h22.07a3.8 3.8 0 002.33-.812l7.825-6.129v11.872z" fill="#28B0A6"/><path d="M51.57 11.815a15.243 15.243 0 00-5.913-6.59 15.367 15.367 0 00-16.986.7 15.223 15.223 0 00-5.346 7.053l-.26.708a1.041 1.041 0 00.625 1.342l12.52 4.563-3.648 9.769a1.04 1.04 0 00.265 1.139 1.053 1.053 0 001.161.184 1.052 1.052 0 00.547-.594l3.652-9.778 12.26 4.47a1.058 1.058 0 001.35-.623l.261-.707a15.036 15.036 0 00-.487-11.636zm-26.168 1.61a13.153 13.153 0 015.236-6.302 13.268 13.268 0 017.97-2.003 16.62 16.62 0 00-6.255 5.541 22.3 22.3 0 00-2.383 4.425l-4.568-1.662zm19.177 2.193a20.254 20.254 0 01-.947 4.45l-11.686-4.26a20.303 20.303 0 012.167-4.003 13.381 13.381 0 018.053-5.74 13.252 13.252 0 012.42 9.554h-.007zm5.594 6.834l-4.56-1.661a22.254 22.254 0 001.058-4.909 16.484 16.484 0 00-1.169-8.243 13.147 13.147 0 014.772 6.647 13.08 13.08 0 01-.097 8.166h-.004zm-15.844 9.294a1.06 1.06 0 00-.06-.199 1.105 1.105 0 00-.573-.57 1.052 1.052 0 00-1.38 1.373.96.96 0 00.1.18c.077.115.175.214.29.29a1.05 1.05 0 00.382.16 1.048 1.048 0 00.61-.06 1.08 1.08 0 00.63-.766 1.055 1.055 0 000-.41v.002z" fill="#28B0A6"/></svg>