<svg width="16" height="16" fill="none" xmlns="http://www.w3.org/2000/svg"><path d="M10.667 12.667v-8A.691.691 0 0010.001 4a.691.691 0 00-.667.667v8a.69.69 0 00.667.666.691.691 0 00.666-.666zm-3.333 0v-8A.691.691 0 006.667 4a.691.691 0 00-.666.667v8a.69.69 0 00.666.666.691.691 0 00.667-.666zm6-8.667a.691.691 0 00-.667.667V14c0 .255-.408.667-.666.667H4.667c-.259 0-.666-.412-.666-.667V4.667A.691.691 0 003.334 4a.691.691 0 00-.667.667V14c0 .95 1.038 2 2 2h7.334c.961 0 2-1.05 2-2V4.667A.691.691 0 0013.334 4zm1.333-2h-2.666V.667A.691.691 0 0011.334 0h-6a.691.691 0 00-.667.667V2H2.001a.691.691 0 00-.667.667c0 .347.314.666.667.666h12.666a.691.691 0 00.667-.666.691.691 0 00-.667-.667zm-4 0H6.001v-.667h4.666V2z" fill="#28B0A6"/></svg>