<svg width="16" height="16" fill="none" xmlns="http://www.w3.org/2000/svg"><path d="M16 13.906v-3.718a.42.42 0 00-.84 0v3.718a1.26 1.26 0 01-1.262 1.256H2.102a1.26 1.26 0 01-1.261-1.256V2.995a1.26 1.26 0 011.261-1.256h3.733a.42.42 0 100-.838H2.102A2.1 2.1 0 000 2.995v10.911A2.1 2.1 0 002.102 16h11.796A2.1 2.1 0 0016 13.906z" fill="#28B0A6"/><path d="M12.705 1.418L6.576 7.546l1.977 1.977 6.128-6.129-1.976-1.976zm-7.071 9.173l2.028-.624-1.466-1.629-.562 2.254zM15.695.793l-.488-.488A1.033 1.033 0 0014.472 0a1.03 1.03 0 00-.735.305l-.441.44 1.958 1.96.441-.442A1.03 1.03 0 0016 1.528a1.03 1.03 0 00-.305-.735z" fill="#28B0A6"/></svg>