<svg width="40" height="40" fill="none" xmlns="http://www.w3.org/2000/svg"><path d="M34.214 20a14.327 14.327 0 01-2.633 8.255 14.191 14.191 0 01-6.653 5.088 14.36 14.36 0 01-8.806.337c-2.783-.788-5.258-2.431-7.103-4.645-3.81-4.578-4.26-11.302-1.193-16.39 3.06-5.073 9.151-7.782 14.964-6.604 5.798 1.178 10.329 5.921 11.259 11.76.12.735.165 1.47.165 2.199 0 .968 1.5.968 1.5 0-.007-3.242-1.005-6.454-2.895-9.096a15.952 15.952 0 00-7.494-5.703C19.19 2.964 12.042 4.93 7.902 9.974a15.821 15.821 0 00-3.57 8.87 15.722 15.722 0 002.197 9.26c1.628 2.695 4.073 4.901 6.946 6.2a15.944 15.944 0 009.714 1.095c6.293-1.276 11.349-6.559 12.324-12.908.127-.825.195-1.65.202-2.484.008-.975-1.492-.975-1.5-.007z" fill="#28B0A6"/><path d="M13.303 14.354l4.186 4.185 6.636 6.636 1.521 1.521c.676.675 1.73-.371 1.047-1.046l-4.187-4.186-6.635-6.635-1.522-1.522c-.668-.683-1.722.371-1.046 1.046z" fill="#28B0A6"/><path d="M14.353 26.697l4.186-4.186 6.635-6.636 1.522-1.521c.675-.676-.371-1.73-1.047-1.047l-4.186 4.186-6.635 6.636-1.521 1.521c-.683.668.37 1.722 1.046 1.047z" fill="#28B0A6"/></svg>