<svg width="670" height="508" fill="none" xmlns="http://www.w3.org/2000/svg"><path d="M212.333 455.918l14.578 13.759a3.85 3.85 0 011.203 2.788v21.919a3.833 3.833 0 01-3.468 3.814l-28.691 2.789-15.817-14.932a3.812 3.812 0 01-1.21-2.789v-22.051a3.834 3.834 0 013.482-3.822l26.935-2.501a3.847 3.847 0 012.988 1.026z" fill="#2F004F"/><path d="M213.86 452.096l17.109 16.149a4.507 4.507 0 011.409 3.276v25.718a4.498 4.498 0 01-4.065 4.478l-33.671 3.276-18.569-17.529a4.495 4.495 0 01-1.409-3.276v-25.88a4.498 4.498 0 014.087-4.478l31.605-2.951a4.483 4.483 0 013.504 1.217zm-89.865-142.887v22.044a3.85 3.85 0 001.203 2.789l15.832 14.932 28.706-2.789a3.695 3.695 0 002.213-1.003c-4.744-.576-8.735-2.782-9.96-5.165-1.881-3.688-1.379-10.122 6.64-11.243a33.629 33.629 0 004.596-.944v-7.385a3.803 3.803 0 00-1.202-2.781l-14.571-13.774a3.937 3.937 0 00-1.369-.817 3.918 3.918 0 00-1.582-.201l-26.935 2.508a3.831 3.831 0 00-3.571 3.829z" fill="#2F004F"/><path d="M119.724 306.302v25.873a4.527 4.527 0 001.423 3.29l18.555 17.515 33.671-3.269a4.496 4.496 0 004.065-4.485v-.103a18.868 18.868 0 01-5.534.059c-4.743-.576-8.735-2.782-9.959-5.165-1.881-3.688-1.38-10.122 6.64-11.243a33.66 33.66 0 004.596-.944c3.6-1.099 3.821-2.302 3.821-2.302l.443.28v-6.27a4.434 4.434 0 00-1.402-3.269l-17.116-16.156a4.525 4.525 0 00-3.504-1.218l-31.605 2.951a4.524 4.524 0 00-4.094 4.456zm-1.063 69.695l17.227 16.231a4.546 4.546 0 011.424 3.298v25.902a4.534 4.534 0 01-4.095 4.515l-33.936 3.298-18.702-17.647a4.54 4.54 0 01-1.424-3.298v-26.043a4.532 4.532 0 014.117-4.515l31.826-2.951a4.533 4.533 0 013.563 1.21z" fill="#2F004F"/><path d="M120.469 371.482l20.221 19.086a5.325 5.325 0 011.668 3.866v30.395a5.325 5.325 0 01-4.81 5.297l-39.795 3.866-21.94-20.716a5.289 5.289 0 01-1.668-3.866v-30.587a5.317 5.317 0 014.848-5.26l37.352-3.475a5.346 5.346 0 014.124 1.394z" fill="#2F004F"/><path d="M71.962 391.815l17.927 16.924a4.714 4.714 0 011.476 3.43v26.95a4.722 4.722 0 01-4.265 4.7l-35.286 3.43-19.455-18.355a4.725 4.725 0 01-1.475-3.431v-27.141a4.727 4.727 0 014.286-4.7l33.118-3.091a4.689 4.689 0 013.674 1.284z" fill="#2F004F"/><path d="M73.828 387.115l21.04 19.86a5.539 5.539 0 011.735 4.028v31.635a5.527 5.527 0 01-4.995 5.504L50.22 452.17l-22.87-21.557a5.544 5.544 0 01-1.734-4.028v-31.834a5.54 5.54 0 015.024-5.511l38.873-3.615a5.555 5.555 0 014.316 1.49z" fill="#2F004F"/><path d="M123.737 411.372l25.135 23.726a6.598 6.598 0 012.073 4.81v37.788a6.642 6.642 0 01-5.968 6.581l-49.474 4.81-27.296-25.755a6.635 6.635 0 01-2.073-4.81v-38.024a6.64 6.64 0 016.005-6.58l46.434-4.324a6.644 6.644 0 015.164 1.778z" fill="#2F004F"/><path d="M126.371 404.784l29.51 27.843a7.752 7.752 0 011.799 2.571 7.75 7.75 0 01.635 3.073v44.346a7.75 7.75 0 01-7.008 7.724l-58.054 5.644-32.018-30.248a7.753 7.753 0 01-2.435-5.644v-44.597a7.75 7.75 0 017.038-7.724l54.468-5.068a7.75 7.75 0 016.065 2.08z" fill="#2F004F"/><path d="M301.055 86.203c-20.657-15.67-51.945-29.74-93.805-22.443" stroke="#6938EF" stroke-width="4.59" stroke-miterlimit="10"/><path d="M290.564 98.45c-18.385-12.771-43.424-22.576-76.077-20.473" stroke="#fff" stroke-width="4.59" stroke-linecap="round" stroke-linejoin="round"/><path d="M146.275 91.839c-20.185 18.643-30.793 44.921-34.674 71.702a189.575 189.575 0 00-.066 53.715c.193 1.046.323 2.103.391 3.165a26.381 26.381 0 00-4.043-1.439c-16.688-4.286-34.438-4.979-50.588 1.616-13.434 5.482-24.87 15.094-33.604 26.559a102.241 102.241 0 00-20.37 53.118c-2.95 36.887 14.69 66.633 41.145 87.615l.302.243" stroke="#8700E0" stroke-width="4.59" stroke-linejoin="round"/><path d="M149.499 109.589c-26.16 30.742-27.82 72.078-25.511 111.474.052.863.376 3.15.679 5.474m-10.654 4.449c-19.3-1.919-40.723-2.487-57.138 7.104-16.23 9.488-28.315 24.825-35.272 42.192-7.901 19.713-9.17 42.789-.34 62.428 9.909 21.985 26.316 37.721 44.885 52.454.052.037-2.213.539-4.574 1.07" stroke="#fff" stroke-width="4.59" stroke-linecap="round" stroke-linejoin="round"/><path d="M449.858 457.607a45.163 45.163 0 0012.845 2.604c62.288 3.829 120.739-30.247 161.906-68.396a133.68 133.68 0 005.43-5.334m-240.1 46.655c-3.601 5.504-12.048 3.305-12.048 3.305-47.112-9.664-33.368-72.041 6.485-100.99" stroke="#000" stroke-width="4.59" stroke-miterlimit="10"/><path d="M335.065 284.295c17.079 16.378 32.328 26.316 46.618 32.203l-5.902-41.262c64.369-38.496 81.499 4.426 81.499 4.426 2.464 4.028 3.608 51.82 3.932 68.131h2.214c40.576-2.169 77.249-39.285 77.249-39.285-20.502-51.48-93.694-115.089-93.694-115.089-50.801-35.625-89.577-23.644-89.577-23.644 11.944.863-4.331 33.936-4.331 33.936-23.984 20.827-32.837-10.277-32.837-10.277-23.209 55.553 14.829 90.861 14.829 90.861z" fill="#353642"/><path d="M293.094 260.267s4.213 54.121 40.827 52.328c0 0 13.73-14.851 13.383-26.146-.347-11.294-30.985-81.831-30.985-81.831s-19.86 49.533-23.225 55.649z" fill="#353642"/><path d="M626.675 389.668v.184l-3.129 2.951s1.299 1.203 3.129 2.951c2.382 2.214 5.665 5.268 8.115 7.599 4.242 4.028 25.932 25.711 31.723 5.991-1.144-6.898-5.526-21.085-22.324-38.319-23.889-24.552-20.561-21.505-26.559-21.1-2.767.177-6.352 1.8-9.421 3.505 7.761 3.231 19.528 12.195 18.466 36.238z" fill="#2F004F"/><path d="M601.724 357.509s23.482 2.214 24.951 32.159v.184a60.047 60.047 0 010 5.851c2.382 2.213 5.665 5.267 8.115 7.598 4.242 4.028 25.932 25.711 31.723 5.991-1.144-6.898-5.526-21.085-22.324-38.319-23.889-24.552-20.561-21.505-26.559-21.099-2.767.177-6.352 1.8-9.421 3.504a74.678 74.678 0 00-6.485 4.131z" fill="#2F004F"/><path d="M381.838 317.745c-26.559-16.651-69.171-37.972-69.068-85.837 0-11.369 1.173-20.657 3.689-29.451l.243-.841a41.257 41.257 0 013.534-8.182m189.712 207.167a418.564 418.564 0 0015.382-13.759l.059-.059a243.265 243.265 0 004.648-4.426 162.88 162.88 0 006.64-9.783.413.413 0 00.081-.162c14.327-23.165 15.19-41.624 1.844-68.78a5.55 5.55 0 00-.265-.576 207.491 207.491 0 00-4.906-9.222c-26.714-47.216-105.093-135.192-172.707-124.067" stroke="#000" stroke-width="4.59" stroke-miterlimit="10"/><path d="M624.587 391.793c14.017 17.396 23.851 23.571 30.498 24.935 6.647 1.365 12.771-4.529 11.804-11.346-3.084-21.542-28.152-47.312-40.487-58.836a11.736 11.736 0 00-14.268-1.401l-6.175 3.843c-18.245 11.377-37.286 22.472-56.431 32.697-17.551 9.385-36.835 21.447-57.61 18.717M373.162 230.233a240.375 240.375 0 00.657 25.674c2.338 30.904 8.654 61.388 12.128 92.167 2.214 19.697 3.571 39.484 3.837 59.307.221 16.644.265 29.34-.229 45.984-.317 10.712-6.374 17.551-15.596 22.132-7.769 3.851-13.184 3.069-18.023 10.838-9.952 16.009 9.59 17.145 17.543 15.035 22.31-5.902 55.132-9.14 67.873-31.325 10.159-17.705 11.45-29.281 14.017-49.067 2.804-21.439 5.165-42.967 5.666-64.597.775-34.829-1.925-90.854-14.408-123.795" stroke="#000" stroke-width="4.59" stroke-miterlimit="10"/><path d="M94.485 395.422l.118.118 2.767-.28-.103-.096-2.782.258zm43.889-3.77l-22.73 2.25 22.73-2.065v-.185z" fill="#2F004F"/><path d="M94.485 395.422l.118.118 2.767-.28.302.28 1.32-.118-.302-.28-.095-.103-1.328.125-2.782.258z" fill="#2F004F"/><path d="M94.485 395.422l.118.118 2.767-.28 1.32-.118-.096-.103-1.327.125-2.782.258zm58.039 39.47l-33.604 3.283 33.604-3.018v-.265zm-64.907 5.518l.177.177 4.094-.413.443.413 1.955-.177-.443-.413-.147-.148-1.963.178-4.116.383z" fill="#2F004F"/><path d="M87.617 440.41l.177.177 4.094-.413 1.956-.177-.148-.148-1.962.178-4.117.383z" fill="#2F004F"/><path d="M316.717 201.608s-21.704 72.403-47.09 89.268c-23.918 15.884-56.032 8.993-81.256.317-6.964-2.397-13.965-4.736-21.395-4.625-10.453.147-31.76 2.464-34.526 14.629m212.796-7.717c-37.456 75.848-103.868 60.717-138.055 47.01a20.43 20.43 0 00-9.782-1.402c-3.306.361-5.902 1.763-8.979 2.951-5.231 2.066-11.14 3.548-16.813 3.165-5.673-.384-12.586-4.707-10.196-11.398 1.904-5.334 7.835-4.951 12.38-5.976 4.544-1.026 5.636-7.651 1.387-9.798a.369.369 0 01-.141-.081" stroke="#000" stroke-width="4.59" stroke-miterlimit="10"/><path d="M174.664 454.221l19.978 18.879 37.736-3.512-20.001-18.872-37.713 3.505z" stroke="#000" stroke-width="4.59" stroke-linecap="square" stroke-linejoin="round"/><path d="M194.642 473.1V505l37.736-3.667v-31.745l-37.736 3.512zm-19.978-18.879v31.922L194.642 505v-31.9l-19.978-18.879zM58.49 408.731l34.188 32.306 64.553-6.012-15.109-14.268v8.048l-44.45 4.331-23.526-22.221v-3.652l-15.655 1.468z" stroke="#000" stroke-width="4.59" stroke-linecap="square" stroke-linejoin="round"/><path d="M92.678 441.03v54.571l64.553-6.271v-54.298l-64.553 5.998zm-34.18-32.291v54.608l34.18 32.254V441.03l-34.18-32.291zm15.647-35.42l23.527 22.221 44.45-4.124-23.549-22.228-44.427 4.131z" stroke="#000" stroke-width="4.59" stroke-linecap="square" stroke-linejoin="round"/><path d="M97.672 403.7v-8.16l44.45-4.124v34.306m-67.976-52.403v37.596l23.526 22.221V395.54l-23.526-22.221zm-.657 13.236l-1.01-.952-46.95 4.367 24.869 23.512 6.971-.656" stroke="#000" stroke-width="4.59" stroke-linecap="square" stroke-linejoin="round"/><path d="M57.782 412.781l-7.385.701v39.699l8.093-.782" stroke="#000" stroke-width="4.59" stroke-linecap="square" stroke-linejoin="round"/><path d="M25.535 389.97v39.735l24.87 23.476v-39.713l-24.87-23.498zm94.196-87.6l19.978 18.879 37.736-3.512-20-18.879-37.714 3.512zm57.721 42.649v4.471l-37.735 3.667v-31.901l35.33-3.29 2.405-.221v5.636" stroke="#000" stroke-width="4.59" stroke-linecap="square" stroke-linejoin="round"/><path d="M119.731 302.37v31.922l19.978 18.857v-31.9l-19.978-18.879z" stroke="#000" stroke-width="4.59" stroke-linecap="square" stroke-linejoin="round"/><path d="M312.77 165.584c-3.431 4.596-9.451 5.511-13.442 2.346" stroke="#000" stroke-width="4.59" stroke-miterlimit="10"/><path d="M258.228 119.777a18.882 18.882 0 0018.665 11.804 10.004 10.004 0 011.395-4.581c3.548-5.784 6.883 3.549 19.735-5.474 17.801-12.542 25.954-8.115 25.954-8.115.737.383 1.32 4.825 1.519 5.599 1.218 4.5 2.428 8.979 3.689 13.471.738 2.745 1.476 5.467 2.213 8.189.19-.504.409-.997.657-1.475.811-6.485 2.811-14.29 10.07-12.166a9.787 9.787 0 013.918 2.332c5.378 5.208 2.84 11.413-1.203 16.334a24.608 24.608 0 01-3.379 4.101c1.011 1.476 5.128 7.378 5.128 7.378.427.59 9.539-13.545 10.158-15.035.717-3.514.839-7.122.362-10.676-2.044-14.607-10.557-30.668-23.608-37.226-3.246-1.623-2.612-3.763-3.231-6.552a.737.737 0 00-1.417-.191c-3.098 4.736-12.306 5.725-12.306 5.725-31.612-3.18-41.432 12.637-47.555 16.119a12.451 12.451 0 01-8.115 1.38 4.918 4.918 0 01-2.744 4.308l.383 1.476a4.964 4.964 0 01-.288 3.275z" fill="#2F004F"/><path d="M276.916 131.581a18.878 18.878 0 01-18.651-11.767v0a24.914 24.914 0 01-1.342-4.338l.236-.066a4.06 4.06 0 00.974-.376 4.92 4.92 0 002.744-4.309 4.736 4.736 0 00-.162-1.475l-1.911-7.068s6.396 3.394 12.394-.074c5.998-3.467 14.556-19.24 47.555-16.12 0 0 7.252-.67 10.329-5.496a.736.736 0 011.409.2c.62 2.788 1.977 4.618 5.216 6.24 13.08 6.567 21.601 22.628 23.608 37.228a34.609 34.609 0 01-2.553 17.927c-.62 1.475-9.731 15.625-10.159 15.035 0 0-4.116-5.902-5.127-7.377l-.243-.325.317-.288a35.609 35.609 0 003.305-3.489c4.043-4.921 6.581-11.125 1.202-16.334a9.763 9.763 0 00-3.917-2.331c-7.259-2.125-9.259 5.681-10.07 12.165a17.322 17.322 0 00-.067 3.733l-.59-2.213c-.738-2.722-1.475-5.444-2.213-8.189-1.232-4.493-2.442-8.971-3.689-13.471-.199-.775-.811-5.216-1.52-5.6 0 0-8.152-4.382-25.954 8.116-12.851 9.022-16.186-.31-19.734 5.474a10 10 0 00-1.395 4.581c-.018.519-.003 1.039.045 1.557a.594.594 0 000 .206c.103 1.129.25 2.258.398 3.357 1.475 10.609 4.353 21.491 10.011 30.69 6.861 11.148 22.029 20.871 35.087 13.191 4.065-2.397 7.548-5.806 10.661-9.332" stroke="#000" stroke-width="4.59" stroke-miterlimit="10"/><path d="M286.514 154.264c-.815-1.587-.412-3.42.9-4.094 1.312-.673 3.037.068 3.851 1.655.815 1.588.412 3.421-.9 4.095-1.312.673-3.037-.068-3.851-1.656zm20.582-3.813c-.815-1.588-.411-3.421.901-4.095 1.312-.673 3.036.068 3.851 1.656.815 1.587.412 3.42-.9 4.094-1.312.673-3.037-.068-3.852-1.655z" fill="#000"/><path d="M303.593 156.894s-6.293 4.957-7.326.966c-.325-1.232-3.873-13.213-3.873-13.213s-6.463-5.046-14.328.605m21.373-5.194s10.269-7.245 18.827-.354m31.001 14.062l5.326 17.174 6.087-1.143c3.828 6.389-1.107 27.038-7.636 33.936-18.628 19.742-30.086-3.047-30.086-3.047l-2.722-7.274-3.947-10.52" stroke="#000" stroke-width="4.59" stroke-miterlimit="10"/><path d="M187.921 101.142a13.34 13.34 0 00-4.426 9.886v2.11a10.699 10.699 0 01-11.768 10.601c-5.511-.561-9.539-5.57-9.539-11.14v-1.579a13.279 13.279 0 00-4.33-9.841" stroke="#6938EF" stroke-width="4.59" stroke-linejoin="round"/><path d="M187.921 101.142a13.34 13.34 0 00-4.426 9.886v2.11a10.699 10.699 0 01-11.768 10.601c-5.511-.561-9.539-5.57-9.539-11.14v-1.579a13.279 13.279 0 00-4.33-9.841" stroke="#6938EF" stroke-width="4.59" stroke-linejoin="round"/><path d="M187.921 101.142a14.132 14.132 0 012.287-1.623 34.847 34.847 0 0016.943-36.432 34.852 34.852 0 00-64.794-10.656 34.848 34.848 0 004.383 39.94c.074.07.141.15.199.235a35.747 35.747 0 008.698 6.972c.8.444 1.544.984 2.213 1.608" stroke="#8700E0" stroke-width="4.59" stroke-linejoin="round"/><path d="M176.574 98.87c2.251-4.088 6.043-9.502 8.713-13.361a59.218 59.218 0 007.061-13.228 3.042 3.042 0 00.265-1.623 1.079 1.079 0 00-1.166-.93c-.494.097-.737.613-.995 1.063a16.097 16.097 0 01-4.427 5.415c-1.04.804-2.516 1.475-3.6.738a3.098 3.098 0 01-1.055-2.31 12.894 12.894 0 012.287-8.779c.738-1.003 2.021-1.977 3.062-1.32 1.04.657.737 2.28.118 3.371a16.98 16.98 0 01-10.535 8.285 5.49 5.49 0 01-3.372.037 4.12 4.12 0 01-2.353-3.047 8.103 8.103 0 01.332-3.961c.605-1.985 1.778-4.014 3.747-4.678a2.648 2.648 0 011.918 0 2.476 2.476 0 011.306 2.28 5.475 5.475 0 01-.826 2.619 14.212 14.212 0 01-11.133 7.097 6.091 6.091 0 01-4.352-1.04 5.42 5.42 0 01-1.734-3.822 9.079 9.079 0 011.719-6.057c.258-.346.649-.737 1.07-.597.42.14.538.612.59 1.033a12.547 12.547 0 01-2.686 9.31c-1.15 1.41-2.899 2.634-4.669 2.213a3.864 3.864 0 01-2.664-2.95 7.454 7.454 0 01.399-4.103 5.17 5.17 0 012.397 3.586c.325 1.475.303 2.95.554 4.426 1.387 8.278 10.505 11.974 12.276 19.92m4.065-76.49L173.232 1m39.647 40.473l14.512-15.131m-94.639 16.075l-14.836-14.821" stroke="#6938EF" stroke-width="4.59" stroke-linejoin="round"/><path d="M124.829 240.503a7.6 7.6 0 110-15.199 7.6 7.6 0 010 15.199z" fill="#2F004F"/></svg>