<svg width="38" height="38" fill="none" xmlns="http://www.w3.org/2000/svg"><path d="M26.94 37.867H11.28C5.193 37.867.241 32.916.241 26.83V11.17C.242 5.084 5.194.133 11.28.133h15.66c6.087 0 11.038 4.951 11.038 11.037v14.18a1.64 1.64 0 01-3.282 0V11.17c0-4.277-3.479-7.756-7.756-7.756H11.28c-4.276 0-7.756 3.48-7.756 7.756v15.66c0 4.277 3.48 7.756 7.756 7.756h15.66a7.702 7.702 0 006.184-3.074 1.64 1.64 0 012.614 1.984 10.959 10.959 0 01-8.798 4.371z" fill="#fff"/><path d="M19.11 29.254c-5.655 0-10.255-4.6-10.255-10.254s4.6-10.254 10.254-10.254S29.363 13.346 29.363 19s-4.6 10.254-10.254 10.254zm0-17.227A6.98 6.98 0 0012.136 19a6.98 6.98 0 006.972 6.973A6.98 6.98 0 0026.082 19a6.98 6.98 0 00-6.973-6.973zM30.788 8.78a1.46 1.46 0 11-2.919.002 1.46 1.46 0 012.92-.001z" fill="#fff"/></svg>