<svg width="43" height="38" fill="none" xmlns="http://www.w3.org/2000/svg"><path d="M43 .442c0-.016-.008-.03-.01-.047-.002-.015.003-.031 0-.047-.003-.014-.013-.024-.018-.037a.372.372 0 00-.035-.082.41.41 0 00-.177-.172.409.409 0 00-.08-.031.397.397 0 00-.085-.017C42.581.007 42.568 0 42.553 0c-.018 0-.032.008-.049.01-.016.002-.031-.003-.047 0L28.519 3.04 14.577.01h-.007c-.015-.003-.033 0-.05-.002-.013 0-.024-.008-.039-.008-.013 0-.025.006-.037.008-.018 0-.037 0-.054.003h-.004L.35 3.06c-.013.003-.024.013-.037.017a.44.44 0 00-.152.082.389.389 0 00-.059.062.438.438 0 00-.046.068.459.459 0 00-.049.165c0 .014-.008.025-.008.04v34.063c0 .017.008.03.01.047s-.001.03.002.047c.004.016.013.028.018.043a.377.377 0 00.08.141c.014.017.026.033.042.047.026.023.056.04.087.058.017.009.031.02.049.026a.448.448 0 00.255.022l13.94-3.03 13.94 3.03a.39.39 0 00.095.011c.005 0 .01-.003.014-.003a.432.432 0 00.082-.008l14.036-3.05c.014-.002.024-.012.037-.017a.47.47 0 00.152-.082.44.44 0 00.056-.06.43.43 0 00.049-.07.432.432 0 00.03-.075.374.374 0 00.018-.089c0-.014.008-.025.008-.04V.443zM.894 3.85L14.037.993v16.584a.446.446 0 00-.272.136.44.44 0 00.032.625c.082.073.158.151.24.225v15.589L.894 37.008V3.85zM14.93 19.413c.275.273.544.544.785.792a.448.448 0 00.63.011.44.44 0 00.012-.625 48.965 48.965 0 00-1.427-1.407V.993l13.144 2.856v21.217c-.259.11-.517.208-.776.284a.44.44 0 00.125.866.446.446 0 00.126-.019 7.92 7.92 0 00.525-.178v10.988L14.93 34.151V19.413zm14.036 6.215a9.751 9.751 0 001.137-.678.44.44 0 00.11-.616.448.448 0 00-.62-.11 9.369 9.369 0 01-.627.398V3.85L42.108.993v33.159l-13.143 2.855V25.628z" fill="#99A3AD"/><path d="M5.452 26.484a26.968 26.968 0 01-.167-.966.445.445 0 00-.508-.37.442.442 0 00-.373.504c.055.352.105.634.147.857a2.365 2.365 0 00-1.848 2.297 2.37 2.37 0 002.378 2.358 2.37 2.37 0 002.378-2.358c-.001-1.174-.873-2.143-2.007-2.322zM5.08 30.28c-.82 0-1.487-.661-1.487-1.474S4.26 27.33 5.08 27.33c.82 0 1.486.662 1.486 1.475 0 .813-.667 1.474-1.486 1.474zM38.218 6.8l1.051-1.043a.44.44 0 000-.625.449.449 0 00-.63 0l-1.051 1.043-1.05-1.043a.449.449 0 00-.631 0 .44.44 0 000 .625L36.958 6.8l-1.051 1.043a.44.44 0 00.316.755.45.45 0 00.315-.13l.66-.656c.005.106.01.204.013.323.006.24.204.432.445.432h.012a.444.444 0 00.434-.453l-.006-.185.542.539a.45.45 0 00.631 0 .44.44 0 000-.626L38.22 6.8zm-26.04 9.192c-.9-.55-1.764-.9-2.644-1.073a.441.441 0 10-.173.867c.773.152 1.542.466 2.35.959a.448.448 0 00.613-.146.44.44 0 00-.146-.607zm-7.627 7.356l.028-.001a.445.445 0 00.418-.468 21.743 21.743 0 01-.042-1.335c0-.433.014-.869.048-1.3a.443.443 0 00-.41-.475c-.244-.032-.46.164-.479.406-.036.453-.05.913-.05 1.369 0 .47.015.938.043 1.388.014.235.21.416.444.416zm.389-5.358a.447.447 0 00.577-.254c.34-.877.834-1.479 1.47-1.788a.44.44 0 00.202-.592.448.448 0 00-.596-.202c-.844.411-1.486 1.174-1.908 2.265a.439.439 0 00.255.57zm13.3 3.54a.45.45 0 00-.63-.004.44.44 0 00-.003.626 27.948 27.948 0 002.017 1.868.444.444 0 00.628-.057.44.44 0 00-.057-.623 27.215 27.215 0 01-1.954-1.81zm19.389-11.112a.443.443 0 00-.478.41c-.07.942-.19 1.822-.357 2.612a.442.442 0 00.438.533c.206 0 .39-.143.435-.351.175-.828.301-1.746.374-2.729a.446.446 0 00-.412-.475zm-1.045 5.272a.447.447 0 00-.594.209 7.009 7.009 0 01-.16.311 58.649 58.649 0 01-1.138 2.015.44.44 0 00.157.606.45.45 0 00.611-.155c.459-.77.845-1.476 1.155-2.045.062-.115.123-.232.18-.35a.44.44 0 00-.211-.59zm-3.348 4.77a20.156 20.156 0 01-1.677 2.046.441.441 0 00.326.745.446.446 0 00.325-.14 21.234 21.234 0 001.75-2.137.44.44 0 00-.102-.616.446.446 0 00-.622.101zm-8.445 5.093a7.526 7.526 0 01-2.417-.754.446.446 0 00-.631.222.44.44 0 00.21.558l.017.01c.904.448 1.816.731 2.712.842a.445.445 0 00.498-.384.443.443 0 00-.389-.494z" fill="#99A3AD"/></svg>