<svg xmlns="http://www.w3.org/2000/svg" width="56" height="56"><path d="M54.32 12.342a8.509 8.509 0 00-2.078-4.77.791.791 0 10-1.189 1.043 6.937 6.937 0 011.694 3.885 78.117 78.117 0 010 15.848 6.973 6.973 0 01-2.12 4.334 6.89 6.89 0 01-4.423 1.9l-.6.028-1.187-2.553a.791.791 0 00-1.461.064L42 34.761c-7.162.267-14.424.331-21.609.191l-1.661-8.1a.791.791 0 00-1.525-.092l-1.822 5.454-.7-2.584a.791.791 0 00-1.487-.113l-2.261 5.13-1.405-.066a6.891 6.891 0 01-4.423-1.9 6.973 6.973 0 01-2.12-4.334 78.116 78.116 0 010-15.848 6.973 6.973 0 012.12-4.334A6.891 6.891 0 019.53 6.273a381.594 381.594 0 0130.782-.238l1.329 4.918a.791.791 0 001.488.113l2.132-4.836.946.044a6.821 6.821 0 012.606.649.791.791 0 00.677-1.43 8.4 8.4 0 00-3.207-.8q-.747-.036-1.492-.069a.789.789 0 00-.759.471l-1.45 3.282-.9-3.321a.791.791 0 00-.736-.584q-4.707-.162-9.444-.205v-.309A2.962 2.962 0 0028.544 1h-1.357a2.962 2.962 0 00-2.957 2.958v.309c-4.938.047-9.874.188-14.776.425a8.507 8.507 0 00-8.041 7.65 79.712 79.712 0 000 16.17 8.507 8.507 0 008.041 7.649q.98.048 1.959.09a.789.789 0 00.758-.471l1.574-3.58.8 2.951a.791.791 0 001.514.044l1.719-5.144 1.194 5.831a.791.791 0 00.758.638q2.246.048 4.5.068v2.8a.791.791 0 001.582 0V36.6q1.005.005 2.012.005 1.05 0 2.1-.006v7.976q-.3.824-.555 1.74a30.57 30.57 0 00-1.016 7.1H25.81v-10.86a.791.791 0 10-1.582 0v4.025a7.486 7.486 0 00-6.746-1.517.792.792 0 00-.315 1.4 9.248 9.248 0 011.6 1.829 17.849 17.849 0 012.4 5.13H17.38a.791.791 0 100 1.582h23.08a.791.791 0 100-1.582h-2.572a17.848 17.848 0 012.4-5.13 9.259 9.259 0 011.6-1.826.791.791 0 00-.312-1.4 7.823 7.823 0 00-5.035.408 13.919 13.919 0 013.744-6.152.791.791 0 00-.312-1.4 7.447 7.447 0 00-6.569 1.366 9.431 9.431 0 00-1.9 2.113v-4.813a377.32 377.32 0 0011.091-.267.791.791 0 00.713-.521l.484-1.337.6 1.295a.791.791 0 00.753.457l1.133-.053a8.507 8.507 0 008.041-7.65 79.7 79.7 0 000-16.17zM25.81 3.958a1.378 1.378 0 011.378-1.376h1.356a1.379 1.379 0 011.378 1.376v.3q-2.055-.011-4.111 0v-.3zm-6.48 42.457a5.774 5.774 0 014.9 2.446v4.557h-1.413a18.493 18.493 0 00-3.487-7.003zm20.4 0a18.492 18.492 0 00-3.49 7h-3.61a12.65 12.65 0 012.767-5.2 5.605 5.605 0 014.333-1.8zm-5.336-5.9a5.514 5.514 0 013.736-1.243 18.834 18.834 0 00-3.651 7.615 14.054 14.054 0 00-3.5 6.531H29.93a29.277 29.277 0 01.959-6.683 11.937 11.937 0 013.507-6.216z" class="prefix__cls-2"/><path d="M21.333 15.438a.824.824 0 00-.579.786v8.555a.824.824 0 101.648 0v-5.913l4.283 6.2a.941.941 0 001.06.4.984.984 0 00.663-.984l-.08-8.283a.824.824 0 00-1.648.016l.058 6.031-4.483-6.492a.824.824 0 00-.922-.316zm18.663-.054a.824.824 0 00-.824.824v8.564a.824.824 0 00.684.812 8.359 8.359 0 001.042.02c.456 0 1.122 0 2.1-.008a.824.824 0 10-.009-1.648c-.765 0-1.59.007-2.173.007v-7.748a.824.824 0 00-.82-.823zm-30.782.824v6.851a.912.912 0 01-.458.8c-.543.3-1.124-.243-1.158-.276a.824.824 0 00-1.164 1.166 2.926 2.926 0 001.973.856 2.34 2.34 0 001.149-.305 2.56 2.56 0 001.306-2.243v-6.851a.824.824 0 10-1.648 0zm39.497.9a.824.824 0 100-1.648h-3.579a.824.824 0 00-.824.824v8.493a.824.824 0 00.824.824h3.579a.824.824 0 100-1.648h-2.752v-2.6h2.491a.824.824 0 000-1.648h-2.491v-2.6zm-14.608-.078a3.444 3.444 0 011.935.591.824.824 0 10.922-1.365 5.11 5.11 0 10-2.857 9.346c2.663 0 4.524-2.1 4.524-5.11a.824.824 0 00-.824-.824h-2.564a.824.824 0 100 1.648h1.673a2.808 2.808 0 01-2.808 2.638 3.462 3.462 0 010-6.924zm-21.119-1.646a.824.824 0 00-.824.824v5.9a3.307 3.307 0 001.725 2.916 3.705 3.705 0 002.022.582h.006a3.924 3.924 0 001.782-.412 3.344 3.344 0 002.069-3.091v-5.892a.824.824 0 10-1.648 0v5.892a1.72 1.72 0 01-1.162 1.62 2.292 2.292 0 01-1.041.236 2.054 2.054 0 01-1.137-.322 1.7 1.7 0 01-.964-1.527v-5.9a.824.824 0 00-.824-.824z" class="prefix__cls-2"/></svg>