<svg width="262" height="96" fill="none" xmlns="http://www.w3.org/2000/svg"><path fill="#fff" d="M0 0h262v96H0z"/><path d="M13.12 19.984v11.712h16v6.912h-16v12.16h17.92V58H4.096V12.816H31.04v7.168H13.12zm69.721 2.048c4.31 0 7.701 1.344 10.176 4.032 2.517 2.645 3.776 6.421 3.776 11.328V58h-8.96V38.416c0-2.73-.704-4.821-2.112-6.272-1.365-1.493-3.264-2.24-5.696-2.24-2.517 0-4.523.79-6.016 2.368-1.493 1.579-2.24 3.883-2.24 6.912V58h-8.96V38.416c0-2.73-.704-4.821-2.112-6.272-1.365-1.493-3.264-2.24-5.696-2.24-2.517 0-4.523.79-6.016 2.368-1.493 1.579-2.24 3.883-2.24 6.912V58h-9.024V22.544h9.024v6.72c.939-2.304 2.41-4.075 4.416-5.312 2.048-1.28 4.416-1.92 7.104-1.92 2.859 0 5.333.683 7.424 2.048 2.133 1.365 3.733 3.328 4.8 5.888 1.11-2.432 2.752-4.352 4.928-5.76 2.219-1.45 4.693-2.176 7.424-2.176zm43.064.064c2.987 0 5.675.725 8.064 2.176 2.389 1.45 4.245 3.563 5.568 6.336 1.365 2.73 2.048 5.952 2.048 9.664 0 3.712-.683 6.955-2.048 9.728-1.323 2.73-3.179 4.821-5.568 6.272-2.389 1.45-5.077 2.176-8.064 2.176s-5.547-.704-7.68-2.112c-2.091-1.45-3.584-3.37-4.48-5.76v24.32h-9.024V22.544h9.024v7.36c.896-2.39 2.389-4.288 4.48-5.696 2.133-1.408 4.693-2.112 7.68-2.112zm-2.816 7.872c-2.731 0-4.992.939-6.784 2.816-1.749 1.835-2.624 4.33-2.624 7.488 0 3.115.875 5.61 2.624 7.488 1.792 1.835 4.053 2.752 6.784 2.752 2.816 0 5.077-.896 6.784-2.688 1.707-1.835 2.56-4.352 2.56-7.552 0-3.2-.853-5.717-2.56-7.552s-3.968-2.752-6.784-2.752zm33.906-.64c1.323-2.261 3.072-4.032 5.248-5.312 2.176-1.323 4.608-1.984 7.296-1.984v9.664h-2.624c-6.613 0-9.92 3.072-9.92 9.216V58h-9.024V22.544h9.024v6.784zm16.515-16.96c0-1.45.512-2.624 1.536-3.52 1.024-.939 2.368-1.408 4.032-1.408 1.664 0 3.008.47 4.032 1.408 1.024.896 1.536 2.07 1.536 3.52 0 1.408-.512 2.581-1.536 3.52-1.024.896-2.368 1.344-4.032 1.344-1.664 0-3.008-.448-4.032-1.344-1.024-.939-1.536-2.112-1.536-3.52zm10.048 10.176V58h-9.024V22.544h9.024zm20.387-.448c4.309 0 7.765 1.088 10.368 3.264 2.603 2.176 4.224 5.077 4.864 8.704h-8.448c-.341-1.707-1.109-3.072-2.304-4.096-1.195-1.024-2.752-1.536-4.672-1.536-1.536 0-2.731.363-3.584 1.088-.853.725-1.28 1.707-1.28 2.944 0 .981.341 1.77 1.024 2.368.683.597 1.536 1.067 2.56 1.408 1.024.341 2.496.747 4.416 1.216 2.688.597 4.864 1.237 6.528 1.92 1.707.64 3.157 1.685 4.352 3.136 1.237 1.408 1.856 3.328 1.856 5.76 0 3.03-1.195 5.483-3.584 7.36-2.347 1.877-5.525 2.816-9.536 2.816-4.608 0-8.299-1.024-11.072-3.072-2.773-2.09-4.459-5.056-5.056-8.896h8.64c.213 1.75.981 3.136 2.304 4.16 1.323.981 3.051 1.472 5.184 1.472 1.536 0 2.709-.363 3.52-1.088.811-.768 1.216-1.75 1.216-2.944 0-1.024-.363-1.856-1.088-2.496-.683-.64-1.557-1.13-2.624-1.472-1.024-.341-2.496-.747-4.416-1.216-2.645-.597-4.8-1.195-6.464-1.792-1.621-.64-3.029-1.643-4.224-3.008-1.152-1.365-1.728-3.243-1.728-5.632 0-3.072 1.173-5.568 3.52-7.488 2.347-1.92 5.589-2.88 9.728-2.88zm55.745 16.832c0 .896-.107 1.92-.32 3.072h-25.984c.128 3.157.981 5.483 2.56 6.976 1.579 1.493 3.541 2.24 5.888 2.24 2.091 0 3.819-.512 5.184-1.536 1.408-1.024 2.304-2.41 2.688-4.16h9.536a15.252 15.252 0 01-3.008 6.656c-1.536 1.963-3.52 3.499-5.952 4.608-2.389 1.11-5.056 1.664-8 1.664-3.456 0-6.528-.725-9.216-2.176-2.688-1.493-4.779-3.605-6.272-6.336-1.493-2.73-2.24-5.952-2.24-9.664 0-3.712.747-6.933 2.24-9.664 1.493-2.773 3.584-4.885 6.272-6.336 2.688-1.45 5.76-2.176 9.216-2.176 3.499 0 6.549.725 9.152 2.176 2.645 1.45 4.672 3.456 6.08 6.016 1.451 2.517 2.176 5.397 2.176 8.64zm-9.088-.896c.128-2.901-.64-5.099-2.304-6.592-1.621-1.493-3.627-2.24-6.016-2.24-2.432 0-4.48.747-6.144 2.24-1.664 1.493-2.581 3.69-2.752 6.592h17.216z" fill="#000"/></svg>