<svg width="156" height="31" fill="none" xmlns="http://www.w3.org/2000/svg"><path fill="#fff" d="M0 0h156v31H0z"/><path fill-rule="evenodd" clip-rule="evenodd" d="M31 15.5C31 24.06 24.06 31 15.5 31 6.94 31 0 24.06 0 15.5 0 6.94 6.94 0 15.5 0 24.06 0 31 6.94 31 15.5zm-1.55 0c0-7.705-6.245-13.95-13.95-13.95-7.705 0-13.95 6.245-13.95 13.95 0 7.705 6.245 13.95 13.95 13.95 7.705 0 13.95-6.245 13.95-13.95zm-14.172-3.872c.152.4.6.601 1 .449l4.232-1.608-2.443 6.498-4.528-4.529a1.102 1.102 0 00-1.808.394L8.69 20.929c-.331.884.532 1.749 1.417 1.412l5.199-1.976a.775.775 0 00-.551-1.45l-4.261 1.62 2.444-6.506 4.53 4.529c.561.567 1.524.352 1.806-.394l3.041-8.089c.336-.881-.526-1.745-1.411-1.414l-5.176 1.967c-.4.152-.601.6-.449 1z" fill="#757A79"/><path d="M40 24.672V3.362h14.5v4.262h-9.803v4.203h8.042v4.262h-8.042v4.321H54.5v4.262H40zm16.852-7.992c0-1.163.186-2.259.558-3.285a8.212 8.212 0 011.585-2.693 7.206 7.206 0 012.495-1.806c.978-.453 2.074-.68 3.287-.68 1.155 0 2.221.246 3.2.74a7.275 7.275 0 012.524 1.953 7.352 7.352 0 012.495-1.953 7.187 7.187 0 013.23-.74c1.212 0 2.308.227 3.287.68a7.206 7.206 0 012.495 1.806 8.214 8.214 0 011.585 2.693 9.567 9.567 0 01.558 3.286v7.991h-4.403v-7.991c0-.612-.069-1.184-.206-1.717a3.941 3.941 0 00-.646-1.42 3.261 3.261 0 00-1.115-.948c-.43-.237-.95-.355-1.556-.355-.606 0-1.135.118-1.585.355a3.36 3.36 0 00-1.086.947 3.94 3.94 0 00-.646 1.421 6.874 6.874 0 00-.205 1.717v7.991H68.3v-7.991c0-.612-.069-1.184-.206-1.717a3.941 3.941 0 00-.645-1.42 3.263 3.263 0 00-1.116-.948c-.43-.237-.95-.355-1.556-.355-.606 0-1.135.118-1.585.355a3.37 3.37 0 00-1.086.947 3.941 3.941 0 00-.646 1.421 6.88 6.88 0 00-.205 1.717v7.991h-4.403v-7.991zm38.645-8.464c1.213 0 2.348.227 3.405.68a8.498 8.498 0 012.759 1.806 8.556 8.556 0 011.849 2.693 7.795 7.795 0 01.705 3.286 7.79 7.79 0 01-.705 3.285 8.555 8.555 0 01-1.849 2.694 8.907 8.907 0 01-2.76 1.835 8.873 8.873 0 01-3.404.65 6.02 6.02 0 01-2.378-.473 6.452 6.452 0 01-1.937-1.302V30h-4.403V16.68c0-1.163.225-2.259.675-3.285a8.983 8.983 0 011.878-2.693 8.494 8.494 0 012.76-1.806 8.674 8.674 0 013.405-.68zm-.088 12.905a4.11 4.11 0 001.702-.356 4.44 4.44 0 001.409-.947c.391-.395.705-.858.94-1.39a4.419 4.419 0 00.352-1.747c0-.612-.118-1.184-.353-1.717a4.482 4.482 0 00-.939-1.42 4.44 4.44 0 00-1.409-.948 4.114 4.114 0 00-1.703-.355 4.32 4.32 0 00-1.731.355 4.533 4.533 0 00-1.38.947 4.482 4.482 0 00-.94 1.421 4.207 4.207 0 00-.352 1.717c0 .611.118 1.194.353 1.746a4.503 4.503 0 002.319 2.338 4.32 4.32 0 001.731.355zm10.719-4.441c0-1.163.195-2.259.587-3.285a8.5 8.5 0 011.702-2.693A7.745 7.745 0 01111 8.896c1.018-.453 2.133-.68 3.347-.68h.587v4.025a4.32 4.32 0 00-1.732.355 4.548 4.548 0 00-1.38.947 4.491 4.491 0 00-.939 1.421 4.205 4.205 0 00-.352 1.717v7.991h-4.403v-7.991zM119.318 2c.352 0 .675.07.968.207.314.138.578.326.793.563.235.217.421.483.558.799.137.296.205.621.205.976a2.5 2.5 0 01-.205 1.007 2.793 2.793 0 01-.558.799 2.312 2.312 0 01-.793.562 2.562 2.562 0 01-.968.178 2.426 2.426 0 01-1.791-.74 2.468 2.468 0 01-.734-1.806c0-.355.059-.68.177-.976.137-.316.322-.582.557-.8a2.77 2.77 0 01.793-.562c.313-.138.646-.207.998-.207zm-2.202 6.69h4.403v15.982h-4.403V8.69zm15.164 6.57c.587.06 1.154.197 1.702.414a4.937 4.937 0 011.497.888c.45.375.812.83 1.086 1.362.274.513.411 1.105.411 1.776 0 .848-.176 1.618-.528 2.309a5.261 5.261 0 01-1.438 1.716 6.32 6.32 0 01-2.055 1.036 7.6 7.6 0 01-2.437.385 7.775 7.775 0 01-2.436-.385 6.67 6.67 0 01-2.084-1.036 5.416 5.416 0 01-1.409-1.716c-.352-.691-.528-1.46-.528-2.31h4.403c0 .672.215 1.125.645 1.362.451.237.92.355 1.409.355.49 0 .95-.128 1.38-.384.45-.257.675-.642.675-1.155 0-.374-.215-.71-.646-1.006-.43-.296-.978-.493-1.643-.592a10.245 10.245 0 01-2.261-.562 8.265 8.265 0 01-1.937-1.036 5.765 5.765 0 01-1.35-1.421 3.381 3.381 0 01-.499-1.776c0-.809.166-1.539.499-2.19a5.022 5.022 0 011.35-1.658 6.357 6.357 0 012.025-1.036 7.51 7.51 0 012.407-.384 7.33 7.33 0 012.407.384 5.711 5.711 0 011.996 1.066 4.793 4.793 0 011.38 1.687c.333.671.499 1.44.499 2.309h-4.403c0-.336-.059-.612-.176-.829a1.148 1.148 0 00-.411-.533 1.344 1.344 0 00-.616-.266 2.544 2.544 0 00-.676-.089c-.489 0-.929.109-1.32.326-.372.197-.558.562-.558 1.095 0 .236.107.463.323.68.215.198.499.385.851.563.352.158.744.296 1.174.414.431.099.861.178 1.292.237zm14.914-7.044a8.76 8.76 0 013.434.68 8.418 8.418 0 012.789 1.806 8.353 8.353 0 011.879 2.693 7.81 7.81 0 01.704 3.286c0 .276-.02.542-.059.799-.019.237-.049.483-.088.74h-12.798a4.801 4.801 0 001.585 2.101c.744.533 1.595.8 2.554.8a4.2 4.2 0 001.967-.474 4.428 4.428 0 001.497-1.243h4.872a8.278 8.278 0 01-1.262 2.308 8.058 8.058 0 01-1.908 1.836 9.058 9.058 0 01-2.407 1.154 8.43 8.43 0 01-2.759.444 9.092 9.092 0 01-3.434-.651 9.166 9.166 0 01-2.818-1.835 8.986 8.986 0 01-1.879-2.694 8.09 8.09 0 01-.675-3.285c0-1.164.225-2.26.675-3.286a8.986 8.986 0 011.879-2.693 8.746 8.746 0 012.818-1.806 8.746 8.746 0 013.434-.68zm4.139 6.926a4.536 4.536 0 00-1.615-2.072 4.124 4.124 0 00-2.524-.829c-.959 0-1.81.276-2.554.829a4.61 4.61 0 00-1.585 2.072h8.278z" fill="#423C3C"/></svg>