<svg xmlns="http://www.w3.org/2000/svg" width="17.726" height="20.955"><path d="M15.13 2.6A8.863 8.863 0 000 8.867c0 4.789 4.528 8.772 6.961 10.912.338.3.63.554.863.771a1.527 1.527 0 002.079 0c.233-.217.525-.474.863-.771 2.433-2.14 6.961-6.123 6.961-10.912A8.805 8.805 0 0015.13 2.6zM9.954 18.854c-.345.3-.644.566-.89.8a.3.3 0 01-.4 0c-.246-.23-.544-.492-.89-.8-2.287-2.012-6.544-5.757-6.544-9.991a7.635 7.635 0 0115.271 0c-.003 4.237-4.26 7.979-6.547 9.991z"/><path d="M8.863 4.623a3.906 3.906 0 103.906 3.906 3.91 3.91 0 00-3.906-3.906zm0 6.584a2.678 2.678 0 112.678-2.678 2.681 2.681 0 01-2.678 2.678z"/></svg>