<svg width="18" height="21" fill="none" xmlns="http://www.w3.org/2000/svg"><path d="M15.363 2.601a9.037 9.037 0 00-4.608-2.43 9.11 9.11 0 00-5.2.505 8.975 8.975 0 00-4.038 3.271A8.8 8.8 0 000 8.883c0 4.8 4.598 8.791 7.068 10.936.343.3.64.555.876.773a1.562 1.562 0 002.112 0c.236-.218.533-.475.876-.773C13.402 17.673 18 13.682 18 8.882a8.725 8.725 0 00-.681-3.4 8.817 8.817 0 00-1.956-2.88zm-5.256 16.29c-.35.3-.654.567-.903.802a.307.307 0 01-.407 0c-.25-.23-.552-.493-.903-.802-2.323-2.016-6.645-5.77-6.645-10.013a7.6 7.6 0 012.27-5.41 7.805 7.805 0 015.483-2.242c2.056 0 4.028.806 5.482 2.241a7.602 7.602 0 012.271 5.411c-.003 4.246-4.325 7.997-6.648 10.013z" fill="#000"/><path d="M9 5a4 4 0 100 8 4 4 0 000-8zm0 6.742a2.743 2.743 0 110-5.485 2.743 2.743 0 010 5.485z" fill="#000"/></svg>