<svg width="70" height="48" fill="none" xmlns="http://www.w3.org/2000/svg"><rect width="70" height="48" rx="4" fill="#000"/><path fill-rule="evenodd" clip-rule="evenodd" d="M35.5 34.314a13.502 13.502 0 01-8.852 3.298C19.11 37.612 13 31.43 13 23.806 13 16.181 19.11 10 26.648 10c3.378 0 6.469 1.242 8.852 3.298A13.502 13.502 0 0144.352 10C51.89 10 58 16.181 58 23.806c0 7.625-6.11 13.806-13.648 13.806a13.505 13.505 0 01-8.852-3.298z" fill="#ED0006"/><path fill-rule="evenodd" clip-rule="evenodd" d="M35.5 34.314a13.841 13.841 0 004.795-10.508A13.84 13.84 0 0035.5 13.298 13.502 13.502 0 0144.352 10C51.89 10 58 16.181 58 23.806c0 7.625-6.11 13.806-13.648 13.806a13.505 13.505 0 01-8.852-3.298z" fill="#F9A000"/><path fill-rule="evenodd" clip-rule="evenodd" d="M35.5 13.298a13.841 13.841 0 014.795 10.508c0 4.208-1.86 7.976-4.795 10.508a13.841 13.841 0 01-4.795-10.508c0-4.208 1.86-7.976 4.795-10.508z" fill="#FF5E00"/></svg>