<svg width="18" height="14" fill="none" xmlns="http://www.w3.org/2000/svg"><path d="M1.2 0C.542 0 0 .558 0 1.235v11.53C0 13.442.542 14 1.2 14h15.6c.658 0 1.2-.558 1.2-1.235V1.235C18 .558 17.458 0 16.8 0H1.2zm0 .824h15.6c.228 0 .4.176.4.411v9.844l-3.506-3.95a.4.4 0 00-.588 0l-2.862 3.126L6.1 5.488a.4.4 0 00-.362-.135.4.4 0 00-.232.129L.8 10.687V1.235C.8 1 .972.823 1.2.823zm9.2 2.058c-.879 0-1.6.743-1.6 1.647 0 .905.721 1.647 1.6 1.647.879 0 1.6-.742 1.6-1.647 0-.904-.721-1.647-1.6-1.647zm0 .824c.447 0 .8.363.8.823 0 .46-.353.824-.8.824a.806.806 0 01-.8-.824c0-.46.353-.823.8-.823zm-4.606 2.67l5.912 6.8H1.2a.397.397 0 01-.4-.411v-.869l4.994-5.52zm7.6 1.64l3.806 4.285v.464a.397.397 0 01-.4.411h-4.019l-2-2.303 2.613-2.856z" fill="#212529"/></svg>