<svg width="100pt" height="100pt" viewBox="0 0 100 100" xmlns="http://www.w3.org/2000/svg"><path d="M56.984 93.016a6.984 6.984 0 11-13.969 0c0-3.86 3.125-6.984 6.985-6.984s6.984 3.125 6.984 6.984M13.602 81.617c-7.352 0-7.352-11.398 0-11.398 6.25 0 6.617-21.324 6.617-28.676 0-18.016 10.66-28.309 22.793-30.883C40.805 5.512 44.481 0 49.997 0s9.191 5.516 6.984 10.66c12.133 2.574 22.426 12.867 22.426 30.883 0 7.352.367 28.676 6.984 28.676 7.352 0 7.352 11.398 0 11.398H13.598zm17.281-38.234c0 3.309-5.148 3.676-5.148 0-.368-7.719 1.84-18.016 9.191-22.059 3.309-1.84 5.883 2.941 2.574 4.41-5.515 2.942-6.984 12.133-6.617 17.648z" fill-rule="evenodd"/></svg>