<svg width="41" height="51" fill="none" xmlns="http://www.w3.org/2000/svg"><path d="M40.327 13.61H28.296c-.334 0-.558-.221-.558-.55l.002-11.852c0-.329.224-.55.558-.55.334 0 .558.221.558.55l-.002 11.304h11.473c.334 0 .558.22.558.55 0 .33-.224.547-.558.547z" fill="#99A3AD"/><path d="M36.54 50.707H4.568C2.005 50.707 0 48.73 0 46.207l.002-41.16c0-2.525 2.005-4.5 4.568-4.5h23.728c.11 0 .334.109.445.109L40.885 12.51c.11.11.11.22.11.439v33.255c.113 2.527-1.892 4.503-4.455 4.503zM4.568 1.756c-1.892 0-3.342 1.428-3.342 3.292v41.158c0 1.867 1.56 3.402 3.453 3.402H36.65c1.894 0 3.453-1.537 3.453-3.402l.002-32.926-11.92-11.524H4.567z" fill="#99A3AD"/><path d="M33.309 19.756h-19.27c-.335 0-.558-.22-.558-.55 0-.329.223-.549.557-.549h19.273c.334 0 .558.22.558.55-.002.329-.226.55-.56.55zm0 5.377H7.91c-.334 0-.558-.22-.558-.55 0-.328.224-.549.558-.549h25.399c.334 0 .558.22.558.55 0 .331-.224.55-.558.55zm0 5.489H7.91c-.334 0-.558-.22-.558-.55 0-.329.224-.55.558-.55h25.399c.334 0 .558.221.558.55 0 .33-.224.55-.558.55zm0 5.488H7.91c-.334 0-.558-.22-.558-.55 0-.329.224-.549.558-.549h25.399c.334 0 .558.22.558.55 0 .329-.224.55-.558.55zm0 5.377H7.91c-.334 0-.558-.22-.558-.549 0-.33.224-.55.558-.55h25.399c.334 0 .558.22.558.55 0 .33-.224.55-.558.55z" fill="#99A3AD"/></svg>