<svg xmlns="http://www.w3.org/2000/svg" id="prefix__prefix__Payment_Card" width="64" height="64"><defs><style>.prefix__prefix__cls-1{fill:#fff}.prefix__prefix__cls-2{fill:#0f1f38}</style></defs><rect id="prefix__prefix__Circle" width="64" height="64" class="prefix__prefix__cls-1" rx="32"/><g id="prefix__prefix__Group_87991" transform="translate(-1230 -557)"><path id="prefix__prefix__Rectangle_5144" d="M0 0h32v32H0z" class="prefix__prefix__cls-1" transform="translate(1246 573)"/><g id="prefix__prefix__Credit_card" transform="translate(1246 575)"><g id="prefix__prefix__Group_87906"><path id="prefix__prefix__Path_122711" d="M194.541 37.6l-20.483-4.335a1.615 1.615 0 00-1.909 1.242l-.389 2.5 23.634 5 .389-2.5a1.615 1.615 0 00-1.242-1.907z" class="prefix__prefix__cls-2" transform="translate(-163.818 -33.234)"/><path id="prefix__prefix__Path_122712" d="M22.495 169.122a1.55 1.55 0 00-1.911-1.132l-3.714 1.08-8.755-1.94-.963 4.763-6.016 1.748a1.641 1.641 0 00-1.081 2l3.39 12.792a1.55 1.55 0 001.911 1.132l19.444-5.65a1.641 1.641 0 001.081-2l-.582-2.2 2.181.483a1.544 1.544 0 001.823-1.242l1.38-6.827-7.856-1.741zm2.246 6.5l.481-2.38a.636.636 0 01.75-.511l2.273.5a.665.665 0 01.488.785l-.481 2.38a.636.636 0 01-.75.511l-2.273-.5a.665.665 0 01-.488-.783zm-23.265-.706l5.382-1.563 12.7-3.69 1.366-.4a.272.272 0 01.074-.01.3.3 0 01.279.22l.16.6.5 1.9-20 5.811-.663-2.5a.307.307 0 01.201-.366zm23.19 7.35a.307.307 0 01-.028.228.283.283 0 01-.171.143l-19.448 5.652a.271.271 0 01-.074.011.3.3 0 01-.279-.22l-1.977-7.461 20-5.811 1.22 4.6z" class="prefix__prefix__cls-2" transform="translate(0 -161.1)"/><path id="prefix__prefix__Path_122713" d="M92.736 445.087a.665.665 0 00-.816-.461l-2.378.66a.664.664 0 00-.461.816l.66 2.378a.664.664 0 00.816.461l2.378-.66a.665.665 0 00.461-.816z" class="prefix__prefix__cls-2" transform="translate(-84.19 -423.408)"/></g></g></g></svg>