<svg width="46" height="32" fill="none" xmlns="http://www.w3.org/2000/svg"><path d="M0 6a6 6 0 016-6h34a6 6 0 016 6v20a6 6 0 01-6 6H6a6 6 0 01-6-6V6z" fill="#fff"/><path fill-rule="evenodd" clip-rule="evenodd" d="M14.334 21.144h-2.746l-2.06-8.087c-.097-.373-.305-.701-.61-.856a8.764 8.764 0 00-2.518-.856v-.312h4.425c.61 0 1.068.468 1.144 1.011l1.069 5.834 2.745-6.845h2.67l-4.119 10.111zm5.645 0h-2.593l2.135-10.11h2.594l-2.136 10.11zm5.492-7.31c.076-.544.534-.856 1.068-.856a4.712 4.712 0 012.517.467l.459-2.177a6.401 6.401 0 00-2.365-.468c-2.518 0-4.35 1.4-4.35 3.344 0 1.48 1.298 2.255 2.214 2.723.99.467 1.373.778 1.296 1.244 0 .7-.763 1.011-1.525 1.011-.916 0-1.832-.233-2.67-.622l-.458 2.178c.916.388 1.907.545 2.823.545 2.822.076 4.576-1.323 4.576-3.423 0-2.645-3.585-2.8-3.585-3.966zm12.663 7.31l-2.06-10.11h-2.212a1.15 1.15 0 00-1.068.777l-3.814 9.333h2.67l.533-1.477h3.28l.306 1.477h2.365zm-3.89-7.388l.762 3.81H32.87l1.374-3.81z" fill="#172B85"/><path d="M6 1h34v-2H6v2zm39 5v20h2V6h-2zm-5 25H6v2h34v-2zM1 26V6h-2v20h2zm5 5a5 5 0 01-5-5h-2a7 7 0 007 7v-2zm39-5a5 5 0 01-5 5v2a7 7 0 007-7h-2zM40 1a5 5 0 015 5h2a7 7 0 00-7-7v2zM6-1a7 7 0 00-7 7h2a5 5 0 015-5v-2z" fill="#F4F7FD"/></svg>