<svg width="70" height="48" fill="none" xmlns="http://www.w3.org/2000/svg"><rect width="70" height="48" rx="4" fill="#253B80"/><path fill-rule="evenodd" clip-rule="evenodd" d="M18.247 18.127h-3.429a.476.476 0 00-.47.402l-1.387 8.793a.285.285 0 00.282.33h1.637c.235 0 .435-.17.471-.403l.374-2.371a.476.476 0 01.47-.403h1.086c2.259 0 3.562-1.093 3.903-3.259.153-.947.006-1.692-.438-2.213-.487-.573-1.351-.876-2.499-.876zm.396 3.212c-.188 1.23-1.128 1.23-2.037 1.23h-.517l.363-2.298a.286.286 0 01.282-.241h.237c.62 0 1.203 0 1.505.353.18.21.235.523.167.956zm9.854-.04h-1.642c-.14 0-.26.102-.282.242L26.5 22l-.115-.167c-.355-.516-1.148-.688-1.94-.688-1.814 0-3.364 1.374-3.665 3.302-.157.962.066 1.881.611 2.522.5.59 1.217.836 2.069.836 1.462 0 2.272-.94 2.272-.94l-.073.456a.286.286 0 00.282.33h1.479c.235 0 .434-.17.47-.402l.888-5.62a.285.285 0 00-.281-.33zm-2.289 3.196c-.158.938-.903 1.568-1.852 1.568-.477 0-.858-.153-1.103-.443-.243-.288-.335-.697-.258-1.154.148-.93.905-1.58 1.84-1.58.467 0 .846.155 1.095.447.25.296.35.708.278 1.162zm9.384-3.196h1.65c.231 0 .366.26.235.449l-5.488 7.921a.476.476 0 01-.392.205h-1.648a.286.286 0 01-.233-.451l1.709-2.412-1.818-5.334a.286.286 0 01.271-.378H31.5c.21 0 .396.138.457.34l.965 3.221 2.276-3.352a.48.48 0 01.394-.21z" fill="#fff"/><path fill-rule="evenodd" clip-rule="evenodd" d="M53.483 27.321l1.407-8.953a.286.286 0 01.282-.242h1.584c.175 0 .31.157.282.33L55.65 27.25a.476.476 0 01-.47.402h-1.415a.285.285 0 01-.282-.33zm-10.777-9.195h-3.43a.477.477 0 00-.47.402l-1.387 8.793a.285.285 0 00.282.33h1.76c.163 0 .303-.12.329-.282l.393-2.492a.476.476 0 01.47-.402h1.086c2.259 0 3.562-1.094 3.903-3.26.154-.947.006-1.692-.438-2.213-.487-.572-1.35-.876-2.498-.876zm.395 3.212c-.187 1.23-1.127 1.23-2.036 1.23h-.517l.363-2.298a.285.285 0 01.282-.24h.237c.619 0 1.204 0 1.505.352.18.21.235.524.166.956zm9.854-.04h-1.641a.284.284 0 00-.282.242l-.073.459-.115-.166c-.355-.516-1.148-.689-1.939-.689-1.815 0-3.364 1.374-3.666 3.302-.156.962.066 1.881.612 2.523.501.59 1.216.835 2.068.835 1.462 0 2.273-.94 2.273-.94l-.074.456a.286.286 0 00.283.331h1.479c.234 0 .433-.17.47-.403l.888-5.62a.286.286 0 00-.283-.33zm-2.289 3.196c-.158.938-.903 1.568-1.853 1.568-.476 0-.858-.153-1.102-.443-.243-.287-.334-.697-.258-1.153.149-.93.905-1.58 1.84-1.58.467 0 .845.154 1.095.447.251.295.35.707.278 1.161z" fill="#179BD7"/></svg>