<svg width="24" height="24" fill="none" xmlns="http://www.w3.org/2000/svg"><rect width="24" height="24" rx="12" fill="#28B0A6"/><path d="M11.697 9.278a2.423 2.423 0 00-2.42-2.42 2.423 2.423 0 00-2.42 2.42 2.422 2.422 0 002.42 2.42 2.423 2.423 0 002.42-2.42zm-3.637 0A1.22 1.22 0 019.277 8.06a1.22 1.22 0 011.218 1.218 1.219 1.219 0 01-2.436 0zm6.627 3.39a2.422 2.422 0 00-2.42 2.42 2.423 2.423 0 002.42 2.42 2.423 2.423 0 002.42-2.42 2.422 2.422 0 00-2.42-2.42zm0 3.637a1.22 1.22 0 01-1.218-1.218 1.22 1.22 0 011.218-1.217c.672 0 1.218.546 1.218 1.217a1.22 1.22 0 01-1.218 1.218zm.074-9.137a.652.652 0 00-.886.252l-4.94 8.87a.652.652 0 001.139.634l4.94-8.87a.652.652 0 00-.252-.886z" fill="#fff"/></svg>