<svg width="19" height="19" fill="none" xmlns="http://www.w3.org/2000/svg"><path fill-rule="evenodd" clip-rule="evenodd" d="M10.08 6.056H8.069v2.012h2.013V6.056zm4.026 0h-2.013v2.012h2.013V6.056zm3.019 6.54c-1.253 0-2.46-.2-3.593-.573a1.01 1.01 0 00-1.021.247l-2.214 2.218a15.18 15.18 0 01-6.63-6.626L5.88 5.643a1.01 1.01 0 00.246-1.02 11.51 11.51 0 01-.573-3.598c0-.559-.448-1.006-1.006-1.006H1.025C.466.019.019.466.019 1.025c0 9.448 7.657 17.106 17.105 17.106.559 0 1.007-.448 1.007-1.006v-3.522c0-.559-.448-1.006-1.006-1.006zm-1.007-6.54v2.012h2.013V6.056h-2.013z" fill="#4D4D4D"/></svg>