<svg width="24" height="16" fill="none" xmlns="http://www.w3.org/2000/svg"><path d="M12 1.96c-5.663 0-10.274 4.564-10.274 10.168 0 .48-.378.854-.863.854A.847.847 0 010 12.128c0-1.601.324-3.149.944-4.617A11.278 11.278 0 013.506 3.75a11.689 11.689 0 013.802-2.535 12.127 12.127 0 019.33 0 9.848 9.848 0 011.888 1.014l-1.86.907C15.29 2.36 13.698 1.96 12 1.96zm11.056 5.525a12.515 12.515 0 00-1.753-2.882l-.863 1.734a10.006 10.006 0 011.834 5.79c0 .481.378.855.863.855a.847.847 0 00.863-.854c0-1.601-.324-3.176-.944-4.643zM9.196 8.499a3.87 3.87 0 011.186-.8L20.71 2.68 15.64 12.9a3.826 3.826 0 01-.809 1.175 3.938 3.938 0 01-2.804 1.147 3.938 3.938 0 01-2.805-1.147c-1.59-1.548-1.59-4.056-.026-5.577zm1.429 4.136c.377.373.89.56 1.375.56s.998-.187 1.375-.56c.755-.747.755-1.975 0-2.749A1.973 1.973 0 0012 9.326c-.512 0-.998.187-1.375.56-.755.774-.755 2.002 0 2.749z" fill="#28B0A6"/></svg>