<svg width="56" height="56" fill="none" xmlns="http://www.w3.org/2000/svg"><rect width="56" height="56" rx="28" fill="#546179"/><path d="M41.008 12c-.035 0-.07.002-.104.004-.205.017-4.777.437-6.495 3.769l-6.204-.63a4.98 4.98 0 00-4.042 1.438L13.459 27.244a5.003 5.003 0 00.001 7.064l8.21 8.212A5.036 5.036 0 0025.24 44c1.27 0 2.538-.48 3.502-1.443a1.249 1.249 0 10-1.767-1.767c-.966.964-2.552.947-3.536-.037l-8.21-8.212a2.5 2.5 0 01-.003-3.529L25.93 18.349a2.492 2.492 0 012.022-.72l9.513.966.123 1.215a13.213 13.213 0 01-3.419.75 1.25 1.25 0 00.133 2.496c.08-.005 1.68-.096 3.547-.693l.581 5.711a2.488 2.488 0 01-.717 2.018l-6.099 6.006a1.25 1.25 0 101.755 1.78l6.102-6.01.006-.005a4.976 4.976 0 001.44-4.042l-.663-6.512c.841-.492 1.55-1.071 2.117-1.732C43.453 18.315 44 16.788 44 15.041v-.05A2.995 2.995 0 0041.008 12zm.492 3.041c0 1.397-.505 2.53-1.535 3.426l-.117-1.139a1.25 1.25 0 00-1.117-1.116l-1.45-.148c1.28-1.22 3.394-1.519 3.772-1.563.25.023.447.234.447.49v.05zM31.368 30.305a1.25 1.25 0 01-1.767-1.767.523.523 0 00.154-.394.69.69 0 00-.21-.466l-.766-.766a1.034 1.034 0 00-.719-.312.944.944 0 00-.693.288l-.198.197c-.407.407-.422 1.08-.032 1.47l.81.809a3.52 3.52 0 011.044 2.465 3.444 3.444 0 01-1.021 2.491l-.092.092a3.409 3.409 0 01-2.422 1.013 3.511 3.511 0 01-2.13-.729l-.523.505a1.246 1.246 0 01-1.768-.032 1.249 1.249 0 01.033-1.766l.468-.452a3.129 3.129 0 01-.841-2.06c-.018-.833.3-1.618.894-2.212a1.251 1.251 0 011.768 1.767.52.52 0 00-.162.39.65.65 0 00.2.444l1.317 1.316c.413.412 1.014.433 1.398.05l.092-.093a.967.967 0 00.288-.698 1.037 1.037 0 00-.311-.724l-.81-.81c-1.372-1.37-1.357-3.614.032-5.003l.198-.197a3.442 3.442 0 012.45-1.02h.038a3.493 3.493 0 011.79.515l.536-.554A1.25 1.25 0 0132.21 25.8l-.53.548c.356.506.557 1.102.575 1.723a3.003 3.003 0 01-.886 2.234z" fill="#fff"/></svg>