<svg width="33" height="26" fill="none" xmlns="http://www.w3.org/2000/svg"><path d="M32.14 12c0-2.206-1.794-4-4-4a3.95 3.95 0 00-2.404.81c-2.232-1.55-5.156-2.474-8.266-2.708l1.678-3.936 4.882 1.14A2.993 2.993 0 0027 6c1.654 0 3-1.346 3-3s-1.346-3-3-3c-1.048 0-1.97.542-2.506 1.36L18.788.026a1 1 0 00-1.15.582l-2.32 5.44c-3.358.116-6.558 1.062-8.974 2.71A3.919 3.919 0 004 8c-2.206 0-4 1.794-4 4 0 1.462.798 2.784 2.022 3.462A5.957 5.957 0 002 16c0 5.514 6.28 10 14 10 7.718 0 14-4.486 14-10 0-.156-.006-.31-.016-.464A3.962 3.962 0 0032.14 12zM27 2c.55 0 1 .448 1 1s-.45 1-1 1-1-.448-1-1 .45-1 1-1zM9 15c0-1.102.898-2 2-2 1.102 0 2 .898 2 2 0 1.104-.898 2-2 2-1.102 0-2-.896-2-2zm11.618 6.634a7.873 7.873 0 01-9.236 0 1 1 0 111.172-1.62 5.865 5.865 0 006.892 0 1 1 0 111.172 1.62zM21 17a2 2 0 010-4 2 2 0 010 4z" fill="#fff"/></svg>