<svg width="51" height="52" fill="none" xmlns="http://www.w3.org/2000/svg"><path d="M51 26.057C51 11.929 39.583.476 25.5.476S0 11.929 0 26.056c0 14.129 11.417 25.582 25.5 25.582 4.41 0 8.66-1.126 12.427-3.238.066.032.161.09.297.18.058.04.517.358.683.468.332.22.648.412.995.595 2.125 1.126 4.888 1.657 8.856 1.39.725-.048 1.036-.946.497-1.435-1.378-1.25-2.795-2.836-3.758-4.206-.48-.683-.824-1.281-.999-1.732a1.733 1.733 0 01-.115-.411A25.532 25.532 0 0051 26.057zM40.67 48.184a9.78 9.78 0 01-.854-.512c-.15-.099-.605-.415-.678-.464-.654-.438-1.087-.599-1.662-.414-.094.03-.186.071-.274.121A23.682 23.682 0 0125.5 49.987c-13.175 0-23.855-10.714-23.855-23.93 0-13.217 10.68-23.93 23.855-23.93s23.855 10.713 23.855 23.93A23.88 23.88 0 0143.09 42.22c-1.113 1.219.794 4.318 3.637 7.232-2.644-.01-4.555-.472-6.059-1.268z" fill="#99A3AD"/><path d="M31.973 35.648l-6.277-4.382a.82.82 0 00-.94 0l-6.277 4.382 2.214-7.343a.827.827 0 00-.29-.897l-6.094-4.634 7.646-.157a.823.823 0 00.76-.554l2.51-7.246 2.512 7.246a.823.823 0 00.76.554l7.645.157-6.093 4.634a.827.827 0 00-.29.897l2.214 7.343zm-6.747-2.7l7.75 5.41c.64.447 1.483-.167 1.257-.916l-2.734-9.065 7.523-5.723c.622-.472.3-1.466-.48-1.482l-9.44-.193-3.1-8.946c-.255-.74-1.297-.74-1.553 0l-3.1 8.946-9.44.193c-.78.016-1.101 1.01-.48 1.482l7.524 5.723-2.734 9.065c-.226.749.617 1.363 1.257.916l7.75-5.41z" fill="#99A3AD"/></svg>