<svg width="56" height="56" fill="none" xmlns="http://www.w3.org/2000/svg"><rect width="56" height="56" rx="28" fill="#546179"/><path d="M28.716 36.876h-5.882a.98.98 0 000 1.96h5.882a2.941 2.941 0 000-5.881h-1.96a.98.98 0 010-1.96h5.88a.98.98 0 000-1.961h-5.88a2.941 2.941 0 000 5.881h1.96a.98.98 0 010 1.96zm7.842-9.558a1.49 1.49 0 00-2.98 0c0 .824 1.49 2.696 1.49 2.696s1.49-1.872 1.49-2.696zm-14.135 7.136a1.49 1.49 0 00-2.98 0c0 .824 1.49 2.686 1.49 2.686s1.49-1.862 1.49-2.686z" fill="#fff"/><path d="M28 7.886C16.898 7.9 7.902 16.894 7.89 27.995c1.105 26.677 39.118 26.67 40.218 0C48.096 16.895 39.1 7.899 28 7.886zM40.742 38.22a2.937 2.937 0 01-2.933 2.94H18.197a2.937 2.937 0 01-2.941-2.932V23.505h25.487v14.714zm0-16.68H15.256v-1.911a2.95 2.95 0 012.94-2.94h2.942v-.981a.98.98 0 011.96 0v.98h3.921v-.98a.98.98 0 011.96 0v.98h3.922v-.98a.98.98 0 011.96 0v.98h2.941a2.95 2.95 0 012.941 2.941v1.912z" fill="#fff"/></svg>