<svg xmlns="http://www.w3.org/2000/svg" width="24" height="24"><path d="M20.727 0H3.273A3.277 3.277 0 000 3.273v17.454A3.277 3.277 0 003.273 24h17.454A3.278 3.278 0 0024 20.727V3.273A3.277 3.277 0 0020.727 0zm2.182 20.727a2.189 2.189 0 01-2.182 2.182H3.273a2.189 2.189 0 01-2.182-2.182V3.273a2.189 2.189 0 012.182-2.182h17.454a2.189 2.189 0 012.182 2.182z"/><circle cx="1.042" cy="1.042" r="1.042" transform="translate(5.741 2.864)"/><circle cx="1.042" cy="1.042" r="1.042" transform="translate(10.958 2.864)"/><circle cx="1.042" cy="1.042" r="1.042" transform="translate(16.176 2.864)"/><path d="M7.934 9.217h3.76v3.345h-3.76zm4.373 0h3.76v3.345h-3.76zm4.37 0h3.76v3.345h-3.76zM3.563 13.116h3.76v3.343h-3.76zm4.371 0h3.76v3.343h-3.76zm4.373 0h3.76v3.343h-3.76zm4.37 0h3.76v3.343h-3.76zM3.563 17.015h3.76v3.343h-3.76zm4.371 0h3.76v3.343h-3.76zm4.373 0h3.76v3.343h-3.76zm4.37 0h3.76v3.343h-3.76z"/></svg>