<svg width="18" height="25" fill="none" xmlns="http://www.w3.org/2000/svg"><path d="M15.905 8.015h-4.127v.973h4.127c.603 0 1.11.52 1.11 1.136v12.72c0 .616-.507 1.135-1.11 1.135H2.063c-.603 0-1.11-.519-1.11-1.135v-12.72c0-.617.507-1.136 1.11-1.136h3.81v-.973h-3.81C.921 8.015 0 8.955 0 10.124v12.72c0 1.168.92 2.109 2.063 2.109h13.873c1.143 0 2.064-.941 2.064-2.11V10.125c-.032-1.168-.952-2.11-2.095-2.11zm-7.397-5.29v13.759h.952V2.726l2.096 2.141.666-.681L8.984.876l-3.27 3.31.667.681 2.127-2.141z" fill="#546179"/></svg>