<svg xmlns="http://www.w3.org/2000/svg" width="88" height="88"><g fill="none" stroke="#fff" stroke-width="2"><circle cx="44" cy="44" r="44" stroke="none"/><circle cx="44" cy="44" r="43"/></g><g fill="#fff"><path d="M31.801 40.959a.65.65 0 00.65.65h9.11a.65.65 0 00.65-.65v-.65h4.553a.65.65 0 00.565-.328l2.6-4.553a.65.65 0 00.086-.323V26.65a.65.65 0 00-.65-.65H24.651a.65.65 0 00-.65.65v8.455a.65.65 0 00.086.323l2.6 4.553a.65.65 0 00.565.328h4.549zm1.951-.65a.65.65 0 00.609-.422l1.793-4.781h1.7l1.793 4.781a.65.65 0 00.609.422zm-8.451-5.376V27.3h23.414v7.632l-2.329 4.075h-5.675l-1.793-4.781a.65.65 0 00-.609-.422h-2.6a.65.65 0 00-.609.422l-1.799 4.782H27.63z"/><path d="M39.16 32.502l1.793 4.781a.65.65 0 00.609.422h3.9a.65.65 0 00.582-.359l1.3-2.6a.65.65 0 00.069-.291v-5.2a.65.65 0 00-.65-.65h-19.51a.65.65 0 00-.65.65v5.2a.65.65 0 00.069.291l1.3 2.6a.65.65 0 00.582.359h3.9a.65.65 0 00.609-.422l1.795-4.781zm-5.357-.876l-1.8 4.776h-3.05l-1.05-2.1v-4.4h18.211v4.4l-1.052 2.1h-3.05l-1.793-4.781a.65.65 0 00-.609-.422h-5.207a.65.65 0 00-.609.422zm27.269 16.487h-18.21a5.862 5.862 0 00-5.706 4.553h-2.1a.65.65 0 00-.65.65h-1.303a.65.65 0 00-.65-.65h-1.3v-5.2a1.953 1.953 0 011.951-1.951h18.213v.65a.65.65 0 00.65.65h7.8a.65.65 0 00.65-.65v-.65h1.3a.65.65 0 100-1.3h-1.3v-.65a.65.65 0 00-.65-.65h-.65v-1.366a3.257 3.257 0 002.6-3.187v-2.6a.65.65 0 00-.65-.65h-2.6a.65.65 0 00-.65.65v1.3a.65.65 0 01-1.3 0v-1.3a.65.65 0 00-.65-.65h-2.6a.65.65 0 00-.65.65v2.6a3.257 3.257 0 002.6 3.187v1.356h-3.25a.65.65 0 00-.65.65v.65H33.103a3.256 3.256 0 00-3.252 3.252v5.2h-1.3a.65.65 0 00-.65.65v3.9a.65.65 0 00.65.65h3.9a.65.65 0 00.65-.65h1.3a.65.65 0 00.65.65h2.1a5.862 5.862 0 005.706 4.553h18.215a1.953 1.953 0 001.951-1.951V50.064a1.953 1.953 0 00-1.951-1.951zm-1.951-2.6h-3.9v-1.3h3.9zm-5.2-7.154v-1.954h1.3v.65a1.951 1.951 0 003.9 0v-.65h1.3v1.951a1.953 1.953 0 01-1.951 1.951h-2.6a1.953 1.953 0 01-1.952-1.95zm2.6 3.252h1.3v1.3h-1.3zm-3.9 2.6h1.3v1.3h-1.3zM31.803 56.567h-2.6v-2.6h2.6zm1.3-.65v-1.3h1.3v1.3zm14.308-6.5h5.2v11.707h-5.2zm-1.3 11.707h-1.3V49.413h1.3zm7.8-11.707h1.3v11.707h-1.3zm-18.208 7.15v-2.6h1.3v2.6zm2.6 0v-2.6a4.558 4.558 0 014.553-4.553h.65v11.707h-.65a4.558 4.558 0 01-4.547-4.554zm23.414 3.9a.651.651 0 01-.65.65H56.52V49.413h4.553a.651.651 0 01.65.65z"/></g></svg>