<svg width="33" height="27" fill="none" xmlns="http://www.w3.org/2000/svg"><path d="M10.309 26.64c12.37 0 19.135-10.249 19.135-19.135 0-.291-.006-.58-.02-.87a13.694 13.694 0 003.355-3.481 13.412 13.412 0 01-3.862 1.058 6.747 6.747 0 002.957-3.72c-1.3.77-2.738 1.33-4.27 1.632a6.727 6.727 0 00-11.461 6.133A19.096 19.096 0 012.281 1.232a6.702 6.702 0 00-.91 3.38 6.72 6.72 0 002.992 5.599 6.675 6.675 0 01-3.046-.842l-.001.086a6.727 6.727 0 005.395 6.593 6.738 6.738 0 01-3.037.116 6.734 6.734 0 006.283 4.67 13.496 13.496 0 01-8.353 2.88c-.542 0-1.078-.032-1.604-.094a19.038 19.038 0 0010.309 3.02z" fill="#fff"/></svg>