<svg width="50" height="56" fill="none" xmlns="http://www.w3.org/2000/svg"><path d="M25.016.128h-.048c-3.281.002-6.53.66-9.56 1.936a24.963 24.963 0 00-8.102 5.503 25.389 25.389 0 00-5.41 8.23A25.69 25.69 0 000 25.504a.68.68 0 00.165.444.66.66 0 001.139-.272c.176-.677.803-2.612 1.586-3.471 1.1-1.045 2.443-1.598 3.887-1.587A5.393 5.393 0 0110.6 22.2c1.026 1.111 1.568 2.467 1.568 3.92 0 .18.07.35.195.477a.658.658 0 00.937 0 .678.678 0 00.194-.476c0-1.452.541-2.805 1.564-3.915 1.094-1.039 2.427-1.588 3.86-1.588a5.34 5.34 0 012.08.403c.66.271 1.262.672 1.77 1.18 1.026 1.11 1.569 2.466 1.569 3.92v18.206a4.726 4.726 0 01-1.354 3.316 4.586 4.586 0 01-3.267 1.374c-1.226 0-2.4-.494-3.267-1.374a4.726 4.726 0 01-1.354-3.316v-2.214c0-.179-.07-.35-.194-.476a.658.658 0 00-.938 0 .678.678 0 00-.194.476v2.214c0 1.6.627 3.136 1.742 4.268a5.903 5.903 0 004.205 1.768c1.577 0 3.09-.636 4.205-1.768a6.082 6.082 0 001.742-4.268V26.12c0-1.452.54-2.805 1.564-3.915 1.093-1.038 2.427-1.587 3.86-1.587h.027a5.393 5.393 0 013.823 1.582c1.026 1.111 1.569 2.466 1.569 3.92 0 .18.07.35.194.476a.658.658 0 00.937 0 .678.678 0 00.194-.475c0-1.452.541-2.805 1.564-3.916 1.094-1.038 2.427-1.587 3.86-1.587h.027a5.393 5.393 0 013.823 1.582c.786.857 1.415 2.797 1.591 3.474a.673.673 0 00.271.387.655.655 0 00.868-.114.679.679 0 00.165-.444v-.032c-.004-6.723-2.638-13.17-7.323-17.921C37.992 2.797 31.639.128 25.016.128zm23.046 21.14a6.7 6.7 0 00-4.776-1.996h-.034c-1.78 0-3.434.68-4.78 1.967a7.398 7.398 0 00-1.303 1.9 7.394 7.394 0 00-1.293-1.89 6.7 6.7 0 00-4.759-1.977h-.033c-1.78 0-3.434.68-4.78 1.967a7.396 7.396 0 00-1.304 1.9 7.395 7.395 0 00-1.293-1.89 6.7 6.7 0 00-4.759-1.977h-.033c-1.78 0-3.433.68-4.78 1.967a7.4 7.4 0 00-1.303 1.9 7.394 7.394 0 00-1.294-1.89 6.7 6.7 0 00-4.757-1.977h-.033c-1.781 0-3.434.68-4.781 1.966a4.199 4.199 0 00-.342.413c.899-5.627 3.74-10.747 8.017-14.443a23.464 23.464 0 0115.326-5.735h.048a23.464 23.464 0 0115.336 5.73c4.28 3.697 7.124 8.819 8.024 14.45a4.181 4.181 0 00-.314-.385z" fill="#99A3AD"/><path d="M49.629 34.08l-9.735-4.849a.654.654 0 00-.583 0l-9.735 4.834a.667.667 0 00-.372.605v9.249c0 1.027.276 2.174.8 3.315.669 1.462 1.666 2.725 2.735 3.464l6.49 4.488a.656.656 0 00.746 0l6.49-4.488C48.447 49.328 50 46.35 50 43.918v-9.235a.68.68 0 00-.371-.604zm-.955 9.839c0 1.964-1.353 4.559-2.955 5.666l-6.117 4.23-6.117-4.23c-.877-.606-1.708-1.67-2.28-2.918-.435-.952-.675-1.928-.675-2.748v-8.83l9.07-4.505 9.073 4.519v8.816z" fill="#99A3AD"/><path d="M35.946 41.462a.658.658 0 00-.935.014.678.678 0 00.009.95l2.94 2.91a.658.658 0 00.926 0l5.298-5.244a.678.678 0 00.009-.95.658.658 0 00-.935-.014l-4.834 4.787-2.478-2.453z" fill="#99A3AD"/></svg>