<svg width="70" height="48" fill="none" xmlns="http://www.w3.org/2000/svg"><rect width="70" height="48" rx="4" fill="#00579F"/><path d="M29.948 32.166H25.99l2.476-15.308h3.958l-2.476 15.308zm14.347-14.933a9.755 9.755 0 00-3.55-.652c-3.909 0-6.661 2.084-6.678 5.064-.033 2.199 1.97 3.42 3.469 4.153 1.53.75 2.051 1.238 2.051 1.906-.015 1.025-1.237 1.498-2.377 1.498-1.58 0-2.426-.244-3.713-.814l-.521-.245-.554 3.436c.928.423 2.638.798 4.414.815 4.153 0 6.857-2.052 6.889-5.228.016-1.742-1.042-3.077-3.322-4.169-1.385-.7-2.233-1.172-2.233-1.889.017-.651.718-1.319 2.28-1.319a6.725 6.725 0 012.948.587l.358.162.539-3.305zm5.262 9.51c.326-.88 1.58-4.283 1.58-4.283-.016.033.326-.896.521-1.466l.277 1.32s.75 3.663.912 4.429h-3.29zm4.886-9.885H51.38c-.944 0-1.661.277-2.068 1.27l-5.88 14.037h4.154l.83-2.296H53.5c.114.538.472 2.296.472 2.296h3.665l-3.193-15.307zm-31.759 0l-3.876 10.438-.424-2.116c-.716-2.443-2.964-5.097-5.472-6.417l3.55 13.386h4.186l6.221-15.29h-4.185z" fill="#fff"/><path d="M15.209 16.858H8.84l-.066.31c4.968 1.27 8.258 4.332 9.61 8.012L17 18.145c-.228-.977-.928-1.254-1.791-1.287z" fill="#FAA61A"/></svg>