<svg width="14" height="25" fill="none" xmlns="http://www.w3.org/2000/svg"><path d="M10.049 4.59c1.152 0 2.087-.97 2.087-2.164 0-1.194-.935-2.162-2.087-2.162-1.153 0-2.088.968-2.088 2.162 0 1.195.935 2.163 2.088 2.163zm3.155 6.153c-.15-.016-3.474-.4-3.654-4.275a1.596 1.596 0 00-.027-1.12.916.916 0 00-.277-.45 1.459 1.459 0 00-2.318.164c-1.7 2.53-1.97 7.197-1.995 7.721-.041.853.593 1.578 1.415 1.62.026.002.05.003.076.003.79 0 1.448-.643 1.488-1.469.033-.663.186-2.195.528-3.642.913 1.902 2.598 2.825 3.916 3.147l-1.704 3.004a5.27 5.27 0 00-1.834-1.424 1.137 1.137 0 00-1.527.59c-.265.6-.01 1.31.57 1.583.705.334 1.178.89 1.492 1.541l-3.302 5.822a.287.287 0 00.096.385c.043.026.09.038.137.038a.27.27 0 00.234-.138l3.093-5.452c.622 2 .119 4.46.111 4.494-.138.644.253 1.282.874 1.426.085.02.17.029.252.029.528 0 1.004-.378 1.124-.934.05-.231.947-4.578-.964-7.479l1.917-3.38.107.014a.894.894 0 00.963-.82c.048-.502-.306-.949-.79-.998z" fill="#28B0A6"/><path d="M2.725 13.56l.09.002c.933 0 1.711-.758 1.76-1.733.08-1.61.535-4.653 1.415-5.962.557-.828.36-1.967-.439-2.543a1.724 1.724 0 00-2.453.454c-1.744 2.593-2.018 7.335-2.044 7.867-.049 1.007.7 1.864 1.671 1.914zm2.294.691c-.637 0-1.153.535-1.153 1.195 0 1.757-2.189 4.922-3.568 6.505a1.225 1.225 0 00.081 1.686 1.127 1.127 0 001.628-.084c.426-.488 4.164-4.86 4.164-8.108 0-.66-.516-1.194-1.152-1.194z" fill="#28B0A6"/></svg>