<svg width="30" height="30" fill="none" xmlns="http://www.w3.org/2000/svg"><path fill-rule="evenodd" clip-rule="evenodd" d="M14.615 26.677a12.05 12.05 0 01-6.073-1.642 1.284 1.284 0 00-.983-.13l-3.996 1.097 1.393-3.066a1.28 1.28 0 00-.127-1.275 11.965 11.965 0 01-2.276-7.046c0-6.651 5.41-12.062 12.062-12.062 6.65 0 12.061 5.41 12.061 12.062 0 6.651-5.41 12.062-12.061 12.062zm0-26.677C6.555 0 0 6.556 0 14.615c0 2.835.803 5.557 2.334 7.92l-2.22 4.89a1.278 1.278 0 001.161 1.805c.823 0 5.312-1.41 6.455-1.725a14.6 14.6 0 006.884 1.725c8.057 0 14.615-6.557 14.615-14.615C29.23 6.556 22.672.001 14.615 0z" fill="#fff"/><path fill-rule="evenodd" clip-rule="evenodd" d="M18.105 16.323c-.553.227-.907 1.093-1.265 1.535-.184.226-.403.262-.686.148-2.076-.827-3.668-2.213-4.813-4.123-.195-.296-.16-.53.074-.806.346-.407.782-.87.875-1.42.208-1.214-1.38-4.982-3.478-3.275C2.777 13.3 18.88 26.344 21.786 19.29c.822-2-2.764-3.341-3.681-2.966z" fill="#fff"/></svg>