<svg width="24" height="25" fill="none" xmlns="http://www.w3.org/2000/svg"><path d="M19.907 4.16c1.017-.444.757.443.082 1.159-3.199 3.456-.637 1.767 1.765 2.123 1.072.16.454.724-.61.892-2.65.417-5.848.44-6.879 3.373 3.8 1.878 6.702-3.013 8.394-2.97.372.7-1.653 2.031-2.356 3.1.304.081 4.92.476 3.386 1.124-.429.18-2.327.16-3.397.495.108.147 3.67 3.63 1.956 3.052-1.486-.502-4.31-4.231-7.373-3.225-.898.295-.95.345-.115 1.45 1.895 2.51 7.754 1.792 7.472 2.802-.15.538-3.124.232-3.962.325.41.613 3.103 3.222 2.015 3.39-.37.057-2.446-1.944-3.097-2.368-.228 1.273.503 4.247-.46 4.014-1.03-.25.247-5.78-3.188-7.828-.8-.477-.925-.163-1.022.822-.4 4.047 3.933 6.41 3.365 7.346-.487.803-2.161-1.791-3.164-2.502-.309 1.075-.044 4.277-.867 3.892-.478-.224-.309-2.8-.621-3.877-.858.609-2.76 3.222-3.154 2.494-.5-.921 4.713-4.281 3.185-8.603-1.126-.246-2.823 2.217-3.091 3.256-.324 1.254-.234 3.75-.974 4.66-.757-.164-.355-1.87-.32-2.432.125-2.014.067-1.667-1.503-.204-2.477 2.307-2.493.985-.367-1.06 2.706-2.604-.42-.648-2.782-1.011-.82-.127-.577-.657.318-.855 3.221-.71 5.043.176 7.317-2.859 1.007-1.345-1.006-1.16-1.917-1.099-3.665.25-4.162 2.884-6.45 3.417-.743-.76 1.91-2.15 2.53-3.144-.662-.204-4.601-.005-3.95-.882.31-.419 3.155-.196 3.981-.471-.346-.488-3.822-3.11-2.472-3.225 1.338-.113 3.3 4.284 8.102 3.465 1.917-.328-1.791-3.177-3.045-3.425-1.011-.2-4.41-.051-4.854-.976.538-.879 3.076-.012 4.086-.299-.333-.778-3.32-3.197-2.152-3.423 1.071-.209 3.312 3.954 3.225 2.05-.017-.367-.665-4.504.42-3.68.74.563-.1 5.954 3.05 7.724 1.004.565 1.052-.514 1.041-1.328-.045-3.488-3.822-6.003-3.36-6.8.469-.81 1.984 1.723 3.101 2.338.403-.964.124-4.647 1.047-3.614.385.43.058 2.377.556 3.597.994-.514 2.963-3.452 3.144-2.19.126.877-4.27 4.186-3.308 7.596.31 1.096 1.094.392 1.66-.188 2.449-2.503 1.54-7.343 2.58-7.188.746.111.035 2.553.41 3.844 1.054-.422 1.764-1.37 2.622-2.074z" fill="#28B0A6"/></svg>