<svg fill="none" height="35" width="137" xmlns="http://www.w3.org/2000/svg"><path clip-rule="evenodd" d="M6.416 20.232c.048.288.174.57.378.846s.492.534.864.774.846.432 1.422.576 1.272.216 2.088.216c.624 0 1.212-.054 1.764-.162s1.032-.222 1.44-.342.744-.24 1.008-.36.42-.204.468-.252l2.016 4.032c-.192.12-.51.288-.954.504s-1.002.432-1.674.648a17.597 17.597 0 01-5.328.792c-1.344 0-2.604-.216-3.78-.648a8.887 8.887 0 01-3.078-1.89c-.876-.828-1.566-1.842-2.07-3.042-.504-1.2-.756-2.568-.756-4.104 0-1.44.252-2.76.756-3.96.504-1.2 1.2-2.22 2.088-3.06A9.556 9.556 0 016.2 8.838c1.2-.468 2.496-.702 3.888-.702 1.296 0 2.46.174 3.492.522s1.902.822 2.61 1.422 1.248 1.284 1.62 2.052.558 1.56.558 2.376c0 .888-.156 1.686-.468 2.394s-.87 1.308-1.674 1.8-1.896.87-3.276 1.134-3.138.396-5.274.396zm-.288-3.744c1.608 0 2.856-.06 3.744-.18.888-.12 1.548-.276 1.98-.468s.696-.408.792-.648.144-.48.144-.72c0-.504-.228-.942-.684-1.314s-1.14-.558-2.052-.558c-.648 0-1.212.114-1.692.342s-.882.522-1.206.882-.57.774-.738 1.242-.264.942-.288 1.422zm14.298-1.26c0-1.176.21-2.202.63-3.078s.996-1.614 1.728-2.214 1.596-1.05 2.592-1.35 2.082-.45 3.258-.45c1.44 0 2.724.24 3.852.72s2.04 1.152 2.736 2.016c.696-.864 1.596-1.536 2.7-2.016s2.376-.72 3.816-.72c1.152 0 2.226.15 3.222.45s1.86.75 2.592 1.35 1.308 1.338 1.728 2.214.63 1.902.63 3.078V27h-5.796V16.884c0-1.224-.252-2.1-.756-2.628s-1.212-.792-2.124-.792c-.936 0-1.698.312-2.286.936s-.882 1.62-.882 2.988V27H32.27v-9.612c0-1.368-.288-2.364-.864-2.988s-1.332-.936-2.268-.936c-.912 0-1.626.264-2.142.792s-.774 1.404-.774 2.628V27h-5.796zM52.688 34.2V18.648c0-1.536.156-2.868.468-3.996s.756-2.076 1.332-2.844a8.726 8.726 0 013.492-2.736c1.416-.624 2.988-.936 4.716-.936 1.416 0 2.73.234 3.942.702S68.9 9.96 69.788 10.8c.888.84 1.584 1.86 2.088 3.06s.756 2.52.756 3.96c0 1.464-.234 2.784-.702 3.96s-1.104 2.184-1.908 3.024-1.746 1.488-2.826 1.944-2.232.684-3.456.684c-1.344 0-2.454-.21-3.33-.63s-1.53-.846-1.962-1.278V34.2zm9.864-11.988c1.2 0 2.19-.414 2.97-1.242s1.17-1.89 1.17-3.186-.39-2.34-1.17-3.132-1.77-1.188-2.97-1.188-2.19.384-2.97 1.152-1.17 1.824-1.17 3.168c0 .624.102 1.206.306 1.746s.492 1.008.864 1.404.81.708 1.314.936 1.056.342 1.656.342zm12.57-6.732c0-1.176.198-2.22.594-3.132s.942-1.68 1.638-2.304c.696-.624 1.536-1.098 2.52-1.422s2.064-.486 3.24-.486c1.44 0 2.562.156 3.366.468s1.386.648 1.746 1.008c.216.24.384.492.504.756s.18.576.18.936-.054.696-.162 1.008-.24.588-.396.828-.306.444-.45.612-.252.288-.324.36c-.408-.192-.9-.372-1.476-.54s-1.212-.252-1.908-.252c-.912 0-1.686.264-2.322.792s-.954 1.404-.954 2.628V27h-5.796zm15.198-4.284c0-.936.276-1.596.828-1.98s1.284-.576 2.196-.576c.648 0 1.236.078 1.764.234s.864.258 1.008.306V27H90.32zm-.324-7.488c0-.912.306-1.68.918-2.304C91.526.78 92.288.468 93.2.468s1.68.312 2.304.936c.624.624.936 1.392.936 2.304 0 .912-.312 1.674-.936 2.286-.624.612-1.392.918-2.304.918s-1.674-.306-2.286-.918c-.612-.612-.918-1.374-.918-2.286zm10.482 17.676c.192.144.51.318.954.522s.972.396 1.584.576 1.308.336 2.088.468 1.602.198 2.466.198c.984 0 1.728-.09 2.232-.27s.756-.498.756-.954c0-.48-.21-.81-.63-.99s-1.074-.33-1.962-.45l-1.872-.216c-.936-.12-1.836-.294-2.7-.522s-1.626-.564-2.286-1.008-1.182-1.014-1.566-1.71-.576-1.572-.576-2.628c0-.888.162-1.71.486-2.466s.834-1.416 1.53-1.98 1.584-1.008 2.664-1.332 2.364-.486 3.852-.486c1.512 0 2.814.096 3.906.288s2.034.492 2.826.9c.456.24.822.534 1.098.882.276.348.414.774.414 1.278 0 .384-.078.726-.234 1.026s-.336.558-.54.774-.396.384-.576.504-.294.192-.342.216c-.072-.072-.27-.204-.594-.396s-.756-.378-1.296-.558-1.188-.342-1.944-.486-1.614-.216-2.574-.216c-1.08 0-1.83.126-2.25.378s-.63.582-.63.99.192.696.576.864.96.312 1.728.432l3.276.468c.816.12 1.602.294 2.358.522s1.428.558 2.016.99 1.056.984 1.404 1.656.522 1.488.522 2.448c0 2.016-.768 3.588-2.304 4.716s-3.66 1.692-6.372 1.692c-1.416 0-2.67-.096-3.762-.288s-2.034-.414-2.826-.666-1.434-.516-1.926-.792-.834-.486-1.026-.63zm23.478-1.152c.048.288.174.57.378.846s.492.534.864.774.846.432 1.422.576 1.272.216 2.088.216c.624 0 1.212-.054 1.764-.162s1.032-.222 1.44-.342.744-.24 1.008-.36.42-.204.468-.252l2.016 4.032c-.192.12-.51.288-.954.504s-1.002.432-1.674.648a17.597 17.597 0 01-5.328.792c-1.344 0-2.604-.216-3.78-.648s-2.202-1.062-3.078-1.89-1.566-1.842-2.07-3.042-.756-2.568-.756-4.104c0-1.44.252-2.76.756-3.96s1.2-2.22 2.088-3.06c.888-.84 1.932-1.494 3.132-1.962s2.496-.702 3.888-.702c1.296 0 2.46.174 3.492.522s1.902.822 2.61 1.422 1.248 1.284 1.62 2.052.558 1.56.558 2.376c0 .888-.156 1.686-.468 2.394s-.87 1.308-1.674 1.8-1.896.87-3.276 1.134-3.138.396-5.274.396zm-.288-3.744c1.608 0 2.856-.06 3.744-.18s1.548-.276 1.98-.468.696-.408.792-.648.144-.48.144-.72c0-.504-.228-.942-.684-1.314s-1.14-.558-2.052-.558c-.648 0-1.212.114-1.692.342s-.882.522-1.206.882-.57.774-.738 1.242-.264.942-.288 1.422z" fill="#fff" fill-rule="evenodd"/></svg>